Aaram-Regular.ufo
<glyph name="exclam" format="1">
  <advance width="161"/>
  <unicode hex="0021"/>
  <outline>
    <contour>
      <point x="68" y="76"/>
      <point x="62" y="84"/>
      <point x="62" y="93" type="curve" smooth="yes"/>
      <point x="62" y="183" type="line"/>
      <point x="62" y="631" type="line"/>
      <point x="62" y="714" type="line" smooth="yes"/>
      <point x="62" y="723"/>
      <point x="68" y="731"/>
      <point x="79" y="731" type="curve" smooth="yes"/>
      <point x="88" y="731"/>
      <point x="96" y="723"/>
      <point x="96" y="714" type="curve" smooth="yes"/>
      <point x="96" y="631" type="line"/>
      <point x="96" y="183" type="line"/>
      <point x="96" y="93" type="line" smooth="yes"/>
      <point x="96" y="84"/>
      <point x="88" y="76"/>
      <point x="79" y="76" type="curve" smooth="yes"/>
    </contour>
    <contour>
      <point x="88" y="46"/>
      <point x="96" y="38"/>
      <point x="96" y="29" type="curve" smooth="yes"/>
      <point x="96" y="16" type="line" smooth="yes"/>
      <point x="96" y="7"/>
      <point x="88" y="-1"/>
      <point x="79" y="-1" type="curve" smooth="yes"/>
      <point x="68" y="-1"/>
      <point x="62" y="7"/>
      <point x="62" y="16" type="curve" smooth="yes"/>
      <point x="62" y="29" type="line" smooth="yes"/>
      <point x="62" y="38"/>
      <point x="68" y="46"/>
      <point x="79" y="46" type="curve" smooth="yes"/>
    </contour>
  </outline>
</glyph>
<glyph name="quotedbl" format="1">
  <advance width="244"/>
  <unicode hex="0022"/>
  <outline>
    <contour>
      <point x="105" y="697" type="line"/>
      <point x="107" y="640" type="line"/>
      <point x="107" y="628"/>
      <point x="97" y="617"/>
      <point x="85" y="617" type="curve" smooth="yes"/>
      <point x="72" y="617"/>
      <point x="62" y="627"/>
      <point x="62" y="640" type="curve"/>
      <point x="60" y="696" type="line"/>
      <point x="61" y="692" type="line"/>
      <point x="59" y="749" type="line"/>
      <point x="59" y="761"/>
      <point x="69" y="772"/>
      <point x="81" y="772" type="curve" smooth="yes"/>
      <point x="94" y="772"/>
      <point x="104" y="762"/>
      <point x="104" y="750" type="curve"/>
      <point x="106" y="693" type="line"/>
    </contour>
    <contour>
      <point x="181" y="642" type="line"/>
      <point x="181" y="630"/>
      <point x="171" y="619"/>
      <point x="159" y="619" type="curve" smooth="yes"/>
      <point x="146" y="619"/>
      <point x="136" y="629"/>
      <point x="136" y="642" type="curve"/>
      <point x="134" y="698" type="line"/>
      <point x="135" y="694" type="line"/>
      <point x="133" y="751" type="line"/>
      <point x="133" y="763"/>
      <point x="143" y="774"/>
      <point x="155" y="774" type="curve" smooth="yes"/>
      <point x="168" y="774"/>
      <point x="178" y="764"/>
      <point x="178" y="752" type="curve"/>
      <point x="180" y="695" type="line"/>
      <point x="179" y="699" type="line"/>
    </contour>
  </outline>
</glyph>
<glyph name="numbersign" format="1">
  <advance width="677"/>
  <unicode hex="0023"/>
  <outline>
    <contour>
      <point x="641" y="444" type="line"/>
      <point x="661" y="437"/>
      <point x="654" y="417" type="qcurve" smooth="yes"/>
      <point x="649" y="403"/>
      <point x="634" y="403" type="qcurve" smooth="yes"/>
      <point x="629" y="403"/>
      <point x="628" y="404" type="qcurve" smooth="yes"/>
      <point x="479" y="436" type="line"/>
      <point x="449" y="300" type="line"/>
      <point x="619" y="264" type="line"/>
      <point x="619" y="263" type="line"/>
      <point x="639" y="257"/>
      <point x="632" y="237" type="qcurve" smooth="yes"/>
      <point x="629" y="223"/>
      <point x="613" y="223" type="qcurve" smooth="yes"/>
      <point x="607" y="223"/>
      <point x="606" y="224" type="qcurve" smooth="yes"/>
      <point x="441" y="259" type="line"/>
      <point x="408" y="107" type="line"/>
      <point x="408" y="106" type="line"/>
      <point x="403" y="92"/>
      <point x="388" y="92" type="qcurve" smooth="yes"/>
      <point x="382" y="92"/>
      <point x="381" y="93" type="qcurve" smooth="yes"/>
      <point x="361" y="100"/>
      <point x="368" y="119" type="qcurve" smooth="yes"/>
      <point x="400" y="268" type="line"/>
      <point x="268" y="296" type="line"/>
      <point x="228" y="107" type="line"/>
      <point x="227" y="106" type="line"/>
      <point x="222" y="92"/>
      <point x="208" y="92" type="qcurve" smooth="yes"/>
      <point x="202" y="92"/>
      <point x="201" y="93" type="qcurve" smooth="yes"/>
      <point x="182" y="101"/>
      <point x="188" y="119" type="qcurve" smooth="yes"/>
      <point x="228" y="305" type="line"/>
      <point x="155" y="321" type="line"/>
      <point x="154" y="321" type="line"/>
      <point x="132" y="329"/>
      <point x="116" y="329" type="qcurve" smooth="yes"/>
      <point x="94" y="329"/>
      <point x="86" y="306" type="qcurve" smooth="yes"/>
      <point x="81" y="292"/>
      <point x="66" y="292" type="qcurve" smooth="yes"/>
      <point x="60" y="292"/>
      <point x="59" y="293" type="qcurve" smooth="yes"/>
      <point x="51" y="296"/>
      <point x="44" y="313"/>
      <point x="46" y="320" type="qcurve" smooth="yes"/>
      <point x="63" y="370"/>
      <point x="117" y="370" type="qcurve" smooth="yes"/>
      <point x="140" y="370"/>
      <point x="167" y="361" type="qcurve" smooth="yes"/>
      <point x="236" y="346" type="line"/>
      <point x="266" y="482" type="line"/>
      <point x="176" y="501" type="line" smooth="yes"/>
      <point x="152" y="509"/>
      <point x="138" y="509" type="qcurve" smooth="yes"/>
      <point x="115" y="509"/>
      <point x="107" y="486" type="qcurve" smooth="yes"/>
      <point x="102" y="472"/>
      <point x="87" y="472" type="qcurve" smooth="yes"/>
      <point x="82" y="472"/>
      <point x="81" y="473" type="qcurve" smooth="yes"/>
      <point x="62" y="479"/>
      <point x="67" y="500" type="qcurve" smooth="yes"/>
      <point x="85" y="550"/>
      <point x="139" y="550" type="qcurve" smooth="yes"/>
      <point x="162" y="550"/>
      <point x="189" y="541" type="qcurve" smooth="yes"/>
      <point x="274" y="523" type="line"/>
      <point x="285" y="571" type="line" smooth="yes"/>
      <point x="296" y="603"/>
      <point x="293" y="615" type="qcurve" smooth="yes"/>
      <point x="290" y="632"/>
      <point x="270" y="640" type="qcurve" smooth="yes"/>
      <point x="262" y="643"/>
      <point x="254" y="659"/>
      <point x="257" y="666" type="qcurve" smooth="yes"/>
      <point x="262" y="681"/>
      <point x="277" y="681" type="qcurve" smooth="yes"/>
      <point x="281" y="681" type="line" smooth="yes"/>
      <point x="282" y="680"/>
      <point x="284" y="680" type="qcurve" smooth="yes"/>
      <point x="356" y="655"/>
      <point x="325" y="558" type="qcurve"/>
      <point x="315" y="514" type="line"/>
      <point x="447" y="485" type="line"/>
      <point x="465" y="571" type="line"/>
      <point x="476" y="603"/>
      <point x="473" y="615" type="qcurve" smooth="yes"/>
      <point x="471" y="633"/>
      <point x="450" y="640" type="qcurve" smooth="yes"/>
      <point x="432" y="646"/>
      <point x="437" y="666" type="qcurve" smooth="yes"/>
      <point x="442" y="681"/>
      <point x="457" y="681" type="qcurve" smooth="yes"/>
      <point x="461" y="681" type="line" smooth="yes"/>
      <point x="462" y="680"/>
      <point x="464" y="680" type="qcurve" smooth="yes"/>
      <point x="536" y="655"/>
      <point x="505" y="558" type="qcurve"/>
      <point x="488" y="477" type="line"/>
      <point x="640" y="444" type="line"/>
    </contour>
    <contour>
      <point x="306" y="473" type="line"/>
      <point x="277" y="337" type="line"/>
      <point x="409" y="309" type="line"/>
      <point x="438" y="445" type="line"/>
    </contour>
  </outline>
</glyph>
<glyph name="dollar" format="1">
  <advance width="338"/>
  <unicode hex="0024"/>
  <outline>
    <contour>
      <point x="148" y="-79" type="qcurve" smooth="yes"/>
      <point x="148" y="11" type="line"/>
      <point x="148" y="717" type="line"/>
      <point x="148" y="800" type="line" smooth="yes"/>
      <point x="148" y="817"/>
      <point x="166" y="817" type="qcurve" smooth="yes"/>
      <point x="171" y="817"/>
      <point x="179" y="809"/>
      <point x="182" y="801"/>
      <point x="182" y="800" type="qcurve" smooth="yes"/>
      <point x="182" y="717" type="line"/>
      <point x="182" y="11" type="line"/>
      <point x="182" y="-79" type="line" smooth="yes"/>
      <point x="182" y="-96"/>
      <point x="166" y="-96" type="qcurve" smooth="yes"/>
      <point x="148" y="-96"/>
    </contour>
    <contour>
      <point x="251" y="553" type="line"/>
      <point x="251" y="611" type="line" smooth="yes"/>
      <point x="251" y="646"/>
      <point x="202" y="695"/>
      <point x="132" y="695"/>
      <point x="83" y="646"/>
      <point x="83" y="611" type="qcurve" smooth="yes"/>
      <point x="83" y="427" type="line" smooth="yes"/>
      <point x="83" y="407"/>
      <point x="111" y="385"/>
      <point x="132" y="385" type="qcurve" smooth="yes"/>
      <point x="203" y="385" type="line" smooth="yes"/>
      <point x="253" y="385"/>
      <point x="273" y="354" type="qcurve" smooth="yes"/>
      <point x="289" y="327"/>
      <point x="289" y="274" type="qcurve" smooth="yes"/>
      <point x="289" y="112" type="line" smooth="yes"/>
      <point x="289" y="61"/>
      <point x="254" y="26" type="qcurve" smooth="yes"/>
      <point x="218" y="-10"/>
      <point x="167" y="-10" type="qcurve" smooth="yes"/>
      <point x="117" y="-10"/>
      <point x="45" y="62"/>
      <point x="45" y="112" type="qcurve" smooth="yes"/>
      <point x="45" y="148" type="line"/>
      <point x="83" y="148" type="line"/>
      <point x="83" y="112" type="line" smooth="yes"/>
      <point x="83" y="77"/>
      <point x="132" y="28"/>
      <point x="202" y="28"/>
      <point x="251" y="77"/>
      <point x="251" y="112" type="qcurve" smooth="yes"/>
      <point x="251" y="305" type="line" smooth="yes"/>
      <point x="251" y="347"/>
      <point x="202" y="347" type="qcurve" smooth="yes"/>
      <point x="139" y="347" type="line" smooth="yes"/>
      <point x="92" y="347"/>
      <point x="45" y="394"/>
      <point x="45" y="451" type="qcurve" smooth="yes"/>
      <point x="45" y="611" type="line" smooth="yes"/>
      <point x="45" y="662"/>
      <point x="81" y="698" type="qcurve" smooth="yes"/>
      <point x="116" y="733"/>
      <point x="167" y="733" type="qcurve" smooth="yes"/>
      <point x="219" y="733"/>
      <point x="289" y="663"/>
      <point x="289" y="611" type="qcurve" smooth="yes"/>
      <point x="289" y="553" type="line"/>
    </contour>
  </outline>
</glyph>
<glyph name="percent" format="1">
  <advance width="535"/>
  <unicode hex="0025"/>
  <outline>
    <contour>
      <point x="238" y="451" type="line" smooth="yes"/>
      <point x="238" y="395"/>
      <point x="195" y="352"/>
      <point x="139" y="352" type="curve" smooth="yes"/>
      <point x="84" y="352"/>
      <point x="41" y="395"/>
      <point x="41" y="451" type="curve" smooth="yes"/>
      <point x="41" y="578" type="line" smooth="yes"/>
      <point x="41" y="633"/>
      <point x="84" y="676"/>
      <point x="139" y="676" type="curve" smooth="yes"/>
      <point x="195" y="676"/>
      <point x="238" y="633"/>
      <point x="238" y="578" type="curve" smooth="yes"/>
    </contour>
    <contour>
      <point x="171" y="393"/>
      <point x="197" y="419"/>
      <point x="197" y="451" type="curve" smooth="yes"/>
      <point x="197" y="578" type="line" smooth="yes"/>
      <point x="197" y="610"/>
      <point x="171" y="636"/>
      <point x="139" y="636" type="curve" smooth="yes"/>
      <point x="107" y="636"/>
      <point x="81" y="610"/>
      <point x="81" y="578" type="curve" smooth="yes"/>
      <point x="81" y="451" type="line" smooth="yes"/>
      <point x="81" y="419"/>
      <point x="107" y="393"/>
      <point x="139" y="393" type="curve" smooth="yes"/>
    </contour>
    <contour>
      <point x="432" y="341"/>
      <point x="457" y="330"/>
      <point x="475" y="312" type="curve" smooth="yes"/>
      <point x="493" y="294"/>
      <point x="503" y="269"/>
      <point x="503" y="242" type="curve" smooth="yes"/>
      <point x="503" y="115" type="line" smooth="yes"/>
      <point x="503" y="59"/>
      <point x="460" y="16"/>
      <point x="404" y="16" type="curve" smooth="yes"/>
      <point x="349" y="16"/>
      <point x="306" y="59"/>
      <point x="306" y="115" type="curve" smooth="yes"/>
      <point x="306" y="242" type="line" smooth="yes"/>
      <point x="306" y="269"/>
      <point x="317" y="294"/>
      <point x="335" y="312" type="curve" smooth="yes"/>
      <point x="353" y="330"/>
      <point x="377" y="341"/>
      <point x="404" y="341" type="curve" smooth="yes"/>
    </contour>
    <contour>
      <point x="436" y="57"/>
      <point x="462" y="83"/>
      <point x="462" y="115" type="curve" smooth="yes"/>
      <point x="462" y="242" type="line" smooth="yes"/>
      <point x="462" y="274"/>
      <point x="436" y="300"/>
      <point x="404" y="300" type="curve" smooth="yes"/>
      <point x="372" y="300"/>
      <point x="346" y="274"/>
      <point x="346" y="242" type="curve" smooth="yes"/>
      <point x="346" y="115" type="line" smooth="yes"/>
      <point x="346" y="83"/>
      <point x="372" y="57"/>
      <point x="404" y="57" type="curve" smooth="yes"/>
    </contour>
    <contour>
      <point x="386" y="715"/>
      <point x="401" y="693"/>
      <point x="404" y="666" type="curve" smooth="yes"/>
      <point x="407" y="638"/>
      <point x="399" y="608"/>
      <point x="383" y="577" type="curve"/>
      <point x="176" y="12" type="line" smooth="yes"/>
      <point x="172" y="1"/>
      <point x="161" y="-2"/>
      <point x="150" y="3" type="curve"/>
      <point x="141" y="8"/>
      <point x="137" y="18"/>
      <point x="141" y="29" type="curve" smooth="yes"/>
      <point x="348" y="594" type="line"/>
      <point x="359" y="615"/>
      <point x="367" y="636"/>
      <point x="367" y="653" type="curve" smooth="yes"/>
      <point x="367" y="670"/>
      <point x="359" y="685"/>
      <point x="338" y="696" type="curve"/>
      <point x="327" y="701"/>
      <point x="324" y="711"/>
      <point x="329" y="722" type="curve" smooth="yes"/>
      <point x="334" y="733"/>
      <point x="346" y="736"/>
      <point x="355" y="731" type="curve" smooth="yes"/>
    </contour>
  </outline>
</glyph>
<glyph name="ampersand" format="1">
  <advance width="431"/>
  <unicode hex="0026"/>
  <outline>
    <contour>
      <point x="305" y="318" type="qcurve"/>
      <point x="305" y="121" type="line" smooth="yes"/>
      <point x="305" y="70"/>
      <point x="270" y="35" type="qcurve" smooth="yes"/>
      <point x="234" y="-1"/>
      <point x="183" y="-1" type="qcurve" smooth="yes"/>
      <point x="133" y="-1"/>
      <point x="61" y="71"/>
      <point x="61" y="121" type="qcurve" smooth="yes"/>
      <point x="61" y="317" type="line"/>
      <point x="58" y="317" type="line" smooth="yes"/>
      <point x="40" y="317"/>
      <point x="40" y="355"/>
      <point x="58" y="355" type="qcurve" smooth="yes"/>
      <point x="61" y="355" type="line"/>
      <point x="61" y="611" type="line" smooth="yes"/>
      <point x="61" y="662"/>
      <point x="97" y="698" type="qcurve" smooth="yes"/>
      <point x="132" y="733"/>
      <point x="183" y="733" type="qcurve" smooth="yes"/>
      <point x="235" y="733"/>
      <point x="305" y="663"/>
      <point x="305" y="611" type="qcurve" smooth="yes"/>
      <point x="305" y="570" type="line"/>
      <point x="305" y="555" type="line"/>
      <point x="305" y="552" type="line" smooth="yes"/>
      <point x="305" y="504"/>
      <point x="288" y="486" type="qcurve" smooth="yes"/>
      <point x="264" y="459"/>
      <point x="193" y="459" type="qcurve" smooth="yes"/>
      <point x="191" y="459" type="line" smooth="yes"/>
      <point x="172" y="459"/>
      <point x="172" y="477" type="qcurve" smooth="yes"/>
      <point x="172" y="496"/>
      <point x="191" y="496" type="qcurve" smooth="yes"/>
      <point x="193" y="496" type="line" smooth="yes"/>
      <point x="240" y="496"/>
      <point x="256" y="514" type="qcurve" smooth="yes"/>
      <point x="267" y="526"/>
      <point x="267" y="558" type="qcurve" smooth="yes"/>
      <point x="267" y="567" type="line"/>
      <point x="267" y="570" type="line"/>
      <point x="267" y="571" type="line"/>
      <point x="267" y="611" type="line" smooth="yes"/>
      <point x="267" y="645"/>
      <point x="243" y="671" type="qcurve" smooth="yes"/>
      <point x="217" y="695"/>
      <point x="183" y="695" type="qcurve" smooth="yes"/>
      <point x="148" y="695"/>
      <point x="99" y="646"/>
      <point x="99" y="611" type="qcurve" smooth="yes"/>
      <point x="99" y="355" type="line"/>
      <point x="290" y="355" type="line" smooth="yes"/>
      <point x="321" y="355"/>
      <point x="364" y="398"/>
      <point x="364" y="429" type="qcurve" smooth="yes"/>
      <point x="364" y="448"/>
      <point x="402" y="448"/>
      <point x="402" y="429" type="qcurve" smooth="yes"/>
      <point x="402" y="386"/>
      <point x="347" y="323"/>
    </contour>
    <contour>
      <point x="243" y="62" type="qcurve" smooth="yes"/>
      <point x="267" y="86"/>
      <point x="267" y="121" type="qcurve" smooth="yes"/>
      <point x="267" y="317" type="line"/>
      <point x="99" y="317" type="line"/>
      <point x="99" y="121" type="line" smooth="yes"/>
      <point x="99" y="86"/>
      <point x="148" y="37"/>
      <point x="218" y="37"/>
    </contour>
  </outline>
</glyph>
<glyph name="quotesingle" format="1">
  <advance width="151"/>
  <unicode hex="0027"/>
  <outline>
    <contour>
      <point x="57" y="640" type="qcurve" smooth="yes"/>
      <point x="55" y="696" type="line"/>
      <point x="56" y="692" type="line"/>
      <point x="54" y="749" type="line" smooth="yes"/>
      <point x="54" y="758"/>
      <point x="67" y="772"/>
      <point x="76" y="772" type="qcurve" smooth="yes"/>
      <point x="86" y="772"/>
      <point x="99" y="759"/>
      <point x="99" y="750" type="qcurve" smooth="yes"/>
      <point x="101" y="693" type="line"/>
      <point x="100" y="697" type="line"/>
      <point x="102" y="640" type="line" smooth="yes"/>
      <point x="102" y="631"/>
      <point x="89" y="617"/>
      <point x="80" y="617" type="qcurve" smooth="yes"/>
      <point x="70" y="617"/>
      <point x="57" y="630"/>
    </contour>
  </outline>
</glyph>
<glyph name="parenleft" format="1">
  <advance width="260"/>
  <unicode hex="0028"/>
  <outline>
    <contour>
      <point x="93" y="0"/>
      <point x="97" y="7"/>
      <point x="87" y="53" type="curve" smooth="yes"/>
      <point x="77" y="99"/>
      <point x="64" y="169"/>
      <point x="55" y="250" type="curve" smooth="yes"/>
      <point x="50" y="290"/>
      <point x="48" y="329"/>
      <point x="48" y="366" type="curve" smooth="yes"/>
      <point x="48" y="447"/>
      <point x="59" y="533"/>
      <point x="71" y="600" type="curve" smooth="yes"/>
      <point x="76" y="633"/>
      <point x="82" y="661"/>
      <point x="87" y="682" type="curve" smooth="yes"/>
      <point x="92" y="703"/>
      <point x="94" y="715"/>
      <point x="95" y="717" type="curve"/>
      <point x="97" y="727"/>
      <point x="103" y="732"/>
      <point x="114" y="732" type="curve" smooth="yes"/>
      <point x="197" y="732" type="line" smooth="yes"/>
      <point x="208" y="732"/>
      <point x="216" y="724"/>
      <point x="216" y="713" type="curve" smooth="yes"/>
      <point x="216" y="702"/>
      <point x="208" y="693"/>
      <point x="197" y="693" type="curve" smooth="yes"/>
      <point x="129" y="693" type="line"/>
      <point x="124" y="670"/>
      <point x="113" y="621"/>
      <point x="104" y="562" type="curve" smooth="yes"/>
      <point x="95" y="502"/>
      <point x="87" y="431"/>
      <point x="87" y="366" type="curve" smooth="yes"/>
      <point x="87" y="306"/>
      <point x="95" y="236"/>
      <point x="104" y="176" type="curve" smooth="yes"/>
      <point x="113" y="115"/>
      <point x="124" y="63"/>
      <point x="129" y="39" type="curve"/>
      <point x="197" y="39" type="line" smooth="yes"/>
      <point x="208" y="39"/>
      <point x="216" y="30"/>
      <point x="216" y="19" type="curve" smooth="yes"/>
      <point x="216" y="8"/>
      <point x="208" y="0"/>
      <point x="197" y="0" type="curve" smooth="yes"/>
      <point x="114" y="0" type="line" smooth="yes"/>
    </contour>
  </outline>
</glyph>
<glyph name="parenright" format="1">
  <advance width="244"/>
  <unicode hex="0029"/>
  <outline>
    <contour>
      <point x="59" y="0" type="line" smooth="yes"/>
      <point x="48" y="0"/>
      <point x="40" y="8"/>
      <point x="40" y="19" type="curve" smooth="yes"/>
      <point x="40" y="30"/>
      <point x="48" y="39"/>
      <point x="59" y="39" type="curve" smooth="yes"/>
      <point x="127" y="39" type="line"/>
      <point x="132" y="63"/>
      <point x="143" y="115"/>
      <point x="152" y="176" type="curve" smooth="yes"/>
      <point x="161" y="236"/>
      <point x="169" y="306"/>
      <point x="169" y="366" type="curve" smooth="yes"/>
      <point x="169" y="431"/>
      <point x="161" y="502"/>
      <point x="152" y="562" type="curve" smooth="yes"/>
      <point x="143" y="621"/>
      <point x="132" y="670"/>
      <point x="127" y="693" type="curve"/>
      <point x="59" y="693" type="line" smooth="yes"/>
      <point x="48" y="693"/>
      <point x="40" y="702"/>
      <point x="40" y="713" type="curve" smooth="yes"/>
      <point x="40" y="724"/>
      <point x="48" y="732"/>
      <point x="59" y="732" type="curve" smooth="yes"/>
      <point x="142" y="732" type="line" smooth="yes"/>
      <point x="153" y="732"/>
      <point x="159" y="727"/>
      <point x="161" y="717" type="curve"/>
      <point x="162" y="715"/>
      <point x="165" y="703"/>
      <point x="170" y="682" type="curve" smooth="yes"/>
      <point x="180" y="639"/>
      <point x="192" y="571"/>
      <point x="201" y="489" type="curve" smooth="yes"/>
      <point x="206" y="448"/>
      <point x="208" y="407"/>
      <point x="208" y="366" type="curve" smooth="yes"/>
      <point x="208" y="291"/>
      <point x="197" y="206"/>
      <point x="186" y="138" type="curve" smooth="yes"/>
      <point x="180" y="104"/>
      <point x="175" y="76"/>
      <point x="170" y="53" type="curve" smooth="yes"/>
      <point x="160" y="7"/>
      <point x="163" y="0"/>
      <point x="142" y="0" type="curve" smooth="yes"/>
    </contour>
  </outline>
</glyph>
<glyph name="asterisk" format="1">
  <advance width="564"/>
  <unicode hex="002A"/>
  <outline>
    <contour>
      <point x="294" y="553" type="line"/>
      <point x="514" y="690" type="line"/>
      <point x="514" y="690" type="line"/>
      <point x="522" y="690"/>
      <point x="531" y="681"/>
      <point x="530" y="674" type="curve"/>
      <point x="527" y="662"/>
      <point x="527" y="662"/>
      <point x="514" y="657" type="curve"/>
      <point x="313" y="518" type="line"/>
      <point x="497" y="400" type="line" smooth="yes"/>
      <point x="500" y="398"/>
      <point x="502" y="394"/>
      <point x="502" y="389" type="curve" smooth="yes"/>
      <point x="502" y="381"/>
      <point x="494" y="373"/>
      <point x="485" y="373" type="curve" smooth="yes"/>
      <point x="483" y="373"/>
      <point x="479" y="375"/>
      <point x="474" y="378" type="curve" smooth="yes"/>
      <point x="291" y="496" type="line"/>
      <point x="302" y="309" type="line"/>
      <point x="302" y="301"/>
      <point x="295" y="294"/>
      <point x="286" y="294" type="curve" smooth="yes"/>
      <point x="277" y="294"/>
      <point x="270" y="301"/>
      <point x="270" y="309" type="curve"/>
      <point x="259" y="496" type="line"/>
      <point x="84" y="373" type="line"/>
      <point x="79" y="370"/>
      <point x="76" y="368"/>
      <point x="73" y="368" type="curve" smooth="yes"/>
      <point x="64" y="368"/>
      <point x="57" y="375"/>
      <point x="57" y="384" type="curve" smooth="yes"/>
      <point x="57" y="389"/>
      <point x="58" y="393"/>
      <point x="61" y="395" type="curve" smooth="yes"/>
      <point x="237" y="518" type="line"/>
      <point x="49" y="643" type="line"/>
      <point x="33" y="648"/>
      <point x="32" y="651"/>
      <point x="32" y="660" type="curve" smooth="yes"/>
      <point x="32" y="664"/>
      <point x="40" y="681"/>
      <point x="49" y="676" type="curve"/>
      <point x="258" y="550" type="line"/>
      <point x="259" y="751" type="line" smooth="yes"/>
      <point x="259" y="762"/>
      <point x="264" y="767"/>
      <point x="275" y="767" type="curve" smooth="yes"/>
      <point x="286" y="767"/>
      <point x="291" y="762"/>
      <point x="291" y="751" type="curve" smooth="yes"/>
    </contour>
  </outline>
</glyph>
<glyph name="plus" format="1">
  <advance width="555"/>
  <unicode hex="002B"/>
  <outline>
    <contour>
      <point x="506" y="404"/>
      <point x="514" y="397"/>
      <point x="514" y="386" type="curve" smooth="yes"/>
      <point x="514" y="375"/>
      <point x="506" y="368"/>
      <point x="495" y="368" type="curve" smooth="yes"/>
      <point x="454" y="368" type="line"/>
      <point x="299" y="368" type="line"/>
      <point x="299" y="213" type="line"/>
      <point x="299" y="171" type="line" smooth="yes"/>
      <point x="299" y="160"/>
      <point x="292" y="153"/>
      <point x="281" y="153" type="curve" smooth="yes"/>
      <point x="270" y="153"/>
      <point x="263" y="160"/>
      <point x="263" y="171" type="curve" smooth="yes"/>
      <point x="263" y="213" type="line"/>
      <point x="263" y="368" type="line"/>
      <point x="108" y="368" type="line"/>
      <point x="66" y="368" type="line" smooth="yes"/>
      <point x="55" y="368"/>
      <point x="48" y="375"/>
      <point x="48" y="386" type="curve" smooth="yes"/>
      <point x="48" y="397"/>
      <point x="55" y="404"/>
      <point x="66" y="404" type="curve" smooth="yes"/>
      <point x="108" y="404" type="line"/>
      <point x="263" y="404" type="line"/>
      <point x="263" y="559" type="line"/>
      <point x="263" y="600" type="line" smooth="yes"/>
      <point x="263" y="611"/>
      <point x="270" y="619"/>
      <point x="281" y="619" type="curve" smooth="yes"/>
      <point x="292" y="619"/>
      <point x="299" y="611"/>
      <point x="299" y="600" type="curve" smooth="yes"/>
      <point x="299" y="559" type="line"/>
      <point x="299" y="404" type="line"/>
      <point x="454" y="404" type="line"/>
      <point x="495" y="404" type="line" smooth="yes"/>
    </contour>
  </outline>
</glyph>
<glyph name="comma" format="1">
  <advance width="98"/>
  <unicode hex="002C"/>
  <outline>
    <contour>
      <point x="69" y="88"/>
      <point x="83" y="74"/>
      <point x="83" y="55" type="curve" smooth="yes"/>
      <point x="83" y="31" type="line" smooth="yes"/>
      <point x="83" y="18"/>
      <point x="75" y="7"/>
      <point x="64" y="2" type="curve"/>
      <point x="40" y="-38" type="line"/>
      <point x="37" y="-42"/>
      <point x="32" y="-44"/>
      <point x="27" y="-44" type="curve" smooth="yes"/>
      <point x="25" y="-44"/>
      <point x="24" y="-44"/>
      <point x="23" y="-43" type="curve"/>
      <point x="22" y="-43"/>
      <point x="21" y="-43"/>
      <point x="20" y="-43" type="curve"/>
      <point x="13" y="-38"/>
      <point x="12" y="-29"/>
      <point x="15" y="-24" type="curve" smooth="yes"/>
      <point x="32" y="3" type="line"/>
      <point x="21" y="11"/>
      <point x="17" y="18"/>
      <point x="17" y="31" type="curve" smooth="yes"/>
      <point x="17" y="55" type="line" smooth="yes"/>
      <point x="17" y="74"/>
      <point x="31" y="88"/>
      <point x="50" y="88" type="curve" smooth="yes"/>
    </contour>
  </outline>
</glyph>
<glyph name="period" format="1">
  <advance width="141"/>
  <unicode hex="002E"/>
  <outline>
    <contour>
      <point x="105" y="13"/>
      <point x="91" y="-1"/>
      <point x="72" y="-1" type="curve" smooth="yes"/>
      <point x="53" y="-1"/>
      <point x="39" y="13"/>
      <point x="39" y="32" type="curve" smooth="yes"/>
      <point x="39" y="55" type="line" smooth="yes"/>
      <point x="39" y="75"/>
      <point x="53" y="89"/>
      <point x="72" y="89" type="curve" smooth="yes"/>
      <point x="91" y="89"/>
      <point x="105" y="75"/>
      <point x="105" y="55" type="curve" smooth="yes"/>
      <point x="105" y="32" type="line" smooth="yes"/>
    </contour>
  </outline>
</glyph>
<glyph name="slash" format="1">
  <advance width="433"/>
  <unicode hex="002F"/>
  <outline>
    <contour>
      <point x="372" y="742" type="qcurve" smooth="yes"/>
      <point x="334" y="639" type="line"/>
      <point x="141" y="73" type="line"/>
      <point x="104" y="-31" type="line" smooth="yes"/>
      <point x="101" y="-39"/>
      <point x="85" y="-46"/>
      <point x="77" y="-43" type="qcurve" smooth="yes"/>
      <point x="69" y="-40"/>
      <point x="61" y="-24"/>
      <point x="64" y="-16" type="qcurve" smooth="yes"/>
      <point x="102" y="87" type="line"/>
      <point x="295" y="653" type="line"/>
      <point x="333" y="757" type="line" smooth="yes"/>
      <point x="336" y="765"/>
      <point x="352" y="772"/>
      <point x="360" y="769" type="qcurve" smooth="yes"/>
      <point x="368" y="766"/>
      <point x="375" y="750"/>
    </contour>
  </outline>
</glyph>
<glyph name="zero" format="1">
  <advance width="363"/>
  <unicode hex="0030"/>
  <outline>
    <contour>
      <point x="265" y="685" type="qcurve" smooth="yes"/>
      <point x="300" y="650"/>
      <point x="300" y="600" type="qcurve" smooth="yes"/>
      <point x="300" y="117" type="line" smooth="yes"/>
      <point x="300" y="67"/>
      <point x="265" y="32" type="qcurve" smooth="yes"/>
      <point x="229" y="-4"/>
      <point x="180" y="-4" type="qcurve" smooth="yes"/>
      <point x="132" y="-4"/>
      <point x="60" y="68"/>
      <point x="60" y="117" type="qcurve" smooth="yes"/>
      <point x="60" y="600" type="line" smooth="yes"/>
      <point x="60" y="649"/>
      <point x="96" y="685" type="qcurve" smooth="yes"/>
      <point x="131" y="720"/>
      <point x="180" y="720" type="qcurve" smooth="yes"/>
      <point x="230" y="720"/>
    </contour>
    <contour>
      <point x="97" y="600" type="qcurve" smooth="yes"/>
      <point x="97" y="464" type="line"/>
      <point x="98" y="463" type="line" smooth="yes"/>
      <point x="98" y="462"/>
      <point x="99" y="461" type="qcurve" smooth="yes"/>
      <point x="171" y="322" type="line" smooth="yes"/>
      <point x="184" y="296"/>
      <point x="237" y="277"/>
      <point x="263" y="288" type="qcurve"/>
      <point x="263" y="440" type="line"/>
      <point x="263" y="441" type="line"/>
      <point x="263" y="600" type="line" smooth="yes"/>
      <point x="263" y="634"/>
      <point x="215" y="683"/>
      <point x="145" y="683"/>
      <point x="97" y="634"/>
    </contour>
    <contour>
      <point x="263" y="117" type="qcurve" smooth="yes"/>
      <point x="263" y="249" type="line"/>
      <point x="226" y="239"/>
      <point x="155" y="270"/>
      <point x="137" y="305" type="qcurve" smooth="yes"/>
      <point x="97" y="383" type="line"/>
      <point x="97" y="117" type="line" smooth="yes"/>
      <point x="97" y="82"/>
      <point x="145" y="33"/>
      <point x="215" y="33"/>
      <point x="263" y="82"/>
    </contour>
  </outline>
</glyph>
<glyph name="one" format="1">
  <advance width="212"/>
  <unicode hex="0031"/>
  <outline>
    <contour>
      <point x="134" y="17" type="line" smooth="yes"/>
      <point x="134" y="6"/>
      <point x="126" y="-2"/>
      <point x="115" y="-2" type="curve" smooth="yes"/>
      <point x="104" y="-2"/>
      <point x="97" y="6"/>
      <point x="97" y="17" type="curve" smooth="yes"/>
      <point x="97" y="682" type="line"/>
      <point x="90" y="683"/>
      <point x="84" y="684"/>
      <point x="80" y="685" type="curve" smooth="yes"/>
      <point x="72" y="687"/>
      <point x="68" y="685"/>
      <point x="68" y="678" type="curve"/>
      <point x="67" y="674"/>
      <point x="67" y="668"/>
      <point x="67" y="659" type="curve" smooth="yes"/>
      <point x="67" y="648"/>
      <point x="59" y="640"/>
      <point x="48" y="640" type="curve" smooth="yes"/>
      <point x="37" y="640"/>
      <point x="30" y="648"/>
      <point x="30" y="659" type="curve" smooth="yes"/>
      <point x="30" y="688"/>
      <point x="35" y="704"/>
      <point x="47" y="712" type="curve"/>
      <point x="59" y="719"/>
      <point x="78" y="719"/>
      <point x="109" y="719" type="curve" smooth="yes"/>
      <point x="115" y="719" type="line" smooth="yes"/>
      <point x="125" y="719"/>
      <point x="131" y="714"/>
      <point x="134" y="703" type="curve"/>
    </contour>
  </outline>
</glyph>
<glyph name="two" format="1">
  <advance width="342"/>
  <unicode hex="0032"/>
  <outline>
    <contour>
      <point x="204" y="719"/>
      <point x="234" y="706"/>
      <point x="256" y="684" type="curve" smooth="yes"/>
      <point x="278" y="662"/>
      <point x="291" y="632"/>
      <point x="291" y="599" type="curve" smooth="yes"/>
      <point x="291" y="377" type="line"/>
      <point x="291" y="369" type="line"/>
      <point x="291" y="349" type="line"/>
      <point x="291" y="340" type="line"/>
      <point x="278" y="340" type="line"/>
      <point x="143" y="340" type="line"/>
      <point x="88" y="340" type="line"/>
      <point x="88" y="119" type="line" smooth="yes"/>
      <point x="88" y="72"/>
      <point x="124" y="36"/>
      <point x="171" y="36" type="curve" smooth="yes"/>
      <point x="216" y="36"/>
      <point x="253" y="72"/>
      <point x="253" y="119" type="curve" smooth="yes"/>
      <point x="253" y="152" type="line"/>
      <point x="291" y="152" type="line"/>
      <point x="291" y="119" type="line" smooth="yes"/>
      <point x="291" y="86"/>
      <point x="278" y="57"/>
      <point x="256" y="35" type="curve" smooth="yes"/>
      <point x="234" y="13"/>
      <point x="204" y="-1"/>
      <point x="171" y="-1" type="curve" smooth="yes"/>
      <point x="138" y="-1"/>
      <point x="109" y="13"/>
      <point x="87" y="35" type="curve" smooth="yes"/>
      <point x="65" y="57"/>
      <point x="51" y="86"/>
      <point x="51" y="119" type="curve" smooth="yes"/>
      <point x="51" y="340" type="line"/>
      <point x="51" y="377" type="line"/>
      <point x="74" y="377" type="line"/>
      <point x="88" y="377" type="line"/>
      <point x="199" y="377" type="line"/>
      <point x="253" y="377" type="line"/>
      <point x="253" y="441" type="line"/>
      <point x="253" y="442" type="line"/>
      <point x="253" y="599" type="line" smooth="yes"/>
      <point x="253" y="646"/>
      <point x="216" y="682"/>
      <point x="171" y="682" type="curve" smooth="yes"/>
      <point x="124" y="682"/>
      <point x="88" y="646"/>
      <point x="88" y="599" type="curve" smooth="yes"/>
      <point x="88" y="540" type="line"/>
      <point x="51" y="540" type="line"/>
      <point x="51" y="599" type="line" smooth="yes"/>
      <point x="51" y="632"/>
      <point x="65" y="662"/>
      <point x="87" y="684" type="curve" smooth="yes"/>
      <point x="109" y="706"/>
      <point x="138" y="719"/>
      <point x="171" y="719" type="curve" smooth="yes"/>
    </contour>
  </outline>
</glyph>
<glyph name="three" format="2">
  <advance width="333"/>
  <unicode hex="0033"/>
  <outline>
    <contour>
      <point x="278" y="269" type="qcurve" smooth="yes"/>
      <point x="278" y="118" type="line" smooth="yes"/>
      <point x="278" y="69"/>
      <point x="243" y="34" type="qcurve" smooth="yes"/>
      <point x="207" y="-2"/>
      <point x="158" y="-2" type="qcurve" smooth="yes"/>
      <point x="112" y="-2"/>
      <point x="75" y="32" type="qcurve"/>
      <point x="75" y="33" type="line"/>
      <point x="38" y="70"/>
      <point x="38" y="119" type="qcurve" smooth="yes"/>
      <point x="38" y="155" type="line"/>
      <point x="75" y="155" type="line"/>
      <point x="75" y="118" type="line" smooth="yes"/>
      <point x="75" y="84"/>
      <point x="123" y="36"/>
      <point x="158" y="36" type="qcurve" smooth="yes"/>
      <point x="192" y="36"/>
      <point x="240" y="84"/>
      <point x="240" y="118" type="qcurve" smooth="yes"/>
      <point x="240" y="173" type="line"/>
      <point x="240" y="174" type="line"/>
      <point x="240" y="268" type="line"/>
      <point x="240" y="269" type="line"/>
      <point x="240" y="298"/>
      <point x="201" y="340"/>
      <point x="173" y="342" type="qcurve"/>
      <point x="168" y="342" type="line"/>
      <point x="97" y="342" type="line"/>
      <point x="97" y="379" type="line"/>
      <point x="168" y="379" type="line"/>
      <point x="173" y="379" type="line"/>
      <point x="201" y="381"/>
      <point x="240" y="422"/>
      <point x="240" y="451" type="qcurve"/>
      <point x="240" y="452" type="line"/>
      <point x="240" y="599" type="line" smooth="yes"/>
      <point x="240" y="634"/>
      <point x="192" y="682"/>
      <point x="158" y="682" type="qcurve" smooth="yes"/>
      <point x="123" y="682"/>
      <point x="75" y="634"/>
      <point x="75" y="599" type="qcurve"/>
      <point x="75" y="601" type="line"/>
      <point x="38" y="601" type="line"/>
      <point x="38" y="650"/>
      <point x="74" y="684" type="qcurve" smooth="yes"/>
      <point x="111" y="719"/>
      <point x="158" y="719" type="qcurve" smooth="yes"/>
      <point x="209" y="719"/>
      <point x="242" y="684" type="qcurve" smooth="yes"/>
      <point x="277" y="647"/>
      <point x="277" y="599" type="qcurve" smooth="yes"/>
      <point x="277" y="446" type="line" smooth="yes"/>
      <point x="277" y="431"/>
      <point x="273" y="419" type="qcurve" smooth="yes"/>
      <point x="264" y="390"/>
      <point x="240" y="369" type="qcurve"/>
      <point x="239" y="368"/>
      <point x="229" y="360" type="qcurve"/>
      <point x="235" y="358"/>
      <point x="240" y="351" type="qcurve"/>
      <point x="278" y="318"/>
    </contour>
  </outline>
</glyph>
<glyph name="four" format="1">
  <advance width="371"/>
  <unicode hex="0034"/>
  <outline>
    <contour>
      <point x="290" y="719"/>
      <point x="298" y="712"/>
      <point x="298" y="701" type="curve" smooth="yes"/>
      <point x="298" y="494" type="line"/>
      <point x="298" y="460" type="line"/>
      <point x="298" y="17" type="line" smooth="yes"/>
      <point x="298" y="6"/>
      <point x="290" y="-1"/>
      <point x="279" y="-1" type="curve" smooth="yes"/>
      <point x="268" y="-1"/>
      <point x="260" y="6"/>
      <point x="260" y="17" type="curve" smooth="yes"/>
      <point x="260" y="373" type="line"/>
      <point x="239" y="353"/>
      <point x="210" y="340"/>
      <point x="178" y="340" type="curve" smooth="yes"/>
      <point x="145" y="340"/>
      <point x="116" y="354"/>
      <point x="94" y="376" type="curve" smooth="yes"/>
      <point x="72" y="398"/>
      <point x="58" y="427"/>
      <point x="58" y="460" type="curve" smooth="yes"/>
      <point x="58" y="701" type="line" smooth="yes"/>
      <point x="58" y="712"/>
      <point x="66" y="719"/>
      <point x="77" y="719" type="curve" smooth="yes"/>
      <point x="88" y="719"/>
      <point x="95" y="712"/>
      <point x="95" y="701" type="curve" smooth="yes"/>
      <point x="95" y="460" type="line" smooth="yes"/>
      <point x="95" y="413"/>
      <point x="131" y="377"/>
      <point x="178" y="377" type="curve" smooth="yes"/>
      <point x="223" y="377"/>
      <point x="260" y="413"/>
      <point x="260" y="460" type="curve" smooth="yes"/>
      <point x="260" y="494" type="line"/>
      <point x="260" y="701" type="line" smooth="yes"/>
      <point x="260" y="712"/>
      <point x="268" y="719"/>
      <point x="279" y="719" type="curve" smooth="yes"/>
    </contour>
  </outline>
</glyph>
<glyph name="five" format="1">
  <advance width="358"/>
  <unicode hex="0035"/>
  <outline>
    <contour>
      <point x="177" y="717" type="curve"/>
      <point x="303" y="717" type="line" smooth="yes"/>
      <point x="303" y="680" type="line"/>
      <point x="224.647" y="680"/>
      <point x="177" y="680" type="curve"/>
      <point x="95" y="680" type="line"/>
      <point x="95" y="441" type="line"/>
      <point x="149" y="441" type="line"/>
      <point x="283" y="441" type="line"/>
      <point x="296" y="441" type="line"/>
      <point x="296" y="433" type="line"/>
      <point x="296" y="413" type="line"/>
      <point x="296" y="404" type="line"/>
      <point x="296" y="118" type="line" smooth="yes"/>
      <point x="296" y="85"/>
      <point x="282" y="55"/>
      <point x="261" y="34" type="curve" smooth="yes"/>
      <point x="240" y="13"/>
      <point x="210" y="-1"/>
      <point x="177" y="-1" type="curve" smooth="yes"/>
      <point x="144" y="-1"/>
      <point x="114" y="13"/>
      <point x="93" y="34" type="curve" smooth="yes"/>
      <point x="72" y="55"/>
      <point x="58" y="85"/>
      <point x="58" y="118" type="curve" smooth="yes"/>
      <point x="58" y="224" type="line"/>
      <point x="95" y="224" type="line"/>
      <point x="95" y="118" type="line" smooth="yes"/>
      <point x="95" y="73"/>
      <point x="132" y="36"/>
      <point x="177" y="36" type="curve" smooth="yes"/>
      <point x="222" y="36"/>
      <point x="259" y="73"/>
      <point x="259" y="118" type="curve" smooth="yes"/>
      <point x="259" y="340" type="line"/>
      <point x="259" y="341" type="line"/>
      <point x="259" y="404" type="line"/>
      <point x="205" y="404" type="line"/>
      <point x="95" y="404" type="line"/>
      <point x="81" y="404" type="line"/>
      <point x="58" y="404" type="line"/>
      <point x="58" y="441" type="line"/>
      <point x="58" y="597" type="line"/>
      <point x="58" y="716" type="line"/>
      <point x="104" y="716"/>
      <point x="121" y="717"/>
    </contour>
  </outline>
</glyph>
<glyph name="six" format="1">
  <advance width="349"/>
  <unicode hex="0036"/>
  <outline>
    <contour>
      <point x="263" y="542" type="line"/>
      <point x="263" y="599" type="line" smooth="yes"/>
      <point x="263" y="646"/>
      <point x="227" y="682"/>
      <point x="180" y="682" type="curve" smooth="yes"/>
      <point x="135" y="682"/>
      <point x="97" y="646"/>
      <point x="97" y="599" type="curve" smooth="yes"/>
      <point x="97" y="490" type="line"/>
      <point x="97" y="418" type="line"/>
      <point x="106" y="395"/>
      <point x="123" y="380"/>
      <point x="146" y="377" type="curve"/>
      <point x="207" y="377" type="line"/>
      <point x="216" y="377" type="line"/>
      <point x="233" y="375"/>
      <point x="248" y="368"/>
      <point x="263" y="355" type="curve"/>
      <point x="267" y="352"/>
      <point x="271" y="347"/>
      <point x="276" y="340" type="curve"/>
      <point x="277" y="340" type="line"/>
      <point x="292" y="320"/>
      <point x="300" y="295"/>
      <point x="300" y="268" type="curve" smooth="yes"/>
      <point x="300" y="119" type="line" smooth="yes"/>
      <point x="300" y="86"/>
      <point x="287" y="57"/>
      <point x="265" y="35" type="curve" smooth="yes"/>
      <point x="243" y="13"/>
      <point x="213" y="-1"/>
      <point x="180" y="-1" type="curve" smooth="yes"/>
      <point x="147" y="-1"/>
      <point x="118" y="13"/>
      <point x="96" y="35" type="curve" smooth="yes"/>
      <point x="74" y="57"/>
      <point x="60" y="86"/>
      <point x="60" y="119" type="curve" smooth="yes"/>
      <point x="60" y="442" type="line"/>
      <point x="60" y="449" type="line"/>
      <point x="60" y="453" type="line"/>
      <point x="60" y="490" type="line"/>
      <point x="60" y="599" type="line" smooth="yes"/>
      <point x="60" y="632"/>
      <point x="74" y="662"/>
      <point x="96" y="684" type="curve" smooth="yes"/>
      <point x="118" y="706"/>
      <point x="147" y="719"/>
      <point x="180" y="719" type="curve" smooth="yes"/>
      <point x="213" y="719"/>
      <point x="243" y="706"/>
      <point x="265" y="684" type="curve" smooth="yes"/>
      <point x="287" y="662"/>
      <point x="300" y="632"/>
      <point x="300" y="599" type="curve" smooth="yes"/>
      <point x="300" y="542" type="line"/>
    </contour>
    <contour>
      <point x="144" y="340" type="line"/>
      <point x="127" y="342"/>
      <point x="111" y="349"/>
      <point x="97" y="361" type="curve"/>
      <point x="97" y="119" type="line" smooth="yes"/>
      <point x="97" y="72"/>
      <point x="135" y="36"/>
      <point x="180" y="36" type="curve" smooth="yes"/>
      <point x="227" y="36"/>
      <point x="263" y="72"/>
      <point x="263" y="119" type="curve" smooth="yes"/>
      <point x="263" y="299" type="line"/>
      <point x="254" y="322"/>
      <point x="237" y="337"/>
      <point x="214" y="340" type="curve"/>
      <point x="152" y="340" type="line"/>
    </contour>
  </outline>
</glyph>
<glyph name="seven" format="1">
  <advance width="327"/>
  <unicode hex="0037"/>
  <outline>
    <contour>
      <point x="285" y="686"/>
      <point x="285" y="684"/>
      <point x="284" y="683" type="curve"/>
      <point x="76" y="7" type="line"/>
      <point x="69" y="-1"/>
      <point x="57" y="-3"/>
      <point x="50" y="4" type="curve" smooth="yes"/>
      <point x="45" y="9"/>
      <point x="44" y="13"/>
      <point x="45" y="18" type="curve"/>
      <point x="46" y="22"/>
      <point x="46" y="26"/>
      <point x="47" y="30" type="curve"/>
      <point x="244" y="670" type="line"/>
      <point x="133" y="670" type="line" smooth="yes"/>
      <point x="93" y="670"/>
      <point x="83" y="661"/>
      <point x="83" y="620" type="curve" smooth="yes"/>
      <point x="83" y="609"/>
      <point x="75" y="602"/>
      <point x="64" y="602" type="curve" smooth="yes"/>
      <point x="53" y="602"/>
      <point x="46" y="609"/>
      <point x="46" y="620" type="curve" smooth="yes"/>
      <point x="46" y="681"/>
      <point x="72" y="708"/>
      <point x="133" y="708" type="curve" smooth="yes"/>
      <point x="266" y="708" type="line" smooth="yes"/>
      <point x="279" y="708"/>
      <point x="285" y="702"/>
      <point x="285" y="689" type="curve" smooth="yes"/>
    </contour>
  </outline>
</glyph>
<glyph name="eight" format="1">
  <advance width="350"/>
  <unicode hex="0038"/>
  <outline>
    <contour>
      <point x="294" y="557" type="line" smooth="yes"/>
      <point x="294" y="513"/>
      <point x="271" y="478"/>
      <point x="236" y="457" type="curve"/>
      <point x="271" y="436"/>
      <point x="294" y="397"/>
      <point x="294" y="353" type="curve" smooth="yes"/>
      <point x="294" y="119" type="line" smooth="yes"/>
      <point x="294" y="86"/>
      <point x="281" y="57"/>
      <point x="259" y="35" type="curve" smooth="yes"/>
      <point x="237" y="13"/>
      <point x="207" y="-1"/>
      <point x="174" y="-1" type="curve" smooth="yes"/>
      <point x="141" y="-1"/>
      <point x="112" y="13"/>
      <point x="90" y="35" type="curve" smooth="yes"/>
      <point x="68" y="57"/>
      <point x="54" y="86"/>
      <point x="54" y="119" type="curve" smooth="yes"/>
      <point x="54" y="353" type="line" smooth="yes"/>
      <point x="54" y="397"/>
      <point x="77" y="436"/>
      <point x="112" y="457" type="curve"/>
      <point x="77" y="478"/>
      <point x="54" y="513"/>
      <point x="54" y="557" type="curve" smooth="yes"/>
      <point x="54" y="599" type="line" smooth="yes"/>
      <point x="54" y="632"/>
      <point x="68" y="663"/>
      <point x="90" y="685" type="curve" smooth="yes"/>
      <point x="112" y="707"/>
      <point x="141" y="720"/>
      <point x="174" y="720" type="curve" smooth="yes"/>
      <point x="207" y="720"/>
      <point x="237" y="707"/>
      <point x="259" y="685" type="curve" smooth="yes"/>
      <point x="281" y="663"/>
      <point x="294" y="632"/>
      <point x="294" y="599" type="curve" smooth="yes"/>
    </contour>
    <contour>
      <point x="257" y="353" type="line" smooth="yes"/>
      <point x="257" y="400"/>
      <point x="221" y="436"/>
      <point x="174" y="436" type="curve" smooth="yes"/>
      <point x="127" y="436"/>
      <point x="91" y="400"/>
      <point x="91" y="353" type="curve" smooth="yes"/>
      <point x="91" y="176" type="line"/>
      <point x="91" y="175" type="line"/>
      <point x="91" y="119" type="line" smooth="yes"/>
      <point x="91" y="74"/>
      <point x="127" y="36"/>
      <point x="174" y="36" type="curve" smooth="yes"/>
      <point x="221" y="36"/>
      <point x="257" y="74"/>
      <point x="257" y="119" type="curve" smooth="yes"/>
    </contour>
    <contour>
      <point x="257" y="599" type="line" smooth="yes"/>
      <point x="257" y="646"/>
      <point x="221" y="682"/>
      <point x="174" y="682" type="curve" smooth="yes"/>
      <point x="127" y="682"/>
      <point x="91" y="646"/>
      <point x="91" y="599" type="curve"/>
      <point x="91" y="613" type="line"/>
      <point x="91" y="612" type="line"/>
      <point x="91" y="557" type="line" smooth="yes"/>
      <point x="91" y="510"/>
      <point x="127" y="477"/>
      <point x="174" y="477" type="curve" smooth="yes"/>
      <point x="221" y="477"/>
      <point x="257" y="510"/>
      <point x="257" y="557" type="curve" smooth="yes"/>
    </contour>
  </outline>
</glyph>
<glyph name="nine" format="1">
  <advance width="350"/>
  <unicode hex="0039"/>
  <outline>
    <contour>
      <point x="287" y="268" type="line"/>
      <point x="287" y="265" type="line"/>
      <point x="287" y="228" type="line"/>
      <point x="287" y="119" type="line" smooth="yes"/>
      <point x="287" y="94"/>
      <point x="268" y="51"/>
      <point x="235" y="18"/>
      <point x="192" y="-1"/>
      <point x="167" y="-1" type="qcurve" smooth="yes"/>
      <point x="142" y="-1"/>
      <point x="99" y="18"/>
      <point x="66" y="51"/>
      <point x="47" y="94"/>
      <point x="47" y="119" type="qcurve" smooth="yes"/>
      <point x="47" y="176" type="line"/>
      <point x="84" y="176" type="line"/>
      <point x="84" y="119" type="line" smooth="yes"/>
      <point x="84" y="84"/>
      <point x="132" y="36"/>
      <point x="167" y="36" type="qcurve" smooth="yes"/>
      <point x="201" y="36"/>
      <point x="249" y="84"/>
      <point x="249" y="119" type="qcurve" smooth="yes"/>
      <point x="249" y="228" type="line"/>
      <point x="249" y="300" type="line"/>
      <point x="242" y="317"/>
      <point x="217" y="339"/>
      <point x="201" y="341" type="qcurve" smooth="yes"/>
      <point x="194" y="341" type="line"/>
      <point x="131" y="341" type="line" smooth="yes"/>
      <point x="107" y="344"/>
      <point x="84" y="362" type="qcurve" smooth="yes"/>
      <point x="80" y="366"/>
      <point x="74" y="373"/>
      <point x="70" y="377" type="qcurve"/>
      <point x="70" y="378" type="line"/>
      <point x="59" y="393"/>
      <point x="47" y="430"/>
      <point x="47" y="450" type="qcurve" smooth="yes"/>
      <point x="47" y="599" type="line" smooth="yes"/>
      <point x="47" y="624"/>
      <point x="66" y="667"/>
      <point x="99" y="700"/>
      <point x="142" y="719"/>
      <point x="167" y="719" type="qcurve" smooth="yes"/>
      <point x="192" y="719"/>
      <point x="235" y="700"/>
      <point x="268" y="667"/>
      <point x="287" y="624"/>
      <point x="287" y="599" type="qcurve" smooth="yes"/>
      <point x="287" y="276" type="line"/>
    </contour>
    <contour>
      <point x="249" y="599" type="line" smooth="yes"/>
      <point x="249" y="634"/>
      <point x="201" y="682"/>
      <point x="167" y="682" type="qcurve" smooth="yes"/>
      <point x="132" y="682"/>
      <point x="84" y="634"/>
      <point x="84" y="599" type="qcurve" smooth="yes"/>
      <point x="84" y="419" type="line"/>
      <point x="91" y="402"/>
      <point x="116" y="380"/>
      <point x="133" y="378" type="qcurve" smooth="yes"/>
      <point x="139" y="378" type="line"/>
      <point x="203" y="378" type="line" smooth="yes"/>
      <point x="228" y="375"/>
      <point x="249" y="357" type="qcurve"/>
    </contour>
  </outline>
</glyph>
<glyph name="colon" format="1">
  <advance width="215"/>
  <unicode hex="003A"/>
  <outline>
    <contour>
      <point x="96" y="358" type="line" smooth="yes"/>
      <point x="78" y="358"/>
      <point x="53" y="383"/>
      <point x="53" y="401" type="qcurve" smooth="yes"/>
      <point x="53" y="418"/>
      <point x="78" y="443"/>
      <point x="96" y="443" type="qcurve" smooth="yes"/>
      <point x="126" y="443" type="line" smooth="yes"/>
      <point x="143" y="443"/>
      <point x="168" y="418"/>
      <point x="168" y="401" type="qcurve" smooth="yes"/>
      <point x="168" y="383"/>
      <point x="143" y="358"/>
      <point x="126" y="358" type="qcurve" smooth="yes"/>
    </contour>
    <contour>
      <point x="126" y="204" type="line" smooth="yes"/>
      <point x="143" y="204"/>
      <point x="168" y="179"/>
      <point x="168" y="162" type="qcurve" smooth="yes"/>
      <point x="168" y="145"/>
      <point x="143" y="120"/>
      <point x="126" y="120" type="qcurve" smooth="yes"/>
      <point x="96" y="120" type="line" smooth="yes"/>
      <point x="78" y="120"/>
      <point x="53" y="145"/>
      <point x="53" y="162" type="qcurve" smooth="yes"/>
      <point x="53" y="179"/>
      <point x="78" y="204"/>
      <point x="96" y="204" type="qcurve" smooth="yes"/>
    </contour>
  </outline>
</glyph>
<glyph name="semicolon" format="1">
  <advance width="200"/>
  <unicode hex="003B"/>
  <outline>
    <contour>
      <point x="90" y="355" type="line" smooth="yes"/>
      <point x="72" y="355"/>
      <point x="47" y="380"/>
      <point x="47" y="398" type="qcurve" smooth="yes"/>
      <point x="47" y="415"/>
      <point x="72" y="440"/>
      <point x="90" y="440" type="qcurve" smooth="yes"/>
      <point x="120" y="440" type="line" smooth="yes"/>
      <point x="137" y="440"/>
      <point x="162" y="415"/>
      <point x="162" y="398" type="qcurve" smooth="yes"/>
      <point x="162" y="380"/>
      <point x="137" y="355"/>
      <point x="120" y="355" type="qcurve" smooth="yes"/>
    </contour>
    <contour>
      <point x="120" y="201" type="line" smooth="yes"/>
      <point x="137" y="201"/>
      <point x="162" y="176"/>
      <point x="162" y="159" type="qcurve" smooth="yes"/>
      <point x="162" y="135"/>
      <point x="143" y="124" type="qcurve"/>
      <point x="99" y="58" type="line" smooth="yes"/>
      <point x="94" y="49"/>
      <point x="83" y="49" type="qcurve" smooth="yes"/>
      <point x="76" y="49"/>
      <point x="72" y="53" type="qcurve" smooth="yes"/>
      <point x="64" y="58"/>
      <point x="61" y="73"/>
      <point x="66" y="80" type="qcurve" smooth="yes"/>
      <point x="90" y="117" type="line"/>
      <point x="72" y="117"/>
      <point x="47" y="142"/>
      <point x="47" y="159" type="qcurve" smooth="yes"/>
      <point x="47" y="176"/>
      <point x="72" y="201"/>
      <point x="90" y="201" type="qcurve" smooth="yes"/>
    </contour>
  </outline>
</glyph>
<glyph name="less" format="1">
  <advance width="426"/>
  <unicode hex="003C"/>
  <outline>
    <contour>
      <point x="368" y="1" type="qcurve" smooth="yes"/>
      <point x="358" y="1"/>
      <point x="354" y="7" type="qcurve" smooth="yes"/>
      <point x="40" y="366" type="line"/>
      <point x="354" y="725" type="line" smooth="yes"/>
      <point x="359" y="731"/>
      <point x="375" y="732"/>
      <point x="381" y="727" type="qcurve" smooth="yes"/>
      <point x="387" y="722"/>
      <point x="388" y="705"/>
      <point x="383" y="699" type="qcurve" smooth="yes"/>
      <point x="92" y="366" type="line"/>
      <point x="383" y="33" type="line" smooth="yes"/>
      <point x="388" y="27"/>
      <point x="387" y="10"/>
      <point x="381" y="5" type="qcurve" smooth="yes"/>
      <point x="376" y="1"/>
    </contour>
  </outline>
</glyph>
<glyph name="equal" format="1">
  <advance width="516"/>
  <unicode hex="003D"/>
  <outline>
    <contour>
      <point x="70" y="400"/>
      <point x="74" y="407"/>
      <point x="79" y="407" type="curve" smooth="yes"/>
      <point x="131" y="407" type="line"/>
      <point x="387" y="407" type="line"/>
      <point x="438" y="407" type="line" smooth="yes"/>
      <point x="445" y="407"/>
      <point x="448" y="400"/>
      <point x="448" y="392" type="curve" smooth="yes"/>
      <point x="448" y="385"/>
      <point x="445" y="378"/>
      <point x="438" y="378" type="curve" smooth="yes"/>
      <point x="387" y="378" type="line"/>
      <point x="131" y="378" type="line"/>
      <point x="79" y="378" type="line" smooth="yes"/>
      <point x="74" y="378"/>
      <point x="70" y="385"/>
      <point x="70" y="392" type="curve" smooth="yes"/>
    </contour>
    <contour>
      <point x="68" y="292"/>
      <point x="72" y="299"/>
      <point x="77" y="299" type="curve" smooth="yes"/>
      <point x="129" y="299" type="line"/>
      <point x="385" y="299" type="line"/>
      <point x="436" y="299" type="line" smooth="yes"/>
      <point x="443" y="299"/>
      <point x="446" y="292"/>
      <point x="446" y="285" type="curve" smooth="yes"/>
      <point x="446" y="277"/>
      <point x="443" y="270"/>
      <point x="436" y="270" type="curve" smooth="yes"/>
      <point x="385" y="270" type="line"/>
      <point x="129" y="270" type="line"/>
      <point x="77" y="270" type="line" smooth="yes"/>
      <point x="72" y="270"/>
      <point x="68" y="277"/>
      <point x="68" y="285" type="curve" smooth="yes"/>
    </contour>
  </outline>
</glyph>
<glyph name="greater" format="2">
  <advance width="424"/>
  <unicode hex="003E"/>
  <outline>
    <contour>
      <point x="40" y="17" type="qcurve" smooth="yes"/>
      <point x="40" y="24"/>
      <point x="45" y="31" type="qcurve"/>
      <point x="338" y="367" type="line"/>
      <point x="45" y="703" type="line"/>
      <point x="40" y="710"/>
      <point x="40" y="717" type="qcurve" smooth="yes"/>
      <point x="40" y="725"/>
      <point x="53" y="736"/>
      <point x="61" y="736" type="qcurve"/>
      <point x="70" y="734"/>
      <point x="74" y="729" type="qcurve"/>
      <point x="390" y="367" type="line"/>
      <point x="74" y="5" type="line"/>
      <point x="68" y="-1"/>
      <point x="59" y="-1" type="qcurve" smooth="yes"/>
      <point x="40" y="-1"/>
    </contour>
  </outline>
</glyph>
<glyph name="question" format="1">
  <advance width="311"/>
  <unicode hex="003F"/>
  <outline>
    <contour>
      <point x="278" y="459" type="line"/>
      <point x="278" y="451" type="line"/>
      <point x="276" y="425"/>
      <point x="268" y="403"/>
      <point x="254" y="385" type="curve"/>
      <point x="250" y="378"/>
      <point x="245" y="374"/>
      <point x="240" y="369" type="curve"/>
      <point x="226" y="357"/>
      <point x="210" y="350"/>
      <point x="193" y="348" type="curve"/>
      <point x="191" y="347"/>
      <point x="188" y="347"/>
      <point x="184" y="347" type="curve" smooth="yes"/>
      <point x="121" y="347" type="line"/>
      <point x="100" y="344"/>
      <point x="81" y="329"/>
      <point x="72" y="306" type="curve"/>
      <point x="72" y="130" type="line"/>
      <point x="34" y="130" type="line"/>
      <point x="34" y="274" type="line" smooth="yes"/>
      <point x="34" y="302"/>
      <point x="42" y="328"/>
      <point x="57" y="347" type="curve"/>
      <point x="58" y="348" type="line"/>
      <point x="61" y="353"/>
      <point x="66" y="358"/>
      <point x="72" y="363" type="curve" smooth="yes"/>
      <point x="87" y="376"/>
      <point x="103" y="383"/>
      <point x="120" y="385" type="curve"/>
      <point x="121" y="385"/>
      <point x="123" y="385"/>
      <point x="124" y="386" type="curve"/>
      <point x="125" y="386"/>
      <point x="127" y="386"/>
      <point x="128" y="386" type="curve" smooth="yes"/>
      <point x="191" y="386" type="line"/>
      <point x="212" y="389"/>
      <point x="231" y="404"/>
      <point x="240" y="427" type="curve"/>
      <point x="240" y="611" type="line" smooth="yes"/>
      <point x="240" y="658"/>
      <point x="203" y="695"/>
      <point x="156" y="695" type="curve" smooth="yes"/>
      <point x="109" y="695"/>
      <point x="72" y="658"/>
      <point x="72" y="611" type="curve" smooth="yes"/>
      <point x="72" y="553" type="line"/>
      <point x="34" y="553" type="line"/>
      <point x="34" y="611" type="line" smooth="yes"/>
      <point x="34" y="644"/>
      <point x="48" y="676"/>
      <point x="70" y="698" type="curve" smooth="yes"/>
      <point x="92" y="720"/>
      <point x="123" y="733"/>
      <point x="156" y="733" type="curve" smooth="yes"/>
      <point x="189" y="733"/>
      <point x="221" y="720"/>
      <point x="243" y="698" type="curve" smooth="yes"/>
      <point x="265" y="676"/>
      <point x="278" y="644"/>
      <point x="278" y="611" type="curve" smooth="yes"/>
      <point x="278" y="462" type="line"/>
    </contour>
    <contour>
      <point x="90" y="23" type="line" smooth="yes"/>
      <point x="90" y="4"/>
      <point x="76" y="-10"/>
      <point x="57" y="-10" type="curve" smooth="yes"/>
      <point x="38" y="-10"/>
      <point x="24" y="4"/>
      <point x="24" y="23" type="curve" smooth="yes"/>
      <point x="24" y="46" type="line" smooth="yes"/>
      <point x="24" y="66"/>
      <point x="38" y="80"/>
      <point x="57" y="80" type="curve" smooth="yes"/>
      <point x="76" y="80"/>
      <point x="90" y="66"/>
      <point x="90" y="46" type="curve" smooth="yes"/>
    </contour>
  </outline>
</glyph>
<glyph name="at" format="1">
  <advance width="367"/>
  <unicode hex="0040"/>
  <outline>
    <contour>
      <point x="181" y="735" type="qcurve" smooth="yes"/>
      <point x="206" y="735"/>
      <point x="251" y="716"/>
      <point x="285" y="682"/>
      <point x="304" y="637"/>
      <point x="304" y="612" type="qcurve" smooth="yes"/>
      <point x="304" y="120" type="line" smooth="yes"/>
      <point x="304" y="94"/>
      <point x="285" y="50"/>
      <point x="251" y="16"/>
      <point x="206" y="-3"/>
      <point x="181" y="-3" type="qcurve" smooth="yes"/>
      <point x="155" y="-3"/>
      <point x="111" y="16"/>
      <point x="77" y="50"/>
      <point x="58" y="94"/>
      <point x="58" y="120" type="qcurve" smooth="yes"/>
      <point x="58" y="367" type="line"/>
      <point x="58" y="368" type="line" smooth="yes"/>
      <point x="58" y="376"/>
      <point x="69" y="387"/>
      <point x="77" y="387" type="qcurve" smooth="yes"/>
      <point x="162" y="387" type="line" smooth="yes"/>
      <point x="194" y="387"/>
      <point x="229" y="350"/>
      <point x="236" y="318" type="qcurve" smooth="yes"/>
      <point x="238" y="313"/>
      <point x="240" y="304"/>
      <point x="241" y="299" type="qcurve" smooth="yes"/>
      <point x="241" y="214" type="line" smooth="yes"/>
      <point x="241" y="186"/>
      <point x="202" y="147"/>
      <point x="174" y="147" type="qcurve" smooth="yes"/>
      <point x="147" y="147"/>
      <point x="108" y="186"/>
      <point x="108" y="214" type="qcurve" smooth="yes"/>
      <point x="108" y="299" type="line" smooth="yes"/>
      <point x="108" y="314"/>
      <point x="120" y="340"/>
      <point x="131" y="349" type="qcurve"/>
      <point x="96" y="349" type="line"/>
      <point x="96" y="120" type="line" smooth="yes"/>
      <point x="96" y="85"/>
      <point x="146" y="35"/>
      <point x="181" y="35" type="qcurve" smooth="yes"/>
      <point x="216" y="35"/>
      <point x="266" y="85"/>
      <point x="266" y="120" type="qcurve" smooth="yes"/>
      <point x="266" y="612" type="line" smooth="yes"/>
      <point x="266" y="647"/>
      <point x="216" y="697"/>
      <point x="181" y="697" type="qcurve" smooth="yes"/>
      <point x="146" y="697"/>
      <point x="96" y="647"/>
      <point x="96" y="612" type="qcurve" smooth="yes"/>
      <point x="96" y="464" type="line"/>
      <point x="96" y="437" type="line" smooth="yes"/>
      <point x="96" y="429"/>
      <point x="85" y="418"/>
      <point x="77" y="418" type="qcurve" smooth="yes"/>
      <point x="69" y="418"/>
      <point x="58" y="429"/>
      <point x="58" y="437" type="qcurve" smooth="yes"/>
      <point x="58" y="522" type="line"/>
      <point x="58" y="612" type="line" smooth="yes"/>
      <point x="58" y="637"/>
      <point x="77" y="682"/>
      <point x="111" y="716"/>
      <point x="155" y="735"/>
    </contour>
    <contour>
      <point x="174" y="175" type="qcurve" smooth="yes"/>
      <point x="191" y="175"/>
      <point x="213" y="197"/>
      <point x="213" y="214" type="qcurve" smooth="yes"/>
      <point x="213" y="299" type="line" smooth="yes"/>
      <point x="213" y="316"/>
      <point x="191" y="338"/>
      <point x="174" y="338" type="qcurve" smooth="yes"/>
      <point x="158" y="338"/>
      <point x="135" y="316"/>
      <point x="135" y="299" type="qcurve" smooth="yes"/>
      <point x="135" y="214" type="line" smooth="yes"/>
      <point x="135" y="197"/>
      <point x="158" y="175"/>
    </contour>
  </outline>
</glyph>
<glyph name="A" format="1">
  <advance width="365"/>
  <unicode hex="0041"/>
  <outline>
    <contour>
      <point x="181" y="733" type="qcurve" smooth="yes"/>
      <point x="206" y="733"/>
      <point x="250" y="714"/>
      <point x="283" y="681"/>
      <point x="302" y="636"/>
      <point x="302" y="611" type="qcurve" smooth="yes"/>
      <point x="302" y="20" type="line" smooth="yes"/>
      <point x="302" y="1"/>
      <point x="283" y="1" type="qcurve" smooth="yes"/>
      <point x="275" y="1"/>
      <point x="265" y="12"/>
      <point x="265" y="20" type="qcurve" smooth="yes"/>
      <point x="265" y="376" type="line"/>
      <point x="233" y="349"/>
      <point x="191" y="349" type="qcurve" smooth="yes"/>
      <point x="97" y="349" type="line"/>
      <point x="97" y="20" type="line" smooth="yes"/>
      <point x="97" y="12"/>
      <point x="87" y="1"/>
      <point x="79" y="1" type="qcurve" smooth="yes"/>
      <point x="60" y="1"/>
      <point x="60" y="20" type="qcurve" smooth="yes"/>
      <point x="60" y="611" type="line" smooth="yes"/>
      <point x="60" y="636"/>
      <point x="79" y="681"/>
      <point x="112" y="714"/>
      <point x="156" y="733"/>
    </contour>
    <contour>
      <point x="265" y="611" type="line" smooth="yes"/>
      <point x="265" y="646"/>
      <point x="216" y="695"/>
      <point x="181" y="695" type="qcurve" smooth="yes"/>
      <point x="146" y="695"/>
      <point x="97" y="646"/>
      <point x="97" y="611" type="qcurve" smooth="yes"/>
      <point x="97" y="386" type="line"/>
      <point x="191" y="386" type="line" smooth="yes"/>
      <point x="222" y="386"/>
      <point x="265" y="429"/>
      <point x="265" y="460" type="qcurve" smooth="yes"/>
    </contour>
  </outline>
</glyph>
<glyph name="B" format="1">
  <advance width="355"/>
  <unicode hex="0042"/>
  <outline>
    <contour>
      <point x="265" y="359" type="line"/>
      <point x="288" y="338"/>
      <point x="302" y="310"/>
      <point x="302" y="275" type="curve" smooth="yes"/>
      <point x="302" y="112" type="line" smooth="yes"/>
      <point x="302" y="79"/>
      <point x="289" y="48"/>
      <point x="267" y="26" type="curve" smooth="yes"/>
      <point x="245" y="4"/>
      <point x="214" y="-10"/>
      <point x="181" y="-10" type="curve" smooth="yes"/>
      <point x="149" y="-10"/>
      <point x="120" y="3"/>
      <point x="97" y="24" type="curve"/>
      <point x="97" y="19" type="line" smooth="yes"/>
      <point x="97" y="8"/>
      <point x="89" y="0"/>
      <point x="78" y="0" type="curve" smooth="yes"/>
      <point x="67" y="0"/>
      <point x="60" y="8"/>
      <point x="60" y="19" type="curve" smooth="yes"/>
      <point x="60" y="112" type="line"/>
      <point x="60" y="113" type="line"/>
      <point x="60" y="427" type="line"/>
      <point x="60" y="611" type="line"/>
      <point x="60" y="612" type="line" smooth="yes"/>
      <point x="60" y="645"/>
      <point x="74" y="675"/>
      <point x="96" y="697" type="curve" smooth="yes"/>
      <point x="118" y="719"/>
      <point x="148" y="732"/>
      <point x="181" y="732" type="curve" smooth="yes"/>
      <point x="214" y="732"/>
      <point x="245" y="719"/>
      <point x="267" y="697" type="curve" smooth="yes"/>
      <point x="289" y="675"/>
      <point x="302" y="644"/>
      <point x="302" y="611" type="curve" smooth="yes"/>
      <point x="302" y="455" type="line" smooth="yes"/>
      <point x="302" y="446"/>
      <point x="300" y="437"/>
      <point x="297" y="427" type="curve" smooth="yes"/>
      <point x="290" y="406"/>
      <point x="280" y="390"/>
      <point x="265" y="377" type="curve"/>
      <point x="253" y="368" type="line"/>
    </contour>
    <contour>
      <point x="134" y="694"/>
      <point x="97" y="658"/>
      <point x="97" y="611" type="curve" smooth="yes"/>
      <point x="97" y="387" type="line"/>
      <point x="191" y="387" type="line"/>
      <point x="196" y="387" type="line"/>
      <point x="235" y="390"/>
      <point x="265" y="421"/>
      <point x="265" y="460" type="curve" smooth="yes"/>
      <point x="265" y="461" type="line"/>
      <point x="265" y="611" type="line" smooth="yes"/>
      <point x="265" y="658"/>
      <point x="228" y="694"/>
      <point x="181" y="694" type="curve" smooth="yes"/>
    </contour>
    <contour>
      <point x="265" y="168" type="line"/>
      <point x="265" y="179" type="line"/>
      <point x="265" y="274" type="line"/>
      <point x="265" y="275" type="line" smooth="yes"/>
      <point x="265" y="314"/>
      <point x="235" y="346"/>
      <point x="196" y="349" type="curve"/>
      <point x="191" y="349" type="line"/>
      <point x="97" y="349" type="line"/>
      <point x="97" y="112" type="line" smooth="yes"/>
      <point x="97" y="65"/>
      <point x="134" y="28"/>
      <point x="181" y="28" type="curve" smooth="yes"/>
      <point x="228" y="28"/>
      <point x="265" y="65"/>
      <point x="265" y="112" type="curve" smooth="yes"/>
    </contour>
  </outline>
</glyph>
<glyph name="C" format="1">
  <advance width="350"/>
  <unicode hex="0043"/>
  <outline>
    <contour>
      <point x="262" y="552" type="line"/>
      <point x="262" y="611" type="line" smooth="yes"/>
      <point x="262" y="646"/>
      <point x="213" y="695"/>
      <point x="178" y="695" type="qcurve" smooth="yes"/>
      <point x="143" y="695"/>
      <point x="94" y="646"/>
      <point x="94" y="611" type="qcurve" smooth="yes"/>
      <point x="94" y="112" type="line" smooth="yes"/>
      <point x="94" y="94"/>
      <point x="107" y="64"/>
      <point x="130" y="41"/>
      <point x="161" y="28"/>
      <point x="178" y="28" type="qcurve" smooth="yes"/>
      <point x="195" y="28"/>
      <point x="226" y="41"/>
      <point x="249" y="64"/>
      <point x="262" y="94"/>
      <point x="262" y="112" type="qcurve" smooth="yes"/>
      <point x="262" y="147" type="line"/>
      <point x="300" y="147" type="line"/>
      <point x="300" y="112" type="line" smooth="yes"/>
      <point x="300" y="87"/>
      <point x="281" y="42"/>
      <point x="248" y="9"/>
      <point x="203" y="-10"/>
      <point x="178" y="-10" type="qcurve" smooth="yes"/>
      <point x="153" y="-10"/>
      <point x="108" y="9"/>
      <point x="75" y="42"/>
      <point x="56" y="87"/>
      <point x="56" y="112" type="qcurve" smooth="yes"/>
      <point x="56" y="611" type="line" smooth="yes"/>
      <point x="56" y="636"/>
      <point x="75" y="681"/>
      <point x="108" y="714"/>
      <point x="153" y="733"/>
      <point x="178" y="733" type="qcurve" smooth="yes"/>
      <point x="203" y="733"/>
      <point x="248" y="714"/>
      <point x="281" y="681"/>
      <point x="300" y="636"/>
      <point x="300" y="611" type="qcurve" smooth="yes"/>
      <point x="300" y="552" type="line"/>
    </contour>
  </outline>
</glyph>
<glyph name="D" format="2">
  <advance width="370"/>
  <unicode hex="0044"/>
  <outline>
    <contour>
      <point x="101" y="33" type="line"/>
      <point x="187" y="33" type="line" smooth="yes"/>
      <point x="223" y="33"/>
      <point x="271" y="79"/>
      <point x="271" y="112" type="qcurve" smooth="yes"/>
      <point x="271" y="450" type="line"/>
      <point x="271" y="451" type="line"/>
      <point x="271" y="611" type="line" smooth="yes"/>
      <point x="271" y="647"/>
      <point x="225" y="695"/>
      <point x="187" y="695" type="qcurve" smooth="yes"/>
      <point x="173" y="695"/>
      <point x="119" y="696"/>
      <point x="101" y="696" type="qcurve"/>
    </contour>
    <contour>
      <point x="84" y="1" type="qcurve" smooth="yes"/>
      <point x="76" y="1"/>
      <point x="65" y="12"/>
      <point x="65" y="20" type="qcurve" smooth="yes"/>
      <point x="65" y="119" type="line"/>
      <point x="65" y="122" type="line"/>
      <point x="65" y="611" type="line"/>
      <point x="65" y="614" type="line"/>
      <point x="65" y="713" type="line" smooth="yes"/>
      <point x="64.9865" y="731.302"/>
      <point x="84" y="732" type="qcurve" smooth="yes"/>
      <point x="173.989" y="735.302"/>
      <point x="250" y="722"/>
      <point x="274" y="698" type="qcurve" smooth="yes"/>
      <point x="309" y="663"/>
      <point x="309" y="611" type="qcurve" smooth="yes"/>
      <point x="309" y="112" type="line" smooth="yes"/>
      <point x="309" y="40"/>
      <point x="260" y="15" type="qcurve" smooth="yes"/>
      <point x="244" y="7"/>
      <point x="199" y="0"/>
      <point x="166" y="-1"/>
      <point x="99" y="1"/>
    </contour>
  </outline>
</glyph>
<glyph name="E" format="1">
  <advance width="341"/>
  <unicode hex="0045"/>
  <outline>
    <contour>
      <point x="263" y="552" type="line"/>
      <point x="263" y="611" type="line" smooth="yes"/>
      <point x="263" y="646"/>
      <point x="214" y="695"/>
      <point x="179" y="695" type="qcurve" smooth="yes"/>
      <point x="144" y="695"/>
      <point x="95" y="646"/>
      <point x="95" y="611" type="qcurve" smooth="yes"/>
      <point x="95" y="386" type="line"/>
      <point x="189" y="386" type="line" smooth="yes"/>
      <point x="220" y="386"/>
      <point x="263" y="429"/>
      <point x="263" y="460" type="qcurve" smooth="yes"/>
      <point x="263" y="479"/>
      <point x="282" y="479" type="qcurve" smooth="yes"/>
      <point x="290" y="479"/>
      <point x="301" y="468"/>
      <point x="301" y="460" type="qcurve" smooth="yes"/>
      <point x="301" y="437"/>
      <point x="283" y="396"/>
      <point x="253" y="366"/>
      <point x="212" y="348"/>
      <point x="189" y="348" type="qcurve" smooth="yes"/>
      <point x="95" y="348" type="line"/>
      <point x="95" y="112" type="line" smooth="yes"/>
      <point x="95" y="77"/>
      <point x="144" y="28"/>
      <point x="179" y="28" type="qcurve" smooth="yes"/>
      <point x="214" y="28"/>
      <point x="263" y="77"/>
      <point x="263" y="112" type="qcurve" smooth="yes"/>
      <point x="263" y="147" type="line"/>
      <point x="301" y="147" type="line"/>
      <point x="301" y="112" type="line" smooth="yes"/>
      <point x="301" y="87"/>
      <point x="282" y="42"/>
      <point x="249" y="9"/>
      <point x="204" y="-10"/>
      <point x="179" y="-10" type="qcurve" smooth="yes"/>
      <point x="154" y="-10"/>
      <point x="109" y="9"/>
      <point x="76" y="42"/>
      <point x="57" y="87"/>
      <point x="57" y="112" type="qcurve" smooth="yes"/>
      <point x="57" y="611" type="line" smooth="yes"/>
      <point x="57" y="636"/>
      <point x="76" y="681"/>
      <point x="109" y="714"/>
      <point x="154" y="733"/>
      <point x="179" y="733" type="qcurve" smooth="yes"/>
      <point x="204" y="733"/>
      <point x="249" y="714"/>
      <point x="282" y="681"/>
      <point x="301" y="636"/>
      <point x="301" y="611" type="qcurve" smooth="yes"/>
      <point x="301" y="552" type="line"/>
    </contour>
  </outline>
</glyph>
<glyph name="F" format="1">
  <advance width="368"/>
  <unicode hex="0046"/>
  <outline>
    <contour>
      <point x="267" y="551" type="line"/>
      <point x="267" y="610" type="line" smooth="yes"/>
      <point x="267" y="645"/>
      <point x="218" y="694"/>
      <point x="183" y="694" type="qcurve" smooth="yes"/>
      <point x="148" y="694"/>
      <point x="99" y="645"/>
      <point x="99" y="610" type="qcurve" smooth="yes"/>
      <point x="99" y="386" type="line"/>
      <point x="243" y="386" type="line" smooth="yes"/>
      <point x="250" y="386"/>
      <point x="250" y="384"/>
      <point x="250" y="350"/>
      <point x="250" y="350" type="qcurve"/>
      <point x="250" y="350"/>
      <point x="243" y="348" type="qcurve" smooth="yes"/>
      <point x="99" y="348" type="line"/>
      <point x="99" y="34" type="line"/>
      <point x="99" y="17" type="line" smooth="yes"/>
      <point x="99" y="9"/>
      <point x="88" y="-2"/>
      <point x="80" y="-2" type="qcurve" smooth="yes"/>
      <point x="72" y="-2"/>
      <point x="61" y="9"/>
      <point x="61" y="17" type="qcurve" smooth="yes"/>
      <point x="61" y="122" type="line"/>
      <point x="61" y="610" type="line"/>
      <point x="61" y="611" type="line" smooth="yes"/>
      <point x="61" y="636"/>
      <point x="81" y="680"/>
      <point x="114" y="713"/>
      <point x="158" y="732"/>
      <point x="183" y="732" type="qcurve" smooth="yes"/>
      <point x="208" y="732"/>
      <point x="253" y="713"/>
      <point x="286" y="680"/>
      <point x="305" y="635"/>
      <point x="305" y="610" type="qcurve" smooth="yes"/>
      <point x="305" y="551" type="line"/>
    </contour>
  </outline>
</glyph>
<glyph name="G" format="1">
  <advance width="359"/>
  <unicode hex="0047"/>
  <outline>
    <contour>
      <point x="272" y="554" type="line"/>
      <point x="272" y="612" type="line" smooth="yes"/>
      <point x="272" y="647"/>
      <point x="223" y="706"/>
      <point x="188" y="706" type="qcurve" smooth="yes"/>
      <point x="153" y="706"/>
      <point x="104" y="647"/>
      <point x="104" y="612" type="qcurve" smooth="yes"/>
      <point x="104" y="113" type="line" smooth="yes"/>
      <point x="104" y="78"/>
      <point x="153" y="29"/>
      <point x="188" y="29" type="qcurve" smooth="yes"/>
      <point x="223" y="29"/>
      <point x="272" y="78"/>
      <point x="272" y="113" type="qcurve" smooth="yes"/>
      <point x="272" y="350" type="line"/>
      <point x="204" y="350" type="line" smooth="yes"/>
      <point x="180" y="350"/>
      <point x="181" y="388"/>
      <point x="204" y="388" type="qcurve" smooth="yes"/>
      <point x="272" y="388" type="line"/>
      <point x="291" y="388" type="line" smooth="yes"/>
      <point x="299" y="388"/>
      <point x="310" y="377"/>
      <point x="310" y="369" type="qcurve" smooth="yes"/>
      <point x="310" y="113" type="line" smooth="yes"/>
      <point x="310" y="88"/>
      <point x="291" y="43"/>
      <point x="258" y="10"/>
      <point x="213" y="-9"/>
      <point x="188" y="-9" type="qcurve" smooth="yes"/>
      <point x="163" y="-9"/>
      <point x="118" y="10"/>
      <point x="85" y="43"/>
      <point x="66" y="88"/>
      <point x="66" y="113" type="qcurve" smooth="yes"/>
      <point x="66" y="612" type="line" smooth="yes"/>
      <point x="66" y="637"/>
      <point x="85" y="692"/>
      <point x="118" y="725"/>
      <point x="163" y="744"/>
      <point x="188" y="744" type="qcurve" smooth="yes"/>
      <point x="213" y="744"/>
      <point x="258" y="725"/>
      <point x="291" y="692"/>
      <point x="310" y="637"/>
      <point x="310" y="612" type="qcurve" smooth="yes"/>
      <point x="310" y="554" type="line"/>
    </contour>
  </outline>
</glyph>
<glyph name="H" format="1">
  <advance width="380"/>
  <unicode hex="0048"/>
  <outline>
    <contour>
      <point x="302" y="733"/>
      <point x="310" y="725"/>
      <point x="310" y="714" type="curve" smooth="yes"/>
      <point x="310" y="615" type="line"/>
      <point x="310" y="119" type="line"/>
      <point x="310" y="20" type="line" smooth="yes"/>
      <point x="310" y="9"/>
      <point x="302" y="1"/>
      <point x="291" y="1" type="curve" smooth="yes"/>
      <point x="280" y="1"/>
      <point x="272" y="9"/>
      <point x="272" y="20" type="curve" smooth="yes"/>
      <point x="272" y="119" type="line"/>
      <point x="272" y="376" type="line"/>
      <point x="252" y="359"/>
      <point x="226" y="348"/>
      <point x="198" y="348" type="curve" smooth="yes"/>
      <point x="104" y="348" type="line"/>
      <point x="104" y="118" type="line"/>
      <point x="104" y="19" type="line" smooth="yes"/>
      <point x="104" y="8"/>
      <point x="96" y="0"/>
      <point x="85" y="0" type="curve" smooth="yes"/>
      <point x="74" y="0"/>
      <point x="66" y="8"/>
      <point x="66" y="19" type="curve" smooth="yes"/>
      <point x="66" y="118" type="line"/>
      <point x="66" y="614" type="line"/>
      <point x="66" y="713" type="line" smooth="yes"/>
      <point x="66" y="724"/>
      <point x="74" y="732"/>
      <point x="85" y="732" type="curve" smooth="yes"/>
      <point x="96" y="732"/>
      <point x="104" y="724"/>
      <point x="104" y="713" type="curve" smooth="yes"/>
      <point x="104" y="614" type="line"/>
      <point x="104" y="386" type="line"/>
      <point x="198" y="386" type="line" smooth="yes"/>
      <point x="239" y="386"/>
      <point x="272" y="419"/>
      <point x="272" y="460" type="curve" smooth="yes"/>
      <point x="272" y="615" type="line"/>
      <point x="272" y="714" type="line" smooth="yes"/>
      <point x="272" y="725"/>
      <point x="280" y="733"/>
      <point x="291" y="733" type="curve" smooth="yes"/>
    </contour>
  </outline>
</glyph>
<glyph name="I" format="1">
  <advance width="238"/>
  <unicode hex="0049"/>
  <outline>
    <contour>
      <point x="171" y="18" type="qcurve" smooth="yes"/>
      <point x="171" y="36"/>
      <point x="153" y="36" type="qcurve" smooth="yes"/>
      <point x="111" y="36" type="line"/>
      <point x="126" y="36" type="line"/>
      <point x="84" y="36" type="line" smooth="yes"/>
      <point x="66" y="36"/>
      <point x="66" y="0"/>
      <point x="84" y="0" type="qcurve" smooth="yes"/>
      <point x="126" y="0" type="line"/>
      <point x="111" y="0" type="line"/>
      <point x="153" y="0" type="line" smooth="yes"/>
      <point x="171" y="0"/>
    </contour>
    <contour>
      <point x="173" y="702" type="qcurve" smooth="yes"/>
      <point x="173" y="720"/>
      <point x="155" y="720" type="qcurve" smooth="yes"/>
      <point x="113" y="720" type="line"/>
      <point x="128" y="720" type="line"/>
      <point x="86" y="720" type="line" smooth="yes"/>
      <point x="68" y="720"/>
      <point x="68" y="684"/>
      <point x="86" y="684" type="qcurve" smooth="yes"/>
      <point x="128" y="684" type="line"/>
      <point x="113" y="684" type="line"/>
      <point x="155" y="684" type="line" smooth="yes"/>
      <point x="173" y="684"/>
    </contour>
    <contour>
      <point x="138" y="32" type="qcurve" smooth="yes"/>
      <point x="138" y="117" type="line"/>
      <point x="138" y="602" type="line"/>
      <point x="138" y="685" type="line"/>
      <point x="101" y="686" type="line"/>
      <point x="101" y="686" type="line"/>
      <point x="101" y="602" type="line"/>
      <point x="101" y="117" type="line"/>
      <point x="101" y="32" type="line"/>
      <point x="133" y="32" type="line" smooth="yes"/>
      <point x="137" y="32"/>
    </contour>
  </outline>
</glyph>
<glyph name="J" format="1">
  <advance width="260"/>
  <unicode hex="004A"/>
  <outline>
    <contour>
      <point x="202" y="724" type="line"/>
      <point x="210" y="724"/>
      <point x="221" y="713"/>
      <point x="221" y="705" type="qcurve" smooth="yes"/>
      <point x="221" y="697"/>
      <point x="210" y="686"/>
      <point x="202" y="686" type="qcurve" smooth="yes"/>
      <point x="195" y="686" type="line" smooth="yes"/>
      <point x="190" y="686"/>
      <point x="179" y="686"/>
      <point x="174" y="687" type="qcurve"/>
      <point x="174" y="123" type="line" smooth="yes"/>
      <point x="174" y="98"/>
      <point x="155" y="53"/>
      <point x="122" y="20"/>
      <point x="77" y="1"/>
      <point x="52" y="1" type="qcurve" smooth="yes"/>
      <point x="44" y="1"/>
      <point x="33" y="12"/>
      <point x="33" y="20" type="qcurve" smooth="yes"/>
      <point x="33" y="28"/>
      <point x="44" y="39"/>
      <point x="52" y="39" type="qcurve" smooth="yes"/>
      <point x="87" y="39"/>
      <point x="136" y="88"/>
      <point x="136" y="123" type="qcurve" smooth="yes"/>
      <point x="136" y="686" type="line"/>
      <point x="129" y="679"/>
      <point x="129" y="662" type="qcurve" smooth="yes"/>
      <point x="129" y="654"/>
      <point x="118" y="644"/>
      <point x="110" y="644" type="qcurve" smooth="yes"/>
      <point x="102" y="644"/>
      <point x="91" y="654"/>
      <point x="91" y="662" type="qcurve" smooth="yes"/>
      <point x="91" y="685"/>
      <point x="106" y="710"/>
      <point x="134" y="722"/>
      <point x="172" y="724"/>
      <point x="195" y="724" type="qcurve" smooth="yes"/>
      <point x="202" y="724" type="line"/>
    </contour>
  </outline>
</glyph>
<glyph name="K" format="1">
  <advance width="395"/>
  <unicode hex="004B"/>
  <outline>
    <contour>
      <point x="358" y="719"/>
      <point x="362" y="708"/>
      <point x="358" y="699" type="curve"/>
      <point x="354" y="688"/>
      <point x="343" y="684"/>
      <point x="334" y="688" type="curve"/>
      <point x="290" y="704"/>
      <point x="242" y="682"/>
      <point x="226" y="639" type="curve"/>
      <point x="113" y="401" type="line"/>
      <point x="112" y="398"/>
      <point x="110" y="395"/>
      <point x="107" y="393" type="curve"/>
      <point x="110" y="391"/>
      <point x="112" y="388"/>
      <point x="113" y="385" type="curve"/>
      <point x="237" y="91" type="line" smooth="yes"/>
      <point x="256" y="48"/>
      <point x="280" y="27"/>
      <point x="323" y="44" type="curve" smooth="yes"/>
      <point x="334" y="48"/>
      <point x="344" y="45"/>
      <point x="348" y="34" type="curve" smooth="yes"/>
      <point x="352" y="23"/>
      <point x="348" y="13"/>
      <point x="337" y="9" type="curve" smooth="yes"/>
      <point x="274" y="-16"/>
      <point x="227" y="14"/>
      <point x="202" y="77" type="curve" smooth="yes"/>
      <point x="98" y="323" type="line"/>
      <point x="98" y="19" type="line" smooth="yes"/>
      <point x="98" y="8"/>
      <point x="91" y="0"/>
      <point x="80" y="0" type="curve" smooth="yes"/>
      <point x="67" y="0"/>
      <point x="61" y="6"/>
      <point x="61" y="19" type="curve" smooth="yes"/>
      <point x="61" y="709" type="line" smooth="yes"/>
      <point x="61" y="742"/>
      <point x="98" y="744"/>
      <point x="98" y="709" type="curve" smooth="yes"/>
      <point x="98" y="458" type="line"/>
      <point x="190" y="653" type="line"/>
      <point x="202" y="684"/>
      <point x="226" y="708"/>
      <point x="254" y="721" type="curve" smooth="yes"/>
      <point x="282" y="733"/>
      <point x="315" y="735"/>
      <point x="347" y="723" type="curve" smooth="yes"/>
    </contour>
  </outline>
</glyph>
<glyph name="L" format="1">
  <advance width="368"/>
  <unicode hex="004C"/>
  <outline>
    <contour>
      <point x="326" y="18" type="curve" smooth="yes"/>
      <point x="326" y="7"/>
      <point x="319" y="0"/>
      <point x="308" y="0" type="curve" smooth="yes"/>
      <point x="116" y="0" type="line"/>
      <point x="281" y="0" type="line"/>
      <point x="89" y="0" type="line" smooth="yes"/>
      <point x="78" y="0"/>
      <point x="71" y="7"/>
      <point x="71" y="18" type="curve" smooth="yes"/>
      <point x="71" y="29"/>
      <point x="78" y="36"/>
      <point x="89" y="36" type="curve" smooth="yes"/>
      <point x="281" y="36" type="line"/>
      <point x="116" y="36" type="line"/>
      <point x="308" y="36" type="line" smooth="yes"/>
      <point x="319" y="36"/>
      <point x="326" y="29"/>
    </contour>
    <contour>
      <point x="99" y="0" type="line"/>
      <point x="64" y="0" type="line"/>
      <point x="64" y="668" type="line"/>
      <point x="64" y="714" type="line" smooth="yes"/>
      <point x="64" y="725"/>
      <point x="69" y="733"/>
      <point x="80" y="733" type="curve" smooth="yes"/>
      <point x="91" y="733"/>
      <point x="99" y="725"/>
      <point x="99" y="714" type="curve" smooth="yes"/>
      <point x="99" y="645" type="line"/>
    </contour>
  </outline>
</glyph>
<glyph name="M" format="2">
  <advance width="579"/>
  <unicode hex="004D"/>
  <outline>
    <contour>
      <point x="478" y="699" type="qcurve" smooth="yes"/>
      <point x="513" y="664"/>
      <point x="513" y="612" type="qcurve" smooth="yes"/>
      <point x="513" y="20" type="line" smooth="yes"/>
      <point x="513" y="1"/>
      <point x="475" y="1"/>
      <point x="475" y="20" type="qcurve" smooth="yes"/>
      <point x="475" y="612" type="line" smooth="yes"/>
      <point x="475" y="646"/>
      <point x="451" y="672" type="qcurve"/>
      <point x="425" y="696"/>
      <point x="391" y="696" type="qcurve" smooth="yes"/>
      <point x="358" y="696"/>
      <point x="310" y="650"/>
      <point x="308" y="617" type="qcurve"/>
      <point x="308" y="612" type="line"/>
      <point x="308" y="207" type="line" smooth="yes"/>
      <point x="308" y="189"/>
      <point x="289" y="189" type="qcurve" smooth="yes"/>
      <point x="283" y="189"/>
      <point x="282" y="190" type="qcurve"/>
      <point x="270" y="194"/>
      <point x="270" y="208" type="qcurve" smooth="yes"/>
      <point x="270" y="612" type="line"/>
      <point x="270" y="617" type="line"/>
      <point x="268" y="650"/>
      <point x="220" y="696"/>
      <point x="187" y="696" type="qcurve" smooth="yes"/>
      <point x="152" y="696"/>
      <point x="128" y="672" type="qcurve" smooth="yes"/>
      <point x="103" y="647"/>
      <point x="103" y="612" type="qcurve" smooth="yes"/>
      <point x="103" y="20" type="line" smooth="yes"/>
      <point x="103" y="1"/>
      <point x="65" y="1"/>
      <point x="65" y="20" type="qcurve" smooth="yes"/>
      <point x="65" y="612" type="line" smooth="yes"/>
      <point x="65" y="663"/>
      <point x="101" y="699" type="qcurve" smooth="yes"/>
      <point x="136" y="734"/>
      <point x="187" y="734" type="qcurve" smooth="yes"/>
      <point x="252" y="734"/>
      <point x="289" y="677" type="qcurve"/>
      <point x="326" y="734"/>
      <point x="391" y="734" type="qcurve" smooth="yes"/>
      <point x="443" y="734"/>
    </contour>
  </outline>
</glyph>
<glyph name="N" format="2">
  <advance width="408"/>
  <unicode hex="004E"/>
  <outline>
    <contour>
      <point x="311" y="698" type="qcurve"/>
      <point x="346" y="663"/>
      <point x="346" y="611" type="qcurve" smooth="yes"/>
      <point x="346" y="19" type="line" smooth="yes"/>
      <point x="346" y="0"/>
      <point x="328" y="0" type="qcurve" smooth="yes"/>
      <point x="309" y="0"/>
      <point x="309" y="19" type="qcurve" smooth="yes"/>
      <point x="309" y="611" type="line" smooth="yes"/>
      <point x="309" y="645"/>
      <point x="285" y="671" type="qcurve"/>
      <point x="251" y="695"/>
      <point x="205" y="695" type="qcurve" smooth="yes"/>
      <point x="158" y="695"/>
      <point x="126" y="671" type="qcurve"/>
      <point x="101" y="646"/>
      <point x="101" y="611" type="qcurve" smooth="yes"/>
      <point x="101" y="19" type="line" smooth="yes"/>
      <point x="101" y="0"/>
      <point x="63" y="0"/>
      <point x="63" y="19" type="qcurve" smooth="yes"/>
      <point x="63" y="611" type="line" smooth="yes"/>
      <point x="63" y="662"/>
      <point x="99" y="698" type="qcurve"/>
      <point x="142" y="733"/>
      <point x="268" y="733"/>
    </contour>
  </outline>
</glyph>
<glyph name="O" format="1">
  <advance width="363"/>
  <unicode hex="004F"/>
  <outline>
    <contour>
      <point x="180" y="734" type="qcurve" smooth="yes"/>
      <point x="205" y="734"/>
      <point x="250" y="715"/>
      <point x="283" y="682"/>
      <point x="302" y="637"/>
      <point x="302" y="612" type="qcurve" smooth="yes"/>
      <point x="302" y="113" type="line" smooth="yes"/>
      <point x="302" y="88"/>
      <point x="283" y="43"/>
      <point x="250" y="10"/>
      <point x="205" y="-9"/>
      <point x="180" y="-9" type="qcurve" smooth="yes"/>
      <point x="155" y="-9"/>
      <point x="110" y="10"/>
      <point x="77" y="43"/>
      <point x="58" y="88"/>
      <point x="58" y="113" type="qcurve" smooth="yes"/>
      <point x="58" y="612" type="line" smooth="yes"/>
      <point x="58" y="637"/>
      <point x="77" y="682"/>
      <point x="110" y="715"/>
      <point x="155" y="734"/>
    </contour>
    <contour>
      <point x="264" y="451" type="line"/>
      <point x="264" y="452" type="line"/>
      <point x="264" y="612" type="line" smooth="yes"/>
      <point x="264" y="647"/>
      <point x="215" y="696"/>
      <point x="180" y="696" type="qcurve" smooth="yes"/>
      <point x="145" y="696"/>
      <point x="96" y="647"/>
      <point x="96" y="612" type="qcurve" smooth="yes"/>
      <point x="96" y="113" type="line" smooth="yes"/>
      <point x="96" y="95"/>
      <point x="109" y="65"/>
      <point x="132" y="42"/>
      <point x="163" y="29"/>
      <point x="180" y="29" type="qcurve" smooth="yes"/>
      <point x="197" y="29"/>
      <point x="228" y="42"/>
      <point x="251" y="65"/>
      <point x="264" y="95"/>
      <point x="264" y="113" type="qcurve" smooth="yes"/>
    </contour>
  </outline>
</glyph>
<glyph name="P" format="1">
  <advance width="364"/>
  <unicode hex="0050"/>
  <outline>
    <contour>
      <point x="308" y="455" type="line"/>
      <point x="307" y="455" type="line"/>
      <point x="306" y="426"/>
      <point x="293" y="399"/>
      <point x="273" y="380" type="curve" smooth="yes"/>
      <point x="253" y="361"/>
      <point x="225" y="349"/>
      <point x="196" y="349" type="curve" smooth="yes"/>
      <point x="102" y="349" type="line"/>
      <point x="102" y="35" type="line"/>
      <point x="102" y="19" type="line" smooth="yes"/>
      <point x="102" y="6"/>
      <point x="96" y="0"/>
      <point x="83" y="0" type="curve" smooth="yes"/>
      <point x="72" y="0"/>
      <point x="64" y="8"/>
      <point x="64" y="19" type="curve" smooth="yes"/>
      <point x="64" y="123" type="line"/>
      <point x="64" y="611" type="line"/>
      <point x="64" y="612" type="line" smooth="yes"/>
      <point x="64" y="645"/>
      <point x="79" y="676"/>
      <point x="101" y="697" type="curve" smooth="yes"/>
      <point x="123" y="718"/>
      <point x="153" y="732"/>
      <point x="186" y="732" type="curve" smooth="yes"/>
      <point x="219" y="732"/>
      <point x="251" y="719"/>
      <point x="273" y="697" type="curve" smooth="yes"/>
      <point x="295" y="675"/>
      <point x="308" y="644"/>
      <point x="308" y="611" type="curve" smooth="yes"/>
    </contour>
    <contour>
      <point x="196" y="387" type="line" smooth="yes"/>
      <point x="237" y="387"/>
      <point x="270" y="420"/>
      <point x="270" y="460" type="curve" smooth="yes"/>
      <point x="270" y="461" type="line"/>
      <point x="270" y="611" type="line" smooth="yes"/>
      <point x="270" y="658"/>
      <point x="233" y="695"/>
      <point x="186" y="695" type="curve" smooth="yes"/>
      <point x="139" y="695"/>
      <point x="102" y="658"/>
      <point x="102" y="611" type="curve" smooth="yes"/>
      <point x="102" y="387" type="line"/>
    </contour>
  </outline>
</glyph>
<glyph name="Q" format="1">
  <advance width="395"/>
  <unicode hex="0051"/>
  <outline>
    <contour>
      <point x="377" y="19" type="qcurve" smooth="yes"/>
      <point x="377" y="0"/>
      <point x="358" y="0" type="qcurve" smooth="yes"/>
      <point x="304" y="0"/>
      <point x="280" y="49" type="qcurve"/>
      <point x="236" y="-10"/>
      <point x="183" y="-10" type="qcurve" smooth="yes"/>
      <point x="133" y="-10"/>
      <point x="97" y="31" type="qcurve" smooth="yes"/>
      <point x="61" y="70"/>
      <point x="61" y="122" type="qcurve" smooth="yes"/>
      <point x="61" y="611" type="line" smooth="yes"/>
      <point x="61" y="662"/>
      <point x="97" y="698" type="qcurve" smooth="yes"/>
      <point x="132" y="733"/>
      <point x="183" y="733" type="qcurve" smooth="yes"/>
      <point x="235" y="733"/>
      <point x="305" y="663"/>
      <point x="305" y="611" type="qcurve" smooth="yes"/>
      <point x="305" y="250" type="line"/>
      <point x="305" y="122" type="line" smooth="yes"/>
      <point x="305" y="82"/>
      <point x="315" y="63" type="qcurve" smooth="yes"/>
      <point x="326" y="38"/>
      <point x="358" y="38" type="qcurve" smooth="yes"/>
      <point x="377" y="38"/>
    </contour>
    <contour>
      <point x="261" y="89" type="qcurve"/>
      <point x="250" y="120"/>
      <point x="214" y="120" type="qcurve" smooth="yes"/>
      <point x="195" y="120"/>
      <point x="195" y="158"/>
      <point x="214" y="158" type="qcurve" smooth="yes"/>
      <point x="247" y="158"/>
      <point x="267" y="142" type="qcurve"/>
      <point x="267" y="250" type="line"/>
      <point x="267" y="450" type="line"/>
      <point x="267" y="451" type="line"/>
      <point x="267" y="611" type="line" smooth="yes"/>
      <point x="267" y="646"/>
      <point x="218" y="695"/>
      <point x="148" y="695"/>
      <point x="99" y="646"/>
      <point x="99" y="611" type="qcurve" smooth="yes"/>
      <point x="99" y="122" type="line" smooth="yes"/>
      <point x="99" y="86"/>
      <point x="124" y="58" type="qcurve" smooth="yes"/>
      <point x="149" y="28"/>
      <point x="183" y="28" type="qcurve" smooth="yes"/>
      <point x="208" y="28"/>
      <point x="250" y="64"/>
    </contour>
  </outline>
</glyph>
<glyph name="R" format="1">
  <advance width="364"/>
  <unicode hex="0052"/>
  <outline>
    <contour>
      <point x="100" y="611" type="line"/>
      <point x="100" y="694" type="line"/>
      <point x="185" y="694" type="line" smooth="yes"/>
      <point x="214" y="694"/>
      <point x="228.167" y="686.833"/>
      <point x="244.5" y="670.5" type="curve" smooth="yes"/>
      <point x="260.833" y="654.167"/>
      <point x="269" y="634.333"/>
      <point x="269" y="611" type="curve" smooth="yes"/>
      <point x="269" y="461" type="line"/>
      <point x="269" y="460" type="line" smooth="yes"/>
      <point x="269" y="440"/>
      <point x="261.833" y="422.833"/>
      <point x="247.5" y="408.5" type="curve" smooth="yes"/>
      <point x="233.167" y="394.167"/>
      <point x="215.667" y="387"/>
      <point x="195" y="387" type="curve" smooth="yes"/>
      <point x="101" y="387" type="line"/>
    </contour>
    <contour>
      <point x="63" y="612" type="line"/>
      <point x="63" y="611" type="line"/>
      <point x="63" y="123" type="line"/>
      <point x="63" y="19" type="line" smooth="yes"/>
      <point x="63" y="6.33333"/>
      <point x="69.3333" y="0"/>
      <point x="82" y="0" type="curve" smooth="yes"/>
      <point x="94.6667" y="0"/>
      <point x="101" y="6.33333"/>
      <point x="101" y="19" type="curve" smooth="yes"/>
      <point x="101" y="35" type="line"/>
      <point x="101" y="349" type="line"/>
      <point x="178" y="349" type="line"/>
      <point x="263" y="9" type="line"/>
      <point x="281" y="-6.33333"/>
      <point x="293.333" y="-4.66667"/>
      <point x="300" y="14" type="curve"/>
      <point x="216" y="349" type="line"/>
      <point x="231.333" y="349"/>
      <point x="250" y="359.333"/>
      <point x="272" y="380" type="curve" smooth="yes"/>
      <point x="281.852" y="389.544"/>
      <point x="307" y="420"/>
      <point x="307" y="455" type="curve" smooth="yes"/>
      <point x="307" y="516"/>
      <point x="307" y="611"/>
      <point x="307" y="611" type="curve" smooth="yes"/>
      <point x="307" y="645"/>
      <point x="295.333" y="673.667"/>
      <point x="272" y="697" type="curve" smooth="yes"/>
      <point x="248.667" y="720.333"/>
      <point x="221" y="730"/>
      <point x="185" y="730" type="curve" smooth="yes"/>
      <point x="63" y="730" type="line"/>
    </contour>
  </outline>
</glyph>
<glyph name="S" format="1">
  <advance width="338"/>
  <unicode hex="0053"/>
  <outline>
    <contour>
      <point x="251" y="553" type="line"/>
      <point x="251" y="611" type="line" smooth="yes"/>
      <point x="251" y="646"/>
      <point x="202" y="695"/>
      <point x="132" y="695"/>
      <point x="83" y="646"/>
      <point x="83" y="611" type="qcurve" smooth="yes"/>
      <point x="83" y="427" type="line" smooth="yes"/>
      <point x="83" y="407"/>
      <point x="111" y="385"/>
      <point x="132" y="385" type="qcurve" smooth="yes"/>
      <point x="203" y="385" type="line" smooth="yes"/>
      <point x="253" y="385"/>
      <point x="273" y="354" type="qcurve" smooth="yes"/>
      <point x="289" y="327"/>
      <point x="289" y="274" type="qcurve" smooth="yes"/>
      <point x="289" y="112" type="line" smooth="yes"/>
      <point x="289" y="61"/>
      <point x="254" y="26" type="qcurve" smooth="yes"/>
      <point x="218" y="-10"/>
      <point x="167" y="-10" type="qcurve" smooth="yes"/>
      <point x="117" y="-10"/>
      <point x="45" y="62"/>
      <point x="45" y="112" type="qcurve" smooth="yes"/>
      <point x="45" y="148" type="line"/>
      <point x="83" y="148" type="line"/>
      <point x="83" y="112" type="line" smooth="yes"/>
      <point x="83" y="77"/>
      <point x="132" y="28"/>
      <point x="202" y="28"/>
      <point x="251" y="77"/>
      <point x="251" y="112" type="qcurve" smooth="yes"/>
      <point x="251" y="305" type="line" smooth="yes"/>
      <point x="251" y="347"/>
      <point x="202" y="347" type="qcurve" smooth="yes"/>
      <point x="139" y="347" type="line" smooth="yes"/>
      <point x="92" y="347"/>
      <point x="45" y="394"/>
      <point x="45" y="451" type="qcurve" smooth="yes"/>
      <point x="45" y="611" type="line" smooth="yes"/>
      <point x="45" y="662"/>
      <point x="81" y="698" type="qcurve" smooth="yes"/>
      <point x="116" y="733"/>
      <point x="167" y="733" type="qcurve" smooth="yes"/>
      <point x="219" y="733"/>
      <point x="289" y="663"/>
      <point x="289" y="611" type="qcurve" smooth="yes"/>
      <point x="289" y="553" type="line"/>
    </contour>
  </outline>
</glyph>
<glyph name="T" format="1">
  <advance width="406"/>
  <unicode hex="0054"/>
  <outline>
    <contour>
      <point x="336" y="722" type="line"/>
      <point x="344" y="722"/>
      <point x="355" y="712"/>
      <point x="355" y="704" type="qcurve" smooth="yes"/>
      <point x="355" y="696"/>
      <point x="344" y="685"/>
      <point x="336" y="685" type="qcurve" smooth="yes"/>
      <point x="229" y="685" type="line"/>
      <point x="229" y="20" type="line" smooth="yes"/>
      <point x="229" y="1"/>
      <point x="210" y="1" type="qcurve" smooth="yes"/>
      <point x="202" y="1"/>
      <point x="192" y="12"/>
      <point x="192" y="20" type="qcurve" smooth="yes"/>
      <point x="192" y="685" type="line"/>
      <point x="167" y="685" type="line" smooth="yes"/>
      <point x="136" y="685"/>
      <point x="93" y="642"/>
      <point x="93" y="611" type="qcurve" smooth="yes"/>
      <point x="93" y="603"/>
      <point x="82" y="592"/>
      <point x="74" y="592" type="qcurve" smooth="yes"/>
      <point x="66" y="592"/>
      <point x="55" y="603"/>
      <point x="55" y="611" type="qcurve" smooth="yes"/>
      <point x="55" y="634"/>
      <point x="73" y="675"/>
      <point x="103" y="705"/>
      <point x="144" y="722"/>
      <point x="167" y="722" type="qcurve" smooth="yes"/>
      <point x="336" y="722" type="line"/>
    </contour>
  </outline>
</glyph>
<glyph name="U" format="1">
  <advance width="367"/>
  <unicode hex="0055"/>
  <outline>
    <contour>
      <point x="287" y="722" type="qcurve" smooth="yes"/>
      <point x="306" y="722"/>
      <point x="306" y="703" type="qcurve" smooth="yes"/>
      <point x="306" y="112" type="line" smooth="yes"/>
      <point x="306" y="87"/>
      <point x="287" y="43"/>
      <point x="254" y="10"/>
      <point x="210" y="-9"/>
      <point x="185" y="-9" type="qcurve" smooth="yes"/>
      <point x="160" y="-9"/>
      <point x="116" y="10"/>
      <point x="83" y="43"/>
      <point x="64" y="87"/>
      <point x="64" y="112" type="qcurve" smooth="yes"/>
      <point x="64" y="703" type="line" smooth="yes"/>
      <point x="64" y="722"/>
      <point x="83" y="722" type="qcurve" smooth="yes"/>
      <point x="91" y="722"/>
      <point x="101" y="711"/>
      <point x="101" y="703" type="qcurve" smooth="yes"/>
      <point x="101" y="112" type="line" smooth="yes"/>
      <point x="101" y="77"/>
      <point x="150" y="29"/>
      <point x="185" y="29" type="qcurve" smooth="yes"/>
      <point x="220" y="29"/>
      <point x="269" y="77"/>
      <point x="269" y="112" type="qcurve" smooth="yes"/>
      <point x="269" y="703" type="line" smooth="yes"/>
      <point x="269" y="711"/>
      <point x="279" y="722"/>
    </contour>
  </outline>
</glyph>
<glyph name="V" format="1">
  <advance width="394"/>
  <unicode hex="0056"/>
  <outline>
    <contour>
      <point x="298" y="730" type="qcurve" smooth="yes"/>
      <point x="322" y="722"/>
      <point x="348" y="694"/>
      <point x="359" y="656"/>
      <point x="354" y="612"/>
      <point x="347" y="588" type="qcurve" smooth="yes"/>
      <point x="211" y="15" type="line" smooth="yes"/>
      <point x="208" y="4"/>
      <point x="197" y="2" type="qcurve" smooth="yes"/>
      <point x="196" y="2" type="line" smooth="yes"/>
      <point x="188" y="0"/>
      <point x="175" y="7"/>
      <point x="173" y="14" type="qcurve" smooth="yes"/>
      <point x="44" y="589" type="line" smooth="yes"/>
      <point x="37" y="613"/>
      <point x="33" y="658"/>
      <point x="44" y="695"/>
      <point x="72" y="723"/>
      <point x="96" y="730" type="qcurve" smooth="yes"/>
      <point x="104" y="732"/>
      <point x="117" y="725"/>
      <point x="119" y="718" type="qcurve" smooth="yes"/>
      <point x="121" y="710"/>
      <point x="114" y="696"/>
      <point x="106" y="694" type="qcurve" smooth="yes"/>
      <point x="74" y="685"/>
      <point x="70" y="633"/>
      <point x="80" y="600" type="qcurve" smooth="yes"/>
      <point x="193" y="90" type="line"/>
      <point x="312" y="599" type="line" smooth="yes"/>
      <point x="322" y="632"/>
      <point x="319" y="683"/>
      <point x="286" y="694" type="qcurve" smooth="yes"/>
      <point x="279" y="696"/>
      <point x="272" y="709"/>
      <point x="274" y="717" type="qcurve" smooth="yes"/>
      <point x="276" y="725"/>
      <point x="290" y="732"/>
    </contour>
  </outline>
</glyph>
<glyph name="W" format="1">
  <advance width="571"/>
  <unicode hex="0057"/>
  <outline>
    <contour>
      <point x="478" y="36" type="curve" smooth="yes"/>
      <point x="500" y="58"/>
      <point x="513" y="90"/>
      <point x="513" y="123" type="curve" smooth="yes"/>
      <point x="513" y="715" type="line" smooth="yes"/>
      <point x="513" y="726"/>
      <point x="505" y="734"/>
      <point x="494" y="734" type="curve" smooth="yes"/>
      <point x="483" y="734"/>
      <point x="475" y="726"/>
      <point x="475" y="715" type="curve" smooth="yes"/>
      <point x="475" y="123" type="line" smooth="yes"/>
      <point x="475" y="100"/>
      <point x="466" y="79"/>
      <point x="451" y="63" type="curve"/>
      <point x="435" y="48"/>
      <point x="415" y="39"/>
      <point x="391" y="39" type="curve" smooth="yes"/>
      <point x="347" y="39"/>
      <point x="311" y="74"/>
      <point x="308" y="118" type="curve"/>
      <point x="308" y="123" type="line"/>
      <point x="308" y="718" type="line" smooth="yes"/>
      <point x="308" y="729"/>
      <point x="300" y="736"/>
      <point x="289" y="736" type="curve" smooth="yes"/>
      <point x="286" y="736"/>
      <point x="283" y="736"/>
      <point x="282" y="735" type="curve"/>
      <point x="274" y="732"/>
      <point x="270" y="726"/>
      <point x="270" y="717" type="curve" smooth="yes"/>
      <point x="270" y="123" type="line"/>
      <point x="270" y="118" type="line"/>
      <point x="267" y="74"/>
      <point x="231" y="39"/>
      <point x="187" y="39" type="curve" smooth="yes"/>
      <point x="163" y="39"/>
      <point x="143" y="48"/>
      <point x="128" y="63" type="curve" smooth="yes"/>
      <point x="112" y="79"/>
      <point x="103" y="100"/>
      <point x="103" y="123" type="curve" smooth="yes"/>
      <point x="103" y="715" type="line" smooth="yes"/>
      <point x="103" y="726"/>
      <point x="95" y="734"/>
      <point x="84" y="734" type="curve" smooth="yes"/>
      <point x="73" y="734"/>
      <point x="65" y="726"/>
      <point x="65" y="715" type="curve" smooth="yes"/>
      <point x="65" y="123" type="line" smooth="yes"/>
      <point x="65" y="90"/>
      <point x="79" y="58"/>
      <point x="101" y="36" type="curve" smooth="yes"/>
      <point x="123" y="14"/>
      <point x="154" y="1"/>
      <point x="187" y="1" type="curve" smooth="yes"/>
      <point x="230" y="1"/>
      <point x="266" y="23"/>
      <point x="289" y="58" type="curve"/>
      <point x="312" y="23"/>
      <point x="348" y="1"/>
      <point x="391" y="1" type="curve" smooth="yes"/>
      <point x="424" y="1"/>
      <point x="456" y="14"/>
    </contour>
  </outline>
</glyph>
<glyph name="X" format="1">
  <advance width="431"/>
  <unicode hex="0058"/>
  <outline>
    <contour>
      <point x="320.645" y="720.396" type="curve" smooth="yes"/>
      <point x="281.159" y="622.368" type="line"/>
      <point x="91" y="129" type="line"/>
      <point x="50.6475" y="31.9648" type="line" smooth="yes"/>
      <point x="46.2822" y="21.4668"/>
      <point x="51.5098" y="8.29395"/>
      <point x="57" y="5" type="curve" smooth="yes"/>
      <point x="67" y="-1"/>
      <point x="84.3799" y="2.04199"/>
      <point x="88.2988" y="11.7812" type="curve" smooth="yes"/>
      <point x="127.794" y="109.941" type="line"/>
      <point x="317.952" y="603.309" type="line"/>
      <point x="357.305" y="700.345" type="line" smooth="yes"/>
      <point x="362.163" y="712.324"/>
      <point x="357.711" y="726.37"/>
      <point x="346" y="730" type="curve" smooth="yes"/>
      <point x="335.671" y="733.202"/>
      <point x="324.315" y="729.508"/>
    </contour>
    <contour>
      <point x="93.3555" y="718.695" type="line" smooth="yes"/>
      <point x="89.3691" y="728.115"/>
      <point x="81.127" y="730.271"/>
      <point x="72" y="729" type="curve" smooth="yes"/>
      <point x="56.418" y="726.831"/>
      <point x="51.2617" y="711.395"/>
      <point x="56.6953" y="698.645" type="curve" smooth="yes"/>
      <point x="98.0479" y="601.608" type="line"/>
      <point x="308.206" y="108.241" type="line"/>
      <point x="348.701" y="10.0811" type="line" smooth="yes"/>
      <point x="352.411" y="1.08887"/>
      <point x="359.737" y="-1.06543"/>
      <point x="368" y="0" type="curve" smooth="yes"/>
      <point x="385.138" y="2.20996"/>
      <point x="391.677" y="17.7705"/>
      <point x="386.353" y="30.2646" type="curve" smooth="yes"/>
      <point x="345" y="127.3" type="line"/>
      <point x="134.841" y="620.668" type="line"/>
    </contour>
  </outline>
</glyph>
<glyph name="Y" format="1">
  <advance width="326"/>
  <unicode hex="0059"/>
  <outline>
    <contour>
      <point x="283" y="705" type="qcurve" smooth="yes"/>
      <point x="283" y="470" type="line" smooth="yes"/>
      <point x="283" y="425"/>
      <point x="225" y="357"/>
      <point x="180" y="349" type="qcurve"/>
      <point x="180" y="19" type="line" smooth="yes"/>
      <point x="180" y="0"/>
      <point x="142" y="0"/>
      <point x="142" y="19" type="qcurve" smooth="yes"/>
      <point x="142" y="349" type="line"/>
      <point x="97" y="357"/>
      <point x="39" y="425"/>
      <point x="39" y="470" type="qcurve" smooth="yes"/>
      <point x="39" y="705" type="line" smooth="yes"/>
      <point x="39" y="724"/>
      <point x="77" y="724"/>
      <point x="77" y="705" type="qcurve" smooth="yes"/>
      <point x="77" y="470" type="line" smooth="yes"/>
      <point x="77" y="434"/>
      <point x="102" y="411" type="qcurve" smooth="yes"/>
      <point x="125" y="386"/>
      <point x="161" y="386" type="qcurve" smooth="yes"/>
      <point x="196" y="386"/>
      <point x="221" y="411" type="qcurve" smooth="yes"/>
      <point x="245" y="435"/>
      <point x="245" y="470" type="qcurve" smooth="yes"/>
      <point x="245" y="705" type="line" smooth="yes"/>
      <point x="245" y="724"/>
      <point x="283" y="724"/>
    </contour>
  </outline>
</glyph>
<glyph name="Z" format="1">
  <advance width="356"/>
  <unicode hex="005A"/>
  <outline>
    <contour>
      <point x="297" y="109"/>
      <point x="305" y="100"/>
      <point x="305" y="89" type="curve" smooth="yes"/>
      <point x="305" y="26"/>
      <point x="279" y="0"/>
      <point x="216" y="0" type="curve" smooth="yes"/>
      <point x="76" y="0" type="line" smooth="yes"/>
      <point x="75" y="0"/>
      <point x="75" y="0"/>
      <point x="74" y="1" type="curve"/>
      <point x="73" y="1"/>
      <point x="73" y="1"/>
      <point x="72" y="1" type="curve" smooth="yes"/>
      <point x="69" y="1"/>
      <point x="66" y="2"/>
      <point x="62" y="5" type="curve"/>
      <point x="59" y="10"/>
      <point x="57" y="14"/>
      <point x="57" y="17" type="curve" smooth="yes"/>
      <point x="57" y="19" type="line" smooth="yes"/>
      <point x="57" y="24"/>
      <point x="58" y="27"/>
      <point x="59" y="30" type="curve"/>
      <point x="59" y="32" type="line"/>
      <point x="260" y="684" type="line"/>
      <point x="147" y="684" type="line" smooth="yes"/>
      <point x="106" y="684"/>
      <point x="96" y="674"/>
      <point x="96" y="633" type="curve" smooth="yes"/>
      <point x="96" y="622"/>
      <point x="88" y="614"/>
      <point x="77" y="614" type="curve" smooth="yes"/>
      <point x="66" y="614"/>
      <point x="58" y="622"/>
      <point x="58" y="633" type="curve" smooth="yes"/>
      <point x="58" y="696"/>
      <point x="84" y="722"/>
      <point x="147" y="722" type="curve" smooth="yes"/>
      <point x="283" y="722" type="line" smooth="yes"/>
      <point x="294" y="722"/>
      <point x="302" y="714"/>
      <point x="302" y="703" type="curve" smooth="yes"/>
      <point x="302" y="700"/>
      <point x="302" y="698"/>
      <point x="301" y="697" type="curve"/>
      <point x="98" y="38" type="line"/>
      <point x="216" y="38" type="line" smooth="yes"/>
      <point x="257" y="38"/>
      <point x="267" y="48"/>
      <point x="267" y="89" type="curve" smooth="yes"/>
      <point x="267" y="100"/>
      <point x="275" y="109"/>
      <point x="286" y="109" type="curve" smooth="yes"/>
    </contour>
  </outline>
</glyph>
<glyph name="bracketleft" format="2">
  <advance width="224"/>
  <unicode hex="005B"/>
  <outline>
    <contour>
      <point x="69" y="733" type="line"/>
      <point x="160" y="733" type="line" smooth="yes"/>
      <point x="168" y="733"/>
      <point x="179" y="721"/>
      <point x="179" y="713" type="qcurve" smooth="yes"/>
      <point x="179" y="694"/>
      <point x="160" y="694" type="qcurve" smooth="yes"/>
      <point x="107" y="694" type="line"/>
      <point x="107" y="39" type="line"/>
      <point x="160" y="39" type="line" smooth="yes"/>
      <point x="168" y="39"/>
      <point x="179" y="27"/>
      <point x="179" y="19" type="qcurve" smooth="yes"/>
      <point x="179" y="0"/>
      <point x="160" y="0" type="qcurve" smooth="yes"/>
      <point x="69" y="0" type="line"/>
    </contour>
  </outline>
</glyph>
<glyph name="backslash" format="1">
  <advance width="387"/>
  <unicode hex="005C"/>
  <outline>
    <contour>
      <point x="66" y="736"/>
      <point x="78" y="731"/>
      <point x="82" y="720" type="curve" smooth="yes"/>
      <point x="120" y="616" type="line"/>
      <point x="313" y="50" type="line"/>
      <point x="351" y="-53" type="line" smooth="yes"/>
      <point x="355" y="-64"/>
      <point x="349" y="-76"/>
      <point x="338" y="-80" type="curve" smooth="yes"/>
      <point x="327" y="-84"/>
      <point x="315" y="-79"/>
      <point x="311" y="-68" type="curve" smooth="yes"/>
      <point x="274" y="36" type="line"/>
      <point x="81" y="602" type="line"/>
      <point x="43" y="705" type="line" smooth="yes"/>
      <point x="39" y="716"/>
      <point x="44" y="728"/>
      <point x="55" y="732" type="curve" smooth="yes"/>
    </contour>
  </outline>
</glyph>
<glyph name="bracketright" format="1">
  <advance width="252"/>
  <unicode hex="005D"/>
  <outline>
    <contour>
      <point x="174" y="0" type="line"/>
      <point x="83" y="0" type="line" smooth="yes"/>
      <point x="75" y="0"/>
      <point x="63" y="11"/>
      <point x="63" y="19" type="qcurve" smooth="yes"/>
      <point x="63" y="27"/>
      <point x="75" y="39"/>
      <point x="83" y="39" type="qcurve" smooth="yes"/>
      <point x="135" y="39" type="line"/>
      <point x="135" y="695" type="line"/>
      <point x="83" y="695" type="line" smooth="yes"/>
      <point x="75" y="695"/>
      <point x="63" y="706"/>
      <point x="63" y="714" type="qcurve" smooth="yes"/>
      <point x="63" y="722"/>
      <point x="75" y="734"/>
      <point x="83" y="734" type="qcurve" smooth="yes"/>
      <point x="174" y="734" type="line"/>
    </contour>
  </outline>
</glyph>
<glyph name="asciicircum" format="1">
  <advance width="453"/>
  <unicode hex="005E"/>
  <outline>
    <contour>
      <point x="398" y="548"/>
      <point x="390" y="539"/>
      <point x="377" y="539" type="curve" smooth="yes"/>
      <point x="373" y="539"/>
      <point x="369" y="541"/>
      <point x="364" y="544" type="curve"/>
      <point x="363" y="545" type="line"/>
      <point x="231" y="710" type="line"/>
      <point x="103" y="545" type="line"/>
      <point x="102" y="544" type="line"/>
      <point x="97" y="541"/>
      <point x="93" y="539"/>
      <point x="88" y="539" type="curve" smooth="yes"/>
      <point x="76" y="539"/>
      <point x="68" y="551"/>
      <point x="68" y="560" type="curve" smooth="yes"/>
      <point x="68" y="566"/>
      <point x="70" y="571"/>
      <point x="74" y="574" type="curve"/>
      <point x="230" y="770" type="line"/>
      <point x="392" y="574" type="line"/>
      <point x="396" y="570"/>
      <point x="398" y="566"/>
      <point x="398" y="561" type="curve" smooth="yes"/>
    </contour>
  </outline>
</glyph>
<glyph name="underscore" format="2">
  <advance width="811"/>
  <unicode hex="005F"/>
  <outline>
    <contour>
      <point x="724" y="-36" type="qcurve" smooth="yes"/>
      <point x="681" y="-36" type="line"/>
      <point x="185" y="-36" type="line"/>
      <point x="86" y="-36" type="line" smooth="yes"/>
      <point x="67" y="-36"/>
      <point x="67" y="2"/>
      <point x="86" y="2" type="qcurve" smooth="yes"/>
      <point x="185" y="2" type="line"/>
      <point x="681" y="2" type="line"/>
      <point x="724" y="2" type="line" smooth="yes"/>
      <point x="743" y="2"/>
      <point x="743" y="-36"/>
    </contour>
  </outline>
</glyph>
<glyph name="b" format="1">
  <advance width="343"/>
  <unicode hex="0062"/>
  <outline>
    <contour>
      <point x="99" y="655" type="line"/>
      <point x="99" y="491" type="line"/>
      <point x="120" y="511"/>
      <point x="149" y="524"/>
      <point x="180" y="524" type="curve" smooth="yes"/>
      <point x="212" y="524"/>
      <point x="242" y="510"/>
      <point x="263" y="489" type="curve" smooth="yes"/>
      <point x="284" y="468"/>
      <point x="298" y="438"/>
      <point x="298" y="406" type="curve" smooth="yes"/>
      <point x="298" y="109" type="line" smooth="yes"/>
      <point x="298" y="77"/>
      <point x="284" y="47"/>
      <point x="263" y="26" type="curve" smooth="yes"/>
      <point x="242" y="5"/>
      <point x="212" y="-9"/>
      <point x="180" y="-9" type="curve" smooth="yes"/>
      <point x="148" y="-9"/>
      <point x="118" y="5"/>
      <point x="97" y="26" type="curve" smooth="yes"/>
      <point x="76" y="47"/>
      <point x="62.0586" y="77.0001"/>
      <point x="62" y="109" type="curve" smooth="yes"/>
      <point x="61" y="655" type="line"/>
      <point x="61" y="752" type="line" smooth="yes"/>
      <point x="61" y="763"/>
      <point x="69" y="771"/>
      <point x="80" y="771" type="curve" smooth="yes"/>
      <point x="91" y="771"/>
      <point x="99" y="763"/>
      <point x="99" y="752" type="curve" smooth="yes"/>
    </contour>
    <contour>
      <point x="261" y="163" type="line"/>
      <point x="261" y="164" type="line"/>
      <point x="261" y="406" type="line" smooth="yes"/>
      <point x="261" y="450"/>
      <point x="225" y="487"/>
      <point x="180" y="487" type="curve" smooth="yes"/>
      <point x="135" y="487"/>
      <point x="99" y="450"/>
      <point x="99" y="406" type="curve" smooth="yes"/>
      <point x="99" y="109" type="line" smooth="yes"/>
      <point x="99" y="64"/>
      <point x="135" y="27"/>
      <point x="180" y="27" type="curve" smooth="yes"/>
      <point x="225" y="27"/>
      <point x="261" y="64"/>
      <point x="261" y="109" type="curve" smooth="yes"/>
    </contour>
  </outline>
</glyph>
<glyph name="c" format="1">
  <advance width="333"/>
  <unicode hex="0063"/>
  <outline>
    <contour>
      <point x="254" y="390" type="line"/>
      <point x="254" y="412" type="line" smooth="yes"/>
      <point x="254" y="457"/>
      <point x="218" y="493"/>
      <point x="173" y="493" type="curve" smooth="yes"/>
      <point x="128" y="493"/>
      <point x="92" y="457"/>
      <point x="92" y="412" type="curve" smooth="yes"/>
      <point x="92" y="107" type="line" smooth="yes"/>
      <point x="92" y="63"/>
      <point x="128" y="26"/>
      <point x="173" y="26" type="curve" smooth="yes"/>
      <point x="218" y="26"/>
      <point x="254" y="63"/>
      <point x="254" y="107" type="curve" smooth="yes"/>
      <point x="254" y="130" type="line"/>
      <point x="290" y="130" type="line"/>
      <point x="290" y="107" type="line" smooth="yes"/>
      <point x="290" y="75"/>
      <point x="277" y="45"/>
      <point x="256" y="25" type="curve" smooth="yes"/>
      <point x="235" y="4"/>
      <point x="205" y="-10"/>
      <point x="173" y="-10" type="curve" smooth="yes"/>
      <point x="141" y="-10"/>
      <point x="111" y="4"/>
      <point x="90" y="25" type="curve" smooth="yes"/>
      <point x="69" y="45"/>
      <point x="56" y="75"/>
      <point x="56" y="107" type="curve" smooth="yes"/>
      <point x="56" y="412" type="line" smooth="yes"/>
      <point x="56" y="444"/>
      <point x="69" y="474"/>
      <point x="90" y="495" type="curve" smooth="yes"/>
      <point x="111" y="516"/>
      <point x="141" y="530"/>
      <point x="173" y="530" type="curve" smooth="yes"/>
      <point x="205" y="530"/>
      <point x="235" y="516"/>
      <point x="256" y="495" type="curve" smooth="yes"/>
      <point x="277" y="474"/>
      <point x="290" y="444"/>
      <point x="290" y="412" type="curve" smooth="yes"/>
      <point x="290" y="390" type="line"/>
    </contour>
  </outline>
</glyph>
<glyph name="d" format="1">
  <advance width="353"/>
  <unicode hex="0064"/>
  <outline>
    <contour>
      <point x="171" y="772" type="qcurve" smooth="yes"/>
      <point x="195" y="772"/>
      <point x="238" y="753"/>
      <point x="270" y="721"/>
      <point x="289" y="678"/>
      <point x="289" y="654" type="qcurve" smooth="yes"/>
      <point x="289" y="107" type="line" smooth="yes"/>
      <point x="289" y="83"/>
      <point x="270" y="40"/>
      <point x="238" y="8"/>
      <point x="195" y="-11"/>
      <point x="171" y="-11" type="qcurve" smooth="yes"/>
      <point x="147" y="-11"/>
      <point x="104" y="8"/>
      <point x="72" y="40"/>
      <point x="53" y="83"/>
      <point x="53" y="107" type="qcurve" smooth="yes"/>
      <point x="53" y="407" type="line" smooth="yes"/>
      <point x="53" y="431"/>
      <point x="72" y="474"/>
      <point x="104" y="506"/>
      <point x="147" y="525"/>
      <point x="171" y="525" type="qcurve" smooth="yes"/>
      <point x="195" y="525"/>
      <point x="236" y="508"/>
      <point x="252" y="493" type="qcurve"/>
      <point x="252" y="654" type="line" smooth="yes"/>
      <point x="252" y="688"/>
      <point x="205" y="735"/>
      <point x="171" y="735" type="qcurve" smooth="yes"/>
      <point x="163" y="735"/>
      <point x="153" y="746"/>
      <point x="153" y="754" type="qcurve" smooth="yes"/>
      <point x="153" y="762"/>
      <point x="163" y="772"/>
    </contour>
    <contour>
      <point x="252" y="407" type="line" smooth="yes"/>
      <point x="252" y="441"/>
      <point x="205" y="489"/>
      <point x="171" y="489" type="qcurve" smooth="yes"/>
      <point x="137" y="489"/>
      <point x="90" y="441"/>
      <point x="90" y="407" type="qcurve" smooth="yes"/>
      <point x="90" y="162" type="line"/>
      <point x="90" y="161" type="line"/>
      <point x="90" y="107" type="line" smooth="yes"/>
      <point x="90" y="73"/>
      <point x="137" y="25"/>
      <point x="171" y="25" type="qcurve" smooth="yes"/>
      <point x="205" y="25"/>
      <point x="252" y="73"/>
      <point x="252" y="107" type="qcurve" smooth="yes"/>
    </contour>
  </outline>
</glyph>
<glyph name="e" format="1">
  <advance width="333"/>
  <unicode hex="0065"/>
  <outline>
    <contour>
      <point x="91" y="236" type="line"/>
      <point x="91" y="108" type="line" smooth="yes"/>
      <point x="91" y="74"/>
      <point x="138" y="27"/>
      <point x="171" y="27" type="qcurve" smooth="yes"/>
      <point x="204" y="27"/>
      <point x="251" y="74"/>
      <point x="251" y="108" type="qcurve" smooth="yes"/>
      <point x="251" y="134" type="line"/>
      <point x="287" y="134" type="line"/>
      <point x="287" y="108" type="line" smooth="yes"/>
      <point x="287" y="84"/>
      <point x="269" y="41"/>
      <point x="237" y="9"/>
      <point x="195" y="-9"/>
      <point x="171" y="-9" type="qcurve" smooth="yes"/>
      <point x="147" y="-9"/>
      <point x="105" y="9"/>
      <point x="73" y="41"/>
      <point x="55" y="84"/>
      <point x="55" y="108" type="qcurve" smooth="yes"/>
      <point x="55" y="411" type="line" smooth="yes"/>
      <point x="55" y="435"/>
      <point x="73" y="487"/>
      <point x="105" y="519"/>
      <point x="147" y="537"/>
      <point x="171" y="537" type="qcurve" smooth="yes"/>
      <point x="195" y="537"/>
      <point x="237" y="519"/>
      <point x="269" y="487"/>
      <point x="287" y="435"/>
      <point x="287" y="411" type="qcurve" smooth="yes"/>
      <point x="287" y="319" type="line" smooth="yes"/>
      <point x="287" y="287"/>
      <point x="242" y="236"/>
      <point x="198" y="236" type="qcurve" smooth="yes"/>
    </contour>
    <contour>
      <point x="91" y="273" type="line"/>
      <point x="198" y="273" type="line" smooth="yes"/>
      <point x="222" y="273"/>
      <point x="251" y="288"/>
      <point x="251" y="313" type="qcurve" smooth="yes"/>
      <point x="251" y="411" type="line" smooth="yes"/>
      <point x="251" y="444"/>
      <point x="204" y="501"/>
      <point x="171" y="501" type="qcurve" smooth="yes"/>
      <point x="138" y="501"/>
      <point x="91" y="444"/>
      <point x="91" y="411" type="qcurve" smooth="yes"/>
    </contour>
  </outline>
</glyph>
<glyph name="f" format="1">
  <advance width="294"/>
  <unicode hex="0066"/>
  <outline>
    <contour>
      <point x="159" y="510" type="line"/>
      <point x="159" y="473" type="line"/>
      <point x="159" y="19" type="line" smooth="yes"/>
      <point x="159" y="7"/>
      <point x="152.667" y="1"/>
      <point x="140" y="1" type="curve" smooth="yes"/>
      <point x="128" y="1"/>
      <point x="122" y="7"/>
      <point x="122" y="19" type="curve" smooth="yes"/>
      <point x="122" y="473" type="line"/>
      <point x="54" y="473" type="line" smooth="yes"/>
      <point x="42" y="473"/>
      <point x="36" y="479.333"/>
      <point x="36" y="492" type="curve" smooth="yes"/>
      <point x="36" y="504"/>
      <point x="42" y="510"/>
      <point x="54" y="510" type="curve" smooth="yes"/>
      <point x="122" y="510" type="line"/>
      <point x="122" y="633" type="line" smooth="yes"/>
      <point x="122" y="665"/>
      <point x="133.667" y="692.667"/>
      <point x="157" y="716" type="curve" smooth="yes"/>
      <point x="181" y="738.667"/>
      <point x="208.667" y="750"/>
      <point x="240" y="750" type="curve" smooth="yes"/>
      <point x="252" y="750"/>
      <point x="258" y="744"/>
      <point x="258" y="732" type="curve" smooth="yes"/>
      <point x="258" y="720"/>
      <point x="252" y="714"/>
      <point x="240" y="714" type="curve" smooth="yes"/>
      <point x="217.333" y="714"/>
      <point x="198.167" y="706"/>
      <point x="182.5" y="690" type="curve" smooth="yes"/>
      <point x="166.833" y="674"/>
      <point x="159" y="655"/>
      <point x="159" y="633" type="curve" smooth="yes"/>
    </contour>
    <contour>
      <point x="136" y="473" type="line"/>
      <point x="138" y="509" type="line"/>
      <point x="225" y="509" type="line" smooth="yes"/>
      <point x="237.667" y="509"/>
      <point x="244" y="503"/>
      <point x="244" y="491" type="curve" smooth="yes"/>
      <point x="244" y="479"/>
      <point x="237.667" y="473"/>
      <point x="225" y="473" type="curve" smooth="yes"/>
    </contour>
  </outline>
</glyph>
<glyph name="g" format="1">
  <advance width="352"/>
  <unicode hex="0067"/>
  <outline>
    <contour>
      <point x="288" y="410" type="line"/>
      <point x="252" y="410" type="line"/>
      <point x="252" y="446" type="line" smooth="yes"/>
      <point x="252" y="467"/>
      <point x="253" y="479" type="qcurve" smooth="yes"/>
      <point x="253" y="479"/>
      <point x="253" y="510" type="qcurve" smooth="yes"/>
      <point x="253" y="529"/>
      <point x="289" y="529"/>
      <point x="289" y="510" type="qcurve" smooth="yes"/>
    </contour>
    <contour>
      <point x="287" y="-123" type="line"/>
      <point x="287" y="-170"/>
      <point x="253" y="-206" type="qcurve" smooth="yes"/>
      <point x="219" y="-240"/>
      <point x="170" y="-240" type="qcurve" smooth="yes"/>
      <point x="120" y="-240"/>
      <point x="88" y="-206" type="qcurve" smooth="yes"/>
      <point x="53" y="-171"/>
      <point x="53" y="-123" type="qcurve" smooth="yes"/>
      <point x="53" y="-99" type="line"/>
      <point x="57" y="-83"/>
      <point x="81" y="-82"/>
      <point x="89" y="-99" type="qcurve"/>
      <point x="89" y="-123" type="line" smooth="yes"/>
      <point x="89" y="-157"/>
      <point x="136" y="-204"/>
      <point x="204" y="-204"/>
      <point x="252" y="-157"/>
      <point x="252" y="-122" type="qcurve" smooth="yes"/>
      <point x="252" y="33" type="line"/>
      <point x="218" y="1"/>
      <point x="172" y="1" type="qcurve" smooth="yes"/>
      <point x="124" y="1"/>
      <point x="56" y="69"/>
      <point x="56" y="117" type="qcurve" smooth="yes"/>
      <point x="56" y="410" type="line" smooth="yes"/>
      <point x="56" y="459"/>
      <point x="90" y="493" type="qcurve" smooth="yes"/>
      <point x="126" y="527"/>
      <point x="218" y="527"/>
      <point x="254" y="493" type="qcurve" smooth="yes"/>
      <point x="288" y="459"/>
      <point x="288" y="410" type="qcurve" smooth="yes"/>
      <point x="288" y="-122" type="line"/>
    </contour>
    <contour>
      <point x="252" y="410" type="line" smooth="yes"/>
      <point x="252" y="444"/>
      <point x="205" y="491"/>
      <point x="139" y="491"/>
      <point x="92" y="444"/>
      <point x="92" y="410" type="qcurve" smooth="yes"/>
      <point x="92" y="357" type="line"/>
      <point x="92" y="356" type="line"/>
      <point x="92" y="117" type="line" smooth="yes"/>
      <point x="92" y="84"/>
      <point x="139" y="37"/>
      <point x="205" y="37"/>
      <point x="252" y="84"/>
      <point x="252" y="117" type="qcurve" smooth="yes"/>
    </contour>
  </outline>
</glyph>
<glyph name="h" format="1">
  <advance width="356"/>
  <unicode hex="0068"/>
  <outline>
    <contour>
      <point x="299" y="410" type="qcurve" smooth="yes"/>
      <point x="299" y="18" type="line" smooth="yes"/>
      <point x="299" y="10"/>
      <point x="289" y="0"/>
      <point x="281" y="0" type="qcurve" smooth="yes"/>
      <point x="273" y="0"/>
      <point x="263" y="10"/>
      <point x="263" y="18" type="qcurve" smooth="yes"/>
      <point x="263" y="410" type="line" smooth="yes"/>
      <point x="263" y="443"/>
      <point x="216" y="491"/>
      <point x="182" y="491" type="qcurve" smooth="yes"/>
      <point x="148" y="491"/>
      <point x="101" y="443"/>
      <point x="101" y="410" type="qcurve" smooth="yes"/>
      <point x="101" y="18" type="line" smooth="yes"/>
      <point x="101" y="10"/>
      <point x="91" y="0"/>
      <point x="83" y="0" type="qcurve" smooth="yes"/>
      <point x="75" y="0"/>
      <point x="65" y="10"/>
      <point x="65" y="18" type="qcurve" smooth="yes"/>
      <point x="65" y="657" type="line" smooth="yes"/>
      <point x="65" y="681"/>
      <point x="83" y="724"/>
      <point x="115" y="755"/>
      <point x="158" y="774"/>
      <point x="182" y="774" type="qcurve" smooth="yes"/>
      <point x="190" y="774"/>
      <point x="200" y="764"/>
      <point x="200" y="756" type="qcurve" smooth="yes"/>
      <point x="200" y="748"/>
      <point x="190" y="738"/>
      <point x="182" y="738" type="qcurve" smooth="yes"/>
      <point x="148" y="738"/>
      <point x="101" y="690"/>
      <point x="101" y="657" type="qcurve" smooth="yes"/>
      <point x="101" y="495" type="line"/>
      <point x="117" y="510"/>
      <point x="159" y="527"/>
      <point x="182" y="527" type="qcurve" smooth="yes"/>
      <point x="206" y="527"/>
      <point x="249" y="508"/>
      <point x="281" y="477"/>
      <point x="299" y="434"/>
    </contour>
  </outline>
</glyph>
<glyph name="i" format="1">
  <advance width="215"/>
  <unicode hex="0069"/>
  <outline>
    <contour>
      <point x="150" y="412" type="line"/>
      <point x="150" y="18" type="line" smooth="yes"/>
      <point x="150" y="10"/>
      <point x="140" y="0"/>
      <point x="132" y="0" type="qcurve" smooth="yes"/>
      <point x="124" y="0"/>
      <point x="114" y="10"/>
      <point x="114" y="18" type="qcurve" smooth="yes"/>
      <point x="114" y="412" type="line"/>
    </contour>
    <contour>
      <point x="132" y="561" type="qcurve" smooth="yes"/>
      <point x="124" y="561"/>
      <point x="114" y="571"/>
      <point x="114" y="579" type="qcurve" smooth="yes"/>
      <point x="114" y="592" type="line" smooth="yes"/>
      <point x="114" y="600"/>
      <point x="124" y="610"/>
      <point x="132" y="610" type="qcurve" smooth="yes"/>
      <point x="140" y="610"/>
      <point x="150" y="600"/>
      <point x="150" y="592" type="qcurve" smooth="yes"/>
      <point x="150" y="579" type="line" smooth="yes"/>
      <point x="150" y="571"/>
      <point x="140" y="561"/>
    </contour>
    <contour>
      <point x="150" y="400" type="line"/>
      <point x="114" y="400" type="line"/>
      <point x="114" y="436" type="line" smooth="yes"/>
      <point x="114" y="451"/>
      <point x="115" y="486"/>
      <point x="115" y="500" type="qcurve" smooth="yes"/>
      <point x="115" y="508"/>
      <point x="125" y="519"/>
      <point x="133" y="519" type="qcurve" smooth="yes"/>
      <point x="141" y="519"/>
      <point x="151" y="508"/>
      <point x="151" y="500" type="qcurve" smooth="yes"/>
    </contour>
  </outline>
</glyph>
<glyph name="j" format="1">
  <advance width="207"/>
  <unicode hex="006A"/>
  <outline>
    <contour>
      <point x="98" y="598" type="curve" smooth="yes"/>
      <point x="98" y="620" type="line" smooth="yes"/>
      <point x="98" y="637.812"/>
      <point x="107.678" y="650"/>
      <point x="123" y="650" type="curve" smooth="yes"/>
      <point x="138.438" y="650"/>
      <point x="149" y="637.812"/>
      <point x="149" y="620" type="curve" smooth="yes"/>
      <point x="149" y="598" type="line" smooth="yes"/>
      <point x="149" y="580.188"/>
      <point x="138.438" y="568"/>
      <point x="123" y="568" type="curve" smooth="yes"/>
      <point x="107.678" y="568"/>
      <point x="98" y="580.188"/>
    </contour>
    <contour>
      <point x="135" y="528"/>
      <point x="142" y="521"/>
      <point x="142" y="510" type="curve" smooth="yes"/>
      <point x="142" y="-120" type="line" smooth="yes"/>
      <point x="142" y="-152"/>
      <point x="129" y="-181"/>
      <point x="108" y="-202" type="curve" smooth="yes"/>
      <point x="87" y="-223"/>
      <point x="58" y="-236"/>
      <point x="26" y="-236" type="curve" smooth="yes"/>
      <point x="15" y="-236"/>
      <point x="8" y="-229"/>
      <point x="8" y="-218" type="curve" smooth="yes"/>
      <point x="8" y="-207"/>
      <point x="15" y="-200"/>
      <point x="26" y="-200" type="curve" smooth="yes"/>
      <point x="70" y="-200"/>
      <point x="106" y="-164"/>
      <point x="106" y="-120" type="curve" smooth="yes"/>
      <point x="106" y="510" type="line" smooth="yes"/>
      <point x="106" y="521"/>
      <point x="113" y="528"/>
      <point x="124" y="528" type="curve" smooth="yes"/>
    </contour>
  </outline>
</glyph>
<glyph name="k" format="1">
  <advance width="360"/>
  <unicode hex="006B"/>
  <outline>
    <contour>
      <point x="101" y="215" type="line"/>
      <point x="101" y="18" type="line" smooth="yes"/>
      <point x="101" y="6"/>
      <point x="95" y="0"/>
      <point x="83" y="0" type="curve" smooth="yes"/>
      <point x="71" y="0"/>
      <point x="65" y="6"/>
      <point x="65" y="18" type="curve" smooth="yes"/>
      <point x="65" y="731" type="line" smooth="yes"/>
      <point x="65" y="737"/>
      <point x="66.8333" y="741.5"/>
      <point x="70.5" y="744.5" type="curve" smooth="yes"/>
      <point x="74.1667" y="747.5"/>
      <point x="78.3333" y="749"/>
      <point x="83" y="749" type="curve" smooth="yes"/>
      <point x="87.6667" y="749"/>
      <point x="91.8333" y="747.5"/>
      <point x="95.5" y="744.5" type="curve" smooth="yes"/>
      <point x="99.1667" y="741.5"/>
      <point x="101" y="737"/>
      <point x="101" y="731" type="curve" smooth="yes"/>
      <point x="101" y="373" type="line" smooth="yes"/>
      <point x="100.333" y="349"/>
      <point x="100.5" y="330.5"/>
      <point x="101.5" y="317.5" type="curve" smooth="yes"/>
      <point x="102.5" y="304.5"/>
      <point x="102.333" y="298"/>
      <point x="101" y="298" type="curve"/>
      <point x="103" y="296"/>
      <point x="104.667" y="293.667"/>
      <point x="106" y="291" type="curve" smooth="yes"/>
    </contour>
    <contour>
      <point x="96" y="242" type="line"/>
      <point x="69" y="264" type="line"/>
      <point x="259" y="509" type="line" smooth="yes"/>
      <point x="267" y="519"/>
      <point x="275.833" y="520.5"/>
      <point x="285.5" y="513.5" type="curve" smooth="yes"/>
      <point x="295.167" y="506.5"/>
      <point x="296.667" y="498"/>
      <point x="290" y="488" type="curve" smooth="yes"/>
    </contour>
    <contour>
      <point x="300" y="27" type="line" smooth="yes"/>
      <point x="306.667" y="17"/>
      <point x="305.167" y="8.5"/>
      <point x="295.5" y="1.5" type="curve" smooth="yes"/>
      <point x="285.833" y="-5.5"/>
      <point x="277" y="-4"/>
      <point x="269" y="6" type="curve" smooth="yes"/>
      <point x="68" y="267" type="line"/>
      <point x="95" y="289" type="line"/>
    </contour>
  </outline>
</glyph>
<glyph name="l" format="2">
  <advance width="165"/>
  <unicode hex="006C"/>
  <outline>
    <contour>
      <point x="102" y="628" type="line"/>
      <point x="65" y="628" type="line"/>
      <point x="65" y="664" type="line"/>
      <point x="65" y="697" type="line"/>
      <point x="65" y="728" type="line" smooth="yes"/>
      <point x="65" y="748"/>
      <point x="84" y="748" type="qcurve" smooth="yes"/>
      <point x="102" y="748"/>
      <point x="102" y="728" type="qcurve" smooth="yes"/>
    </contour>
    <contour>
      <point x="65" y="654" type="line"/>
      <point x="102" y="654" type="line"/>
      <point x="102" y="18" type="line" smooth="yes"/>
      <point x="102" y="0"/>
      <point x="83" y="0" type="qcurve" smooth="yes"/>
      <point x="65" y="0"/>
      <point x="65" y="18" type="qcurve" smooth="yes"/>
    </contour>
  </outline>
</glyph>
<glyph name="m" format="1">
  <advance width="598"/>
  <unicode hex="006D"/>
  <outline>
    <contour>
      <point x="447" y="526"/>
      <point x="476" y="513"/>
      <point x="497" y="492" type="curve" smooth="yes"/>
      <point x="518" y="471"/>
      <point x="531" y="442"/>
      <point x="531" y="410" type="curve" smooth="yes"/>
      <point x="531" y="16" type="line" smooth="yes"/>
      <point x="531" y="5"/>
      <point x="524" y="-2"/>
      <point x="513" y="-2" type="curve" smooth="yes"/>
      <point x="502" y="-2"/>
      <point x="495" y="5"/>
      <point x="495" y="16" type="curve" smooth="yes"/>
      <point x="495" y="410" type="line" smooth="yes"/>
      <point x="495" y="454"/>
      <point x="459" y="490"/>
      <point x="415" y="490" type="curve" smooth="yes"/>
      <point x="370" y="490"/>
      <point x="334" y="454"/>
      <point x="334" y="410" type="curve" smooth="yes"/>
      <point x="334" y="16" type="line" smooth="yes"/>
      <point x="334" y="5"/>
      <point x="328" y="-2"/>
      <point x="317" y="-2" type="curve" smooth="yes"/>
      <point x="315" y="-2" type="line" smooth="yes"/>
      <point x="304" y="-2"/>
      <point x="297" y="5"/>
      <point x="297" y="16" type="curve" smooth="yes"/>
      <point x="297" y="410" type="line" smooth="yes"/>
      <point x="297" y="454"/>
      <point x="261" y="490"/>
      <point x="217" y="490" type="curve" smooth="yes"/>
      <point x="172" y="490"/>
      <point x="136" y="454"/>
      <point x="136" y="410" type="curve" smooth="yes"/>
      <point x="136" y="16" type="line" smooth="yes"/>
      <point x="136" y="5"/>
      <point x="129" y="-2"/>
      <point x="118" y="-2" type="curve" smooth="yes"/>
      <point x="107" y="-2"/>
      <point x="100" y="5"/>
      <point x="100" y="16" type="curve" smooth="yes"/>
      <point x="100" y="284" type="line"/>
      <point x="100" y="288" type="line"/>
      <point x="100" y="410" type="line" smooth="yes"/>
      <point x="100" y="454"/>
      <point x="93" y="490"/>
      <point x="49" y="490" type="curve" smooth="yes"/>
      <point x="38" y="490"/>
      <point x="31" y="497"/>
      <point x="31" y="508" type="curve" smooth="yes"/>
      <point x="31" y="519"/>
      <point x="38" y="526"/>
      <point x="49" y="526" type="curve" smooth="yes"/>
      <point x="88" y="526"/>
      <point x="111" y="508"/>
      <point x="123" y="479" type="curve"/>
      <point x="146" y="508"/>
      <point x="178" y="526"/>
      <point x="217" y="526" type="curve" smooth="yes"/>
      <point x="258" y="526"/>
      <point x="295" y="504"/>
      <point x="316" y="471" type="curve"/>
      <point x="336" y="504"/>
      <point x="372" y="526"/>
      <point x="415" y="526" type="curve" smooth="yes"/>
    </contour>
  </outline>
</glyph>
<glyph name="n" format="1">
  <advance width="354"/>
  <unicode hex="006E"/>
  <outline>
    <contour>
      <point x="260" y="493" type="qcurve" smooth="yes"/>
      <point x="294" y="459"/>
      <point x="294" y="411" type="qcurve" smooth="yes"/>
      <point x="294" y="18" type="line" smooth="yes"/>
      <point x="294" y="0"/>
      <point x="258" y="0"/>
      <point x="258" y="18" type="qcurve" smooth="yes"/>
      <point x="258" y="411" type="line" smooth="yes"/>
      <point x="258" y="444"/>
      <point x="211" y="491"/>
      <point x="178" y="491" type="qcurve" smooth="yes"/>
      <point x="144" y="491"/>
      <point x="97" y="444"/>
      <point x="97" y="411" type="qcurve" smooth="yes"/>
      <point x="97" y="18" type="line" smooth="yes"/>
      <point x="97" y="0"/>
      <point x="61" y="0"/>
      <point x="61" y="18" type="qcurve" smooth="yes"/>
      <point x="61" y="285" type="line"/>
      <point x="61" y="289" type="line"/>
      <point x="61" y="411" type="line" smooth="yes"/>
      <point x="61" y="452"/>
      <point x="85" y="480" type="qcurve" smooth="yes"/>
      <point x="119" y="527"/>
      <point x="178" y="527" type="qcurve" smooth="yes"/>
      <point x="226" y="527"/>
    </contour>
    <contour>
      <point x="97" y="388" type="line"/>
      <point x="61" y="388" type="line"/>
      <point x="62" y="508" type="line" smooth="yes"/>
      <point x="62" y="527"/>
      <point x="98" y="527"/>
      <point x="98" y="508" type="qcurve" smooth="yes"/>
    </contour>
  </outline>
</glyph>
<glyph name="o" format="1">
  <advance width="348"/>
  <unicode hex="006F"/>
  <outline>
    <contour>
      <point x="173" y="-12" type="qcurve" smooth="yes"/>
      <point x="149" y="-12"/>
      <point x="106" y="7"/>
      <point x="75" y="38"/>
      <point x="56" y="81"/>
      <point x="56" y="105" type="qcurve" smooth="yes"/>
      <point x="56" y="409" type="line" smooth="yes"/>
      <point x="56" y="433"/>
      <point x="75" y="486"/>
      <point x="106" y="518"/>
      <point x="149" y="536"/>
      <point x="173" y="536" type="qcurve" smooth="yes"/>
      <point x="197" y="536"/>
      <point x="240" y="518"/>
      <point x="271" y="486"/>
      <point x="290" y="433"/>
      <point x="290" y="409" type="qcurve" smooth="yes"/>
      <point x="290" y="105" type="line" smooth="yes"/>
      <point x="290" y="81"/>
      <point x="271" y="38"/>
      <point x="240" y="7"/>
      <point x="197" y="-12"/>
    </contour>
    <contour>
      <point x="92" y="355" type="line"/>
      <point x="92" y="354" type="line"/>
      <point x="92" y="105" type="line" smooth="yes"/>
      <point x="92" y="72"/>
      <point x="140" y="24"/>
      <point x="173" y="24" type="qcurve" smooth="yes"/>
      <point x="206" y="24"/>
      <point x="254" y="72"/>
      <point x="254" y="105" type="qcurve" smooth="yes"/>
      <point x="254" y="409" type="line" smooth="yes"/>
      <point x="254" y="443"/>
      <point x="206" y="500"/>
      <point x="173" y="500" type="qcurve" smooth="yes"/>
      <point x="140" y="500"/>
      <point x="92" y="443"/>
      <point x="92" y="409" type="qcurve" smooth="yes"/>
    </contour>
  </outline>
</glyph>
<glyph name="p" format="2">
  <advance width="365"/>
  <unicode hex="0070"/>
  <outline>
    <contour>
      <point x="280" y="494" type="qcurve"/>
      <point x="314" y="458"/>
      <point x="314" y="411" type="qcurve" smooth="yes"/>
      <point x="314" y="116" type="line" smooth="yes"/>
      <point x="314" y="69"/>
      <point x="280" y="33" type="qcurve"/>
      <point x="246" y="-1"/>
      <point x="197" y="-1" type="qcurve" smooth="yes"/>
      <point x="150" y="-1"/>
      <point x="115" y="32" type="qcurve"/>
      <point x="79" y="508" type="line"/>
      <point x="79" y="527"/>
      <point x="115" y="527"/>
      <point x="115" y="508" type="qcurve" smooth="yes"/>
      <point x="115" y="495" type="line"/>
      <point x="153" y="528"/>
      <point x="197" y="528" type="qcurve" smooth="yes"/>
      <point x="244" y="528"/>
    </contour>
    <contour>
      <point x="278" y="411" type="line" smooth="yes"/>
      <point x="278" y="444"/>
      <point x="230" y="492"/>
      <point x="197" y="492" type="qcurve" smooth="yes"/>
      <point x="163" y="492"/>
      <point x="116" y="444"/>
      <point x="116" y="411" type="qcurve" smooth="yes"/>
      <point x="116" y="116" type="line" smooth="yes"/>
      <point x="116" y="82"/>
      <point x="163" y="35"/>
      <point x="197" y="35" type="qcurve" smooth="yes"/>
      <point x="230" y="35"/>
      <point x="278" y="82"/>
      <point x="278" y="116" type="qcurve" smooth="yes"/>
    </contour>
    <contour>
      <point x="116" y="172" type="line"/>
      <point x="116" y="-221" type="line" smooth="yes"/>
      <point x="116" y="-239"/>
      <point x="79.9753" y="-239"/>
      <point x="80" y="-221" type="qcurve" smooth="yes"/>
      <point x="81" y="509" type="line"/>
    </contour>
  </outline>
</glyph>
<glyph name="q" format="1">
  <advance width="340"/>
  <unicode hex="0071"/>
  <outline>
    <contour>
      <point x="268" y="-240" type="line"/>
      <point x="270" y="-204" type="line"/>
      <point x="295" y="-204" type="line" smooth="yes"/>
      <point x="307.667" y="-204"/>
      <point x="314" y="-210"/>
      <point x="314" y="-222" type="curve" smooth="yes"/>
      <point x="314" y="-234"/>
      <point x="307.667" y="-240"/>
      <point x="295" y="-240" type="curve" smooth="yes"/>
    </contour>
    <contour>
      <point x="287" y="509" type="line"/>
      <point x="287" y="-222" type="line" smooth="yes"/>
      <point x="287" y="-233"/>
      <point x="280" y="-240"/>
      <point x="269" y="-240" type="curve" smooth="yes"/>
      <point x="258" y="-240"/>
      <point x="250.985" y="-233"/>
      <point x="251" y="-222" type="curve" smooth="yes"/>
      <point x="252" y="508" type="line"/>
    </contour>
    <contour>
      <point x="252" y="21" type="line" smooth="yes"/>
      <point x="249.705" y="-9.97817"/>
      <point x="203" y="-12"/>
      <point x="171" y="-12" type="curve" smooth="yes"/>
      <point x="139" y="-12"/>
      <point x="109" y="1"/>
      <point x="88" y="22" type="curve" smooth="yes"/>
      <point x="67" y="43"/>
      <point x="53" y="73"/>
      <point x="53" y="105" type="curve" smooth="yes"/>
      <point x="53" y="410" type="line" smooth="yes"/>
      <point x="53" y="442"/>
      <point x="66.4942" y="482.518"/>
      <point x="88" y="503" type="curve" smooth="yes"/>
      <point x="109" y="523"/>
      <point x="139" y="537"/>
      <point x="171" y="537" type="curve" smooth="yes"/>
      <point x="202" y="537"/>
      <point x="231" y="527"/>
      <point x="252" y="494" type="curve"/>
      <point x="252" y="507" type="line" smooth="yes"/>
      <point x="252" y="518"/>
      <point x="259" y="526"/>
      <point x="270" y="526" type="curve" smooth="yes"/>
      <point x="281" y="526"/>
      <point x="288.816" y="518.014"/>
      <point x="288" y="507" type="curve" smooth="yes"/>
    </contour>
    <contour>
      <point x="251" y="410" type="line" smooth="yes"/>
      <point x="251" y="454"/>
      <point x="215" y="501"/>
      <point x="171" y="501" type="curve" smooth="yes"/>
      <point x="126" y="501"/>
      <point x="90" y="454"/>
      <point x="90" y="410" type="curve" smooth="yes"/>
      <point x="90" y="105" type="line" smooth="yes"/>
      <point x="90" y="60"/>
      <point x="126" y="24"/>
      <point x="171" y="24" type="curve" smooth="yes"/>
      <point x="215" y="24"/>
      <point x="251" y="60"/>
      <point x="251" y="105" type="curve" smooth="yes"/>
      <point x="251" y="355" type="line"/>
      <point x="251" y="356" type="line"/>
    </contour>
  </outline>
</glyph>
<glyph name="r" format="2">
  <advance width="227"/>
  <unicode hex="0072"/>
  <outline>
    <contour>
      <point x="192" y="507" type="qcurve" smooth="yes"/>
      <point x="192" y="489"/>
      <point x="174" y="489" type="qcurve" smooth="yes"/>
      <point x="141" y="489"/>
      <point x="94" y="443"/>
      <point x="94" y="410" type="qcurve" smooth="yes"/>
      <point x="94" y="17" type="line" smooth="yes"/>
      <point x="94" y="-1"/>
      <point x="58" y="-1"/>
      <point x="58" y="17" type="qcurve" smooth="yes"/>
      <point x="58" y="410" type="line" smooth="yes"/>
      <point x="58" y="457"/>
      <point x="126" y="525"/>
      <point x="174" y="525" type="qcurve" smooth="yes"/>
      <point x="192" y="525"/>
    </contour>
  </outline>
</glyph>
<glyph name="s" format="2">
  <advance width="321"/>
  <unicode hex="0073"/>
  <outline>
    <contour>
      <point x="78" y="136" type="line"/>
      <point x="78" y="116" type="line" smooth="yes"/>
      <point x="78" y="82"/>
      <point x="126" y="26"/>
      <point x="158" y="26" type="qcurve" smooth="yes"/>
      <point x="191" y="26"/>
      <point x="239" y="82"/>
      <point x="239" y="116" type="qcurve"/>
      <point x="241" y="181" type="line"/>
      <point x="241" y="213"/>
      <point x="208" y="249"/>
      <point x="185" y="251" type="qcurve"/>
      <point x="124" y="251" type="line" smooth="yes"/>
      <point x="89" y="251"/>
      <point x="63.3938" y="278.74" type="qcurve" smooth="yes"/>
      <point x="41" y="303"/>
      <point x="41" y="332" type="qcurve" smooth="yes"/>
      <point x="41" y="420" type="line" smooth="yes"/>
      <point x="41" y="467"/>
      <point x="75" y="503" type="qcurve"/>
      <point x="109" y="537"/>
      <point x="158" y="537" type="qcurve" smooth="yes"/>
      <point x="208" y="537"/>
      <point x="240" y="503" type="qcurve"/>
      <point x="275" y="468"/>
      <point x="275" y="420" type="qcurve" smooth="yes"/>
      <point x="275" y="396" type="line"/>
      <point x="239" y="396" type="line"/>
      <point x="239" y="420" type="line" smooth="yes"/>
      <point x="239" y="454"/>
      <point x="192" y="501"/>
      <point x="158" y="501" type="qcurve" smooth="yes"/>
      <point x="125" y="501"/>
      <point x="76" y="453"/>
      <point x="76" y="420" type="qcurve" smooth="yes"/>
      <point x="76" y="387" type="line"/>
      <point x="76" y="364" type="line"/>
      <point x="76" y="345" type="line"/>
      <point x="76" y="326" type="line" smooth="yes"/>
      <point x="76" y="311"/>
      <point x="107" y="287"/>
      <point x="129" y="287" type="qcurve" smooth="yes"/>
      <point x="189" y="287" type="line"/>
      <point x="273" y="277"/>
      <point x="275" y="180" type="qcurve"/>
      <point x="275" y="116" type="line" smooth="yes"/>
      <point x="275" y="57"/>
      <point x="241" y="23" type="qcurve"/>
      <point x="205" y="-11"/>
      <point x="111" y="-11"/>
      <point x="75" y="23" type="qcurve"/>
      <point x="41" y="59"/>
      <point x="41" y="116" type="qcurve" smooth="yes"/>
      <point x="41" y="136" type="line"/>
    </contour>
  </outline>
</glyph>
<glyph name="t" format="1">
  <advance width="297"/>
  <unicode hex="0074"/>
  <outline>
    <contour>
      <point x="252" y="18" type="curve" smooth="yes"/>
      <point x="252" y="6"/>
      <point x="246" y="0"/>
      <point x="234" y="0" type="curve" smooth="yes"/>
      <point x="202" y="0"/>
      <point x="174.333" y="11.6667"/>
      <point x="151" y="35" type="curve" smooth="yes"/>
      <point x="127.667" y="57"/>
      <point x="116" y="84.3333"/>
      <point x="116" y="117" type="curve" smooth="yes"/>
      <point x="116" y="475" type="line"/>
      <point x="50" y="475" type="line" smooth="yes"/>
      <point x="37.3333" y="475"/>
      <point x="31" y="481"/>
      <point x="31" y="493" type="curve" smooth="yes"/>
      <point x="31" y="505"/>
      <point x="37.3333" y="511"/>
      <point x="50" y="511" type="curve" smooth="yes"/>
      <point x="116" y="511" type="line"/>
      <point x="116" y="703" type="line" smooth="yes"/>
      <point x="116" y="715"/>
      <point x="122.333" y="721"/>
      <point x="135" y="721" type="curve" smooth="yes"/>
      <point x="147" y="721"/>
      <point x="153" y="715"/>
      <point x="153" y="703" type="curve" smooth="yes"/>
      <point x="153" y="512" type="line"/>
      <point x="153" y="475" type="line"/>
      <point x="153" y="117" type="line" smooth="yes"/>
      <point x="153" y="95"/>
      <point x="160.833" y="76"/>
      <point x="176.5" y="60" type="curve" smooth="yes"/>
      <point x="192.167" y="44"/>
      <point x="211.333" y="36"/>
      <point x="234" y="36" type="curve" smooth="yes"/>
      <point x="246" y="36"/>
      <point x="252" y="30"/>
    </contour>
    <contour>
      <point x="136" y="475" type="line"/>
      <point x="138" y="511" type="line"/>
      <point x="225" y="511" type="line" smooth="yes"/>
      <point x="237.667" y="511"/>
      <point x="244" y="505"/>
      <point x="244" y="493" type="curve" smooth="yes"/>
      <point x="244" y="481"/>
      <point x="237.667" y="475"/>
      <point x="225" y="475" type="curve" smooth="yes"/>
    </contour>
  </outline>
</glyph>
<glyph name="u" format="1">
  <advance width="350"/>
  <unicode hex="0075"/>
  <outline>
    <contour>
      <point x="296" y="119" type="line"/>
      <point x="260" y="119" type="line"/>
      <point x="259.5" y="80.5" type="line" smooth="yes"/>
      <point x="259.123" y="51.5062"/>
      <point x="260" y="48" type="qcurve" smooth="yes"/>
      <point x="261" y="30"/>
      <point x="260.5" y="16.5" type="qcurve" smooth="yes"/>
      <point x="260" y="8"/>
      <point x="265.5" y="3" type="qcurve" smooth="yes"/>
      <point x="271" y="-3"/>
      <point x="278.5" y="-2.5" type="qcurve" smooth="yes"/>
      <point x="286" y="-2"/>
      <point x="291.272" y="2.79249" type="qcurve" smooth="yes"/>
      <point x="297" y="8"/>
      <point x="296.5" y="16.5" type="qcurve" smooth="yes"/>
    </contour>
    <contour>
      <point x="272" y="36" type="qcurve"/>
      <point x="296" y="106" type="line" smooth="yes"/>
      <point x="296" y="237" type="line"/>
      <point x="296" y="239" type="line"/>
      <point x="296" y="499" type="line" smooth="yes"/>
      <point x="296" y="507"/>
      <point x="286" y="517"/>
      <point x="278" y="517" type="qcurve" smooth="yes"/>
      <point x="270" y="517"/>
      <point x="260" y="507"/>
      <point x="260" y="499" type="qcurve" smooth="yes"/>
      <point x="260" y="106" type="line" smooth="yes"/>
      <point x="260" y="73"/>
      <point x="213" y="26"/>
      <point x="180" y="26" type="qcurve" smooth="yes"/>
      <point x="146" y="26"/>
      <point x="100" y="73"/>
      <point x="100" y="106" type="qcurve" smooth="yes"/>
      <point x="100" y="499" type="line" smooth="yes"/>
      <point x="100" y="507"/>
      <point x="89" y="517"/>
      <point x="82" y="517" type="qcurve" smooth="yes"/>
      <point x="74" y="517"/>
      <point x="64" y="507"/>
      <point x="64" y="499" type="qcurve" smooth="yes"/>
      <point x="64" y="106" type="line" smooth="yes"/>
      <point x="64" y="82"/>
      <point x="82" y="40"/>
      <point x="114" y="8"/>
      <point x="156" y="-10"/>
      <point x="180" y="-10" type="qcurve" smooth="yes"/>
      <point x="209" y="-10"/>
      <point x="256" y="15"/>
    </contour>
  </outline>
</glyph>
<glyph name="v" format="1">
  <advance width="342"/>
  <unicode hex="0076"/>
  <outline>
    <contour>
      <point x="289" y="421" type="line"/>
      <point x="291" y="397" type="line"/>
      <point x="182" y="11" type="line" smooth="yes"/>
      <point x="180" y="3.66667"/>
      <point x="173.667" y="0"/>
      <point x="163" y="0" type="curve" smooth="yes"/>
      <point x="154.333" y="0"/>
      <point x="148.667" y="3.66667"/>
      <point x="146" y="11" type="curve" smooth="yes"/>
      <point x="44" y="393" type="line" smooth="yes"/>
      <point x="44" y="397"/>
      <point x="49.1667" y="401.667"/>
      <point x="59.5" y="407" type="curve" smooth="yes"/>
      <point x="69.8333" y="412.333"/>
      <point x="75.6667" y="411.667"/>
      <point x="77" y="405" type="curve" smooth="yes"/>
      <point x="165" y="83" type="line"/>
      <point x="257" y="408" type="line"/>
    </contour>
    <contour>
      <point x="290" y="395" type="line"/>
      <point x="256" y="406" type="line"/>
      <point x="266" y="440" type="line" smooth="yes"/>
      <point x="270" y="453.333"/>
      <point x="273.333" y="464"/>
      <point x="276" y="472" type="curve" smooth="yes"/>
      <point x="276" y="472"/>
      <point x="276" y="472"/>
      <point x="285" y="501" type="curve" smooth="yes"/>
      <point x="289" y="513"/>
      <point x="296.667" y="517.333"/>
      <point x="308" y="514" type="curve" smooth="yes"/>
      <point x="319.333" y="510.667"/>
      <point x="323.667" y="503"/>
      <point x="321" y="491" type="curve" smooth="yes"/>
    </contour>
    <contour>
      <point x="12" y="492" type="line" smooth="yes"/>
      <point x="9.33333" y="504"/>
      <point x="13.6667" y="511.667"/>
      <point x="25" y="515" type="curve" smooth="yes"/>
      <point x="36.3333" y="518.333"/>
      <point x="44" y="514"/>
      <point x="48" y="502" type="curve" smooth="yes"/>
      <point x="57" y="473"/>
      <point x="57" y="473"/>
      <point x="57" y="473" type="curve" smooth="yes"/>
      <point x="59.6667" y="465"/>
      <point x="63" y="454.333"/>
      <point x="67" y="441" type="curve" smooth="yes"/>
      <point x="76" y="408" type="line"/>
      <point x="43" y="396" type="line"/>
    </contour>
  </outline>
</glyph>
<glyph name="w" format="1">
  <advance width="561"/>
  <unicode hex="0077"/>
  <outline>
    <contour>
      <point x="291" y="404" type="line"/>
      <point x="291" y="397" type="line"/>
      <point x="182" y="11" type="line" smooth="yes"/>
      <point x="180" y="3.66667"/>
      <point x="173.667" y="0"/>
      <point x="163" y="0" type="curve" smooth="yes"/>
      <point x="154.333" y="0"/>
      <point x="148.667" y="3.66667"/>
      <point x="146" y="11" type="curve" smooth="yes"/>
      <point x="64" y="393" type="line" smooth="yes"/>
      <point x="64" y="397"/>
      <point x="69.1667" y="401.667"/>
      <point x="79.5" y="407" type="curve" smooth="yes"/>
      <point x="89.8333" y="412.333"/>
      <point x="95.6667" y="411.667"/>
      <point x="97" y="405" type="curve" smooth="yes"/>
      <point x="165" y="83" type="line"/>
      <point x="259" y="406" type="line"/>
    </contour>
    <contour>
      <point x="38" y="492" type="line" smooth="yes"/>
      <point x="36" y="504"/>
      <point x="40.8333" y="511.333"/>
      <point x="52.5" y="514" type="curve" smooth="yes"/>
      <point x="64.1667" y="516.667"/>
      <point x="71.6667" y="512"/>
      <point x="75" y="500" type="curve" smooth="yes"/>
      <point x="82" y="471"/>
      <point x="82" y="471"/>
      <point x="82" y="471" type="curve" smooth="yes"/>
      <point x="84" y="462.333"/>
      <point x="86.6667" y="451.333"/>
      <point x="90" y="438" type="curve" smooth="yes"/>
      <point x="97" y="405" type="line"/>
      <point x="64" y="394" type="line"/>
    </contour>
    <contour>
      <point x="484" y="420" type="line"/>
      <point x="486" y="396" type="line"/>
      <point x="397" y="10" type="line" smooth="yes"/>
      <point x="395" y="2.66667"/>
      <point x="388.667" y="-1"/>
      <point x="378" y="-1" type="curve" smooth="yes"/>
      <point x="369.333" y="-1"/>
      <point x="363.667" y="2.66667"/>
      <point x="361" y="10" type="curve" smooth="yes"/>
      <point x="259" y="392" type="line" smooth="yes"/>
      <point x="255.667" y="412"/>
      <point x="260.167" y="422.333"/>
      <point x="272.5" y="423" type="curve" smooth="yes"/>
      <point x="284.833" y="423.667"/>
      <point x="291.333" y="417.333"/>
      <point x="292" y="404" type="curve"/>
      <point x="380" y="82" type="line"/>
      <point x="452" y="407" type="line"/>
    </contour>
    <contour>
      <point x="486" y="394" type="line"/>
      <point x="451" y="403" type="line"/>
      <point x="460" y="438" type="line" smooth="yes"/>
      <point x="465" y="458"/>
      <point x="465" y="458"/>
      <point x="468" y="470" type="curve" smooth="yes"/>
      <point x="468" y="470"/>
      <point x="468" y="470"/>
      <point x="476" y="499" type="curve" smooth="yes"/>
      <point x="479.333" y="511.667"/>
      <point x="486.833" y="516.5"/>
      <point x="498.5" y="513.5" type="curve" smooth="yes"/>
      <point x="510.167" y="510.5"/>
      <point x="514.667" y="503"/>
      <point x="512" y="491" type="curve" smooth="yes"/>
    </contour>
  </outline>
</glyph>
<glyph name="x" format="1">
  <advance width="394"/>
  <unicode hex="0078"/>
  <outline>
    <contour>
      <point x="215" y="276" type="line"/>
      <point x="327" y="443" type="line"/>
      <point x="321" y="449"/>
      <point x="315" y="439"/>
      <point x="310" y="463" type="qcurve"/>
      <point x="194" y="310" type="line"/>
      <point x="85" y="438" type="line" smooth="yes"/>
      <point x="70" y="450"/>
      <point x="69" y="512"/>
      <point x="60" y="477"/>
      <point x="78" y="443" type="qcurve" smooth="yes"/>
      <point x="173" y="276" type="line"/>
      <point x="34" y="28" type="line" smooth="yes"/>
      <point x="23" y="15"/>
      <point x="38" y="2" type="qcurve" smooth="yes"/>
      <point x="52" y="-7"/>
      <point x="63" y="6" type="qcurve" smooth="yes"/>
      <point x="194" y="241" type="line"/>
      <point x="329" y="6" type="line" smooth="yes"/>
      <point x="340" y="-7"/>
      <point x="354" y="2" type="qcurve" smooth="yes"/>
      <point x="369" y="15"/>
      <point x="358" y="28" type="qcurve" smooth="yes"/>
    </contour>
    <contour>
      <point x="173" y="271" type="line"/>
      <point x="213" y="271" type="line"/>
      <point x="359" y="486" type="line" smooth="yes"/>
      <point x="370" y="499"/>
      <point x="355" y="512" type="qcurve" smooth="yes"/>
      <point x="341" y="521"/>
      <point x="330" y="508" type="qcurve" smooth="yes"/>
      <point x="194" y="306" type="line"/>
      <point x="68" y="508" type="line" smooth="yes"/>
      <point x="57" y="521"/>
      <point x="43" y="512" type="qcurve" smooth="yes"/>
      <point x="28" y="499"/>
      <point x="39" y="486" type="qcurve" smooth="yes"/>
    </contour>
  </outline>
</glyph>
<glyph name="y" format="1">
  <advance width="353"/>
  <unicode hex="0079"/>
  <outline>
    <contour>
      <point x="286" y="-118" type="line"/>
      <point x="285" y="-119" type="line"/>
      <point x="285" y="-151"/>
      <point x="271" y="-181"/>
      <point x="251" y="-202" type="curve" smooth="yes"/>
      <point x="230" y="-223"/>
      <point x="200" y="-236"/>
      <point x="168" y="-236" type="curve" smooth="yes"/>
      <point x="136" y="-236"/>
      <point x="106" y="-223"/>
      <point x="86" y="-202" type="curve" smooth="yes"/>
      <point x="65" y="-181"/>
      <point x="51" y="-151"/>
      <point x="51" y="-119" type="curve" smooth="yes"/>
      <point x="51" y="-95" type="line"/>
      <point x="56" y="-75"/>
      <point x="76" y="-71"/>
      <point x="87" y="-95" type="curve"/>
      <point x="87" y="-119" type="line" smooth="yes"/>
      <point x="87" y="-164"/>
      <point x="123" y="-200"/>
      <point x="168" y="-200" type="curve" smooth="yes"/>
      <point x="212" y="-200"/>
      <point x="249" y="-165"/>
      <point x="249" y="-118" type="curve" smooth="yes"/>
      <point x="249" y="32" type="line"/>
      <point x="228" y="12"/>
      <point x="200" y="0"/>
      <point x="169" y="0" type="curve" smooth="yes"/>
      <point x="137" y="0"/>
      <point x="108" y="13"/>
      <point x="87" y="34" type="curve" smooth="yes"/>
      <point x="66" y="55"/>
      <point x="53" y="84"/>
      <point x="53" y="116" type="curve" smooth="yes"/>
      <point x="53" y="507" type="line" smooth="yes"/>
      <point x="53" y="518"/>
      <point x="60" y="525"/>
      <point x="71" y="525" type="curve" smooth="yes"/>
      <point x="82" y="525"/>
      <point x="89" y="518"/>
      <point x="89" y="507" type="curve" smooth="yes"/>
      <point x="89" y="116" type="line" smooth="yes"/>
      <point x="89" y="72"/>
      <point x="125" y="36"/>
      <point x="169" y="36" type="curve" smooth="yes"/>
      <point x="213" y="36"/>
      <point x="249" y="72"/>
      <point x="249" y="116" type="curve" smooth="yes"/>
      <point x="249" y="507" type="line"/>
      <point x="249" y="508" type="line"/>
      <point x="249" y="510" type="line"/>
      <point x="250" y="520"/>
      <point x="256" y="525"/>
      <point x="267" y="525" type="curve" smooth="yes"/>
      <point x="277" y="525"/>
      <point x="283" y="520"/>
      <point x="284" y="510" type="curve"/>
      <point x="284" y="509"/>
      <point x="284" y="509"/>
      <point x="285" y="509" type="curve"/>
      <point x="285" y="509"/>
      <point x="285" y="509"/>
      <point x="285" y="508" type="curve" smooth="yes"/>
      <point x="285" y="507" type="line"/>
      <point x="285" y="-118" type="line"/>
    </contour>
  </outline>
</glyph>
<glyph name="z" format="1">
  <advance width="342"/>
  <unicode hex="007A"/>
  <outline>
    <contour>
      <point x="272" y="103" type="qcurve" smooth="yes"/>
      <point x="280" y="103"/>
      <point x="290" y="92"/>
      <point x="290" y="84" type="qcurve" smooth="yes"/>
      <point x="290" y="40"/>
      <point x="251" y="0"/>
      <point x="206" y="0" type="qcurve" smooth="yes"/>
      <point x="73" y="0" type="line"/>
      <point x="69" y="0" type="line" smooth="yes"/>
      <point x="63" y="2"/>
      <point x="60" y="5" type="qcurve" smooth="yes"/>
      <point x="56" y="9"/>
      <point x="56" y="16" type="qcurve"/>
      <point x="55" y="16"/>
      <point x="55" y="18" type="qcurve" smooth="yes"/>
      <point x="55" y="24"/>
      <point x="57" y="28" type="qcurve" smooth="yes"/>
      <point x="57" y="30"/>
      <point x="58" y="30" type="qcurve" smooth="yes"/>
      <point x="244" y="481" type="line"/>
      <point x="141" y="481" type="line" smooth="yes"/>
      <point x="112" y="481"/>
      <point x="92" y="462"/>
      <point x="92" y="433" type="qcurve" smooth="yes"/>
      <point x="92" y="425"/>
      <point x="82" y="414"/>
      <point x="74" y="414" type="qcurve" smooth="yes"/>
      <point x="66" y="414"/>
      <point x="56" y="425"/>
      <point x="56" y="433" type="qcurve" smooth="yes"/>
      <point x="56" y="477"/>
      <point x="96" y="517"/>
      <point x="141" y="517" type="qcurve" smooth="yes"/>
      <point x="270" y="517" type="line" smooth="yes"/>
      <point x="278" y="517"/>
      <point x="288" y="507"/>
      <point x="288" y="499" type="qcurve" smooth="yes"/>
      <point x="288" y="494"/>
      <point x="285" y="490" type="qcurve" smooth="yes"/>
      <point x="97" y="36" type="line"/>
      <point x="206" y="36" type="line" smooth="yes"/>
      <point x="235" y="36"/>
      <point x="254" y="55"/>
      <point x="254" y="84" type="qcurve" smooth="yes"/>
      <point x="254" y="92"/>
      <point x="264" y="103"/>
    </contour>
  </outline>
</glyph>
<glyph name="braceleft" format="1">
  <advance width="264"/>
  <unicode hex="007B"/>
  <outline>
    <contour>
      <point x="121" y="432" type="qcurve"/>
      <point x="121" y="773" type="line"/>
      <point x="210" y="773" type="line" smooth="yes"/>
      <point x="218" y="773"/>
      <point x="229" y="759"/>
      <point x="229" y="749" type="qcurve" smooth="yes"/>
      <point x="229" y="739"/>
      <point x="218" y="725"/>
      <point x="210" y="725" type="qcurve" smooth="yes"/>
      <point x="159" y="725" type="line"/>
      <point x="159" y="425" type="line"/>
      <point x="155" y="420" type="line"/>
      <point x="121" y="374" type="line"/>
      <point x="81" y="321" type="line"/>
      <point x="121" y="268" type="line"/>
      <point x="155" y="224" type="line"/>
      <point x="159" y="218" type="line"/>
      <point x="159" y="-84" type="line"/>
      <point x="210" y="-84" type="line" smooth="yes"/>
      <point x="218" y="-84"/>
      <point x="229" y="-98"/>
      <point x="229" y="-108" type="qcurve" smooth="yes"/>
      <point x="229" y="-118"/>
      <point x="218" y="-132"/>
      <point x="210" y="-132" type="qcurve" smooth="yes"/>
      <point x="121" y="-132" type="line"/>
      <point x="121" y="209" type="line"/>
      <point x="96" y="234"/>
      <point x="77" y="256" type="qcurve" smooth="yes"/>
      <point x="60" y="275"/>
      <point x="33" y="311"/>
      <point x="33" y="321" type="qcurve" smooth="yes"/>
      <point x="33" y="330"/>
      <point x="60" y="366"/>
      <point x="77" y="385" type="qcurve" smooth="yes"/>
      <point x="96" y="407"/>
    </contour>
  </outline>
</glyph>
<glyph name="bar" format="1">
  <advance width="201"/>
  <unicode hex="007C"/>
  <outline>
    <contour>
      <point x="99" y="732"/>
      <point x="107" y="724"/>
      <point x="107" y="713" type="curve" smooth="yes"/>
      <point x="107" y="614" type="line"/>
      <point x="107" y="118" type="line"/>
      <point x="107" y="19" type="line" smooth="yes"/>
      <point x="107" y="8"/>
      <point x="99" y="0"/>
      <point x="88" y="0" type="curve" smooth="yes"/>
      <point x="75" y="0"/>
      <point x="69" y="6"/>
      <point x="69" y="19" type="curve" smooth="yes"/>
      <point x="69" y="118" type="line"/>
      <point x="69" y="614" type="line"/>
      <point x="69" y="713" type="line" smooth="yes"/>
      <point x="69" y="724"/>
      <point x="77" y="732"/>
      <point x="88" y="732" type="curve" smooth="yes"/>
    </contour>
  </outline>
</glyph>
<glyph name="braceright" format="1">
  <advance width="287"/>
  <unicode hex="007D"/>
  <outline>
    <contour>
      <point x="191" y="399"/>
      <point x="215" y="372"/>
      <point x="233" y="348" type="curve" smooth="yes"/>
      <point x="242" y="336"/>
      <point x="246" y="327"/>
      <point x="246" y="321" type="curve" smooth="yes"/>
      <point x="246" y="308"/>
      <point x="225" y="281"/>
      <point x="202" y="256" type="curve" smooth="yes"/>
      <point x="189" y="241"/>
      <point x="175" y="226"/>
      <point x="158" y="209" type="curve"/>
      <point x="158" y="-132" type="line"/>
      <point x="69" y="-132" type="line" smooth="yes"/>
      <point x="58" y="-132"/>
      <point x="50" y="-121"/>
      <point x="50" y="-108" type="curve" smooth="yes"/>
      <point x="50" y="-95"/>
      <point x="58" y="-84"/>
      <point x="69" y="-84" type="curve" smooth="yes"/>
      <point x="120" y="-84" type="line"/>
      <point x="120" y="218" type="line"/>
      <point x="124" y="224" type="line"/>
      <point x="158" y="268" type="line"/>
      <point x="198" y="321" type="line"/>
      <point x="158" y="374" type="line"/>
      <point x="124" y="420" type="line"/>
      <point x="120" y="425" type="line"/>
      <point x="120" y="725" type="line"/>
      <point x="69" y="725" type="line" smooth="yes"/>
      <point x="58" y="725"/>
      <point x="50" y="736"/>
      <point x="50" y="749" type="curve" smooth="yes"/>
      <point x="50" y="762"/>
      <point x="58" y="773"/>
      <point x="69" y="773" type="curve" smooth="yes"/>
      <point x="158" y="773" type="line"/>
      <point x="158" y="432" type="line"/>
    </contour>
  </outline>
</glyph>
<glyph name="asciitilde" format="1">
  <advance width="407"/>
  <unicode hex="007E"/>
  <outline>
    <contour>
      <point x="45" y="398"/>
      <point x="60" y="418"/>
      <point x="79" y="423" type="curve" smooth="yes"/>
      <point x="108" y="431"/>
      <point x="139" y="428"/>
      <point x="169" y="420" type="curve" smooth="yes"/>
      <point x="184" y="416"/>
      <point x="198" y="411"/>
      <point x="213" y="406" type="curve" smooth="yes"/>
      <point x="228" y="401"/>
      <point x="243" y="396"/>
      <point x="258" y="393" type="curve"/>
      <point x="241" y="397"/>
      <point x="224" y="402"/>
      <point x="208" y="408" type="curve" smooth="yes"/>
      <point x="191" y="414"/>
      <point x="175" y="419"/>
      <point x="158" y="422" type="curve"/>
      <point x="173" y="419"/>
      <point x="188" y="414"/>
      <point x="203" y="409" type="curve" smooth="yes"/>
      <point x="233" y="398"/>
      <point x="263" y="390"/>
      <point x="292" y="388" type="curve" smooth="yes"/>
      <point x="307" y="387"/>
      <point x="321" y="388"/>
      <point x="336" y="392" type="curve"/>
      <point x="345" y="395"/>
      <point x="353" y="396"/>
      <point x="360" y="396" type="curve"/>
      <point x="367" y="395"/>
      <point x="370" y="392"/>
      <point x="370" y="386" type="curve" smooth="yes"/>
      <point x="370" y="375"/>
      <point x="355" y="356"/>
      <point x="336" y="349" type="curve"/>
      <point x="307" y="341"/>
      <point x="278" y="345"/>
      <point x="248" y="353" type="curve" smooth="yes"/>
      <point x="233" y="357"/>
      <point x="218" y="362"/>
      <point x="203" y="367" type="curve" smooth="yes"/>
      <point x="188" y="372"/>
      <point x="173" y="377"/>
      <point x="158" y="380" type="curve"/>
      <point x="175" y="376"/>
      <point x="191" y="371"/>
      <point x="208" y="365" type="curve" smooth="yes"/>
      <point x="224" y="359"/>
      <point x="241" y="354"/>
      <point x="258" y="350" type="curve"/>
      <point x="243" y="353"/>
      <point x="228" y="358"/>
      <point x="213" y="363" type="curve"/>
      <point x="184" y="374"/>
      <point x="154" y="382"/>
      <point x="124" y="385" type="curve" smooth="yes"/>
      <point x="109" y="386"/>
      <point x="94" y="385"/>
      <point x="79" y="381" type="curve"/>
      <point x="70" y="378"/>
      <point x="62" y="377"/>
      <point x="55" y="378" type="curve"/>
      <point x="48" y="378"/>
      <point x="45" y="381"/>
      <point x="45" y="386" type="curve" smooth="yes"/>
    </contour>
  </outline>
</glyph>
<glyph name="cent" format="1">
  <advance width="311"/>
  <unicode hex="00A2"/>
  <outline>
    <contour>
      <point x="236" y="390" type="line"/>
      <point x="236" y="412" type="line" smooth="yes"/>
      <point x="236" y="446"/>
      <point x="189" y="493"/>
      <point x="121" y="493"/>
      <point x="74" y="446"/>
      <point x="74" y="412" type="qcurve" smooth="yes"/>
      <point x="74" y="117" type="line" smooth="yes"/>
      <point x="74" y="84"/>
      <point x="121" y="36"/>
      <point x="189" y="36"/>
      <point x="236" y="84"/>
      <point x="236" y="117" type="qcurve" smooth="yes"/>
      <point x="236" y="140" type="line"/>
      <point x="272" y="140" type="line"/>
      <point x="272" y="117" type="line" smooth="yes"/>
      <point x="272" y="67"/>
      <point x="238" y="35" type="qcurve" smooth="yes"/>
      <point x="203" y="0"/>
      <point x="107" y="0"/>
      <point x="72" y="35" type="qcurve" smooth="yes"/>
      <point x="38" y="67"/>
      <point x="38" y="117" type="qcurve" smooth="yes"/>
      <point x="38" y="412" type="line" smooth="yes"/>
      <point x="38" y="461"/>
      <point x="72" y="495" type="qcurve" smooth="yes"/>
      <point x="107" y="530"/>
      <point x="203" y="530"/>
      <point x="238" y="495" type="qcurve" smooth="yes"/>
      <point x="272" y="461"/>
      <point x="272" y="412" type="qcurve" smooth="yes"/>
      <point x="272" y="390" type="line"/>
    </contour>
    <contour>
      <point x="177" y="622" type="qcurve" smooth="yes"/>
      <point x="177" y="523" type="line"/>
      <point x="177" y="27" type="line"/>
      <point x="177" y="-72" type="line" smooth="yes"/>
      <point x="177" y="-91"/>
      <point x="139" y="-91"/>
      <point x="139" y="-72" type="qcurve" smooth="yes"/>
      <point x="139" y="27" type="line"/>
      <point x="139" y="523" type="line"/>
      <point x="139" y="622" type="line" smooth="yes"/>
      <point x="139" y="641"/>
      <point x="177" y="641"/>
    </contour>
  </outline>
</glyph>
<glyph name="sterling" format="1">
  <advance width="524"/>
  <unicode hex="00A3"/>
  <outline>
    <contour>
      <point x="466" y="137" type="qcurve" smooth="yes"/>
      <point x="474" y="137"/>
      <point x="486" y="125"/>
      <point x="486" y="117" type="qcurve" smooth="yes"/>
      <point x="486" y="92"/>
      <point x="467" y="49"/>
      <point x="435" y="17"/>
      <point x="392" y="-2"/>
      <point x="367" y="-2" type="qcurve" smooth="yes"/>
      <point x="232" y="-2" type="line"/>
      <point x="232" y="-23" type="line" smooth="yes"/>
      <point x="232" y="-31"/>
      <point x="220" y="-43"/>
      <point x="212" y="-43" type="qcurve" smooth="yes"/>
      <point x="204" y="-43"/>
      <point x="192" y="-31"/>
      <point x="192" y="-23" type="qcurve" smooth="yes"/>
      <point x="192" y="-2" type="line"/>
      <point x="121" y="-2" type="line" smooth="yes"/>
      <point x="113" y="-2"/>
      <point x="101" y="10"/>
      <point x="101" y="18" type="qcurve" smooth="yes"/>
      <point x="101" y="26"/>
      <point x="113" y="38"/>
      <point x="121" y="38" type="qcurve" smooth="yes"/>
      <point x="192" y="38" type="line"/>
      <point x="192" y="82" type="line"/>
      <point x="192" y="363" type="line"/>
      <point x="159" y="363" type="line" smooth="yes"/>
      <point x="126" y="363"/>
      <point x="80" y="317"/>
      <point x="80" y="285" type="qcurve" smooth="yes"/>
      <point x="80" y="276"/>
      <point x="68" y="265"/>
      <point x="60" y="265" type="qcurve" smooth="yes"/>
      <point x="52" y="265"/>
      <point x="40" y="276"/>
      <point x="40" y="285" type="qcurve" smooth="yes"/>
      <point x="40" y="309"/>
      <point x="59" y="352"/>
      <point x="91" y="384"/>
      <point x="134" y="403"/>
      <point x="159" y="403" type="qcurve" smooth="yes"/>
      <point x="192" y="403" type="line"/>
      <point x="192" y="608" type="line"/>
      <point x="192" y="623" type="line"/>
      <point x="159" y="623" type="line" smooth="yes"/>
      <point x="151" y="623"/>
      <point x="139" y="635"/>
      <point x="139" y="643" type="qcurve" smooth="yes"/>
      <point x="139" y="651"/>
      <point x="151" y="663"/>
      <point x="159" y="663" type="qcurve" smooth="yes"/>
      <point x="192" y="663" type="line"/>
      <point x="192" y="714" type="line" smooth="yes"/>
      <point x="192" y="722"/>
      <point x="204" y="734"/>
      <point x="212" y="734" type="qcurve" smooth="yes"/>
      <point x="220" y="734"/>
      <point x="232" y="722"/>
      <point x="232" y="714" type="qcurve" smooth="yes"/>
      <point x="232" y="663" type="line"/>
      <point x="306" y="663" type="line" smooth="yes"/>
      <point x="338" y="663"/>
      <point x="384" y="709"/>
      <point x="384" y="742" type="qcurve" smooth="yes"/>
      <point x="384" y="750"/>
      <point x="396" y="762"/>
      <point x="404" y="762" type="qcurve" smooth="yes"/>
      <point x="412" y="762"/>
      <point x="424" y="750"/>
      <point x="424" y="742" type="qcurve" smooth="yes"/>
      <point x="424" y="717"/>
      <point x="405" y="674"/>
      <point x="373" y="642"/>
      <point x="330" y="623"/>
      <point x="306" y="623" type="qcurve" smooth="yes"/>
      <point x="232" y="623" type="line"/>
      <point x="232" y="608" type="line"/>
      <point x="232" y="403" type="line"/>
      <point x="404" y="403" type="line" smooth="yes"/>
      <point x="412" y="403"/>
      <point x="424" y="391"/>
      <point x="424" y="383" type="qcurve" smooth="yes"/>
      <point x="424" y="375"/>
      <point x="412" y="363"/>
      <point x="404" y="363" type="qcurve" smooth="yes"/>
      <point x="232" y="363" type="line"/>
      <point x="232" y="82" type="line"/>
      <point x="232" y="38" type="line"/>
      <point x="367" y="38" type="line" smooth="yes"/>
      <point x="399" y="38"/>
      <point x="446" y="85"/>
      <point x="446" y="117" type="qcurve" smooth="yes"/>
      <point x="446" y="125"/>
      <point x="458" y="137"/>
    </contour>
  </outline>
</glyph>
<glyph name="currency" format="1">
  <advance width="604"/>
  <unicode hex="00A4"/>
  <outline>
    <contour>
      <point x="547" y="121" type="line" smooth="yes"/>
      <point x="552" y="116"/>
      <point x="554" y="111"/>
      <point x="554" y="105" type="curve" smooth="yes"/>
      <point x="554" y="93"/>
      <point x="544" y="82"/>
      <point x="532" y="82" type="curve" smooth="yes"/>
      <point x="525" y="82"/>
      <point x="520" y="84"/>
      <point x="516" y="89" type="curve"/>
      <point x="455" y="149" type="line"/>
      <point x="404" y="201" type="line"/>
      <point x="377" y="178"/>
      <point x="342" y="165"/>
      <point x="302" y="165" type="curve" smooth="yes"/>
      <point x="262" y="165"/>
      <point x="227" y="178"/>
      <point x="200" y="201" type="curve"/>
      <point x="130" y="131" type="line"/>
      <point x="88" y="89" type="line" smooth="yes"/>
      <point x="83" y="84"/>
      <point x="78" y="82"/>
      <point x="72" y="82" type="curve" smooth="yes"/>
      <point x="60" y="82"/>
      <point x="50" y="93"/>
      <point x="50" y="105" type="curve" smooth="yes"/>
      <point x="50" y="111"/>
      <point x="52" y="116"/>
      <point x="56" y="121" type="curve"/>
      <point x="117" y="181" type="line"/>
      <point x="171" y="236" type="line"/>
      <point x="162" y="253"/>
      <point x="157" y="270"/>
      <point x="157" y="289" type="curve" smooth="yes"/>
      <point x="157" y="459" type="line" smooth="yes"/>
      <point x="157" y="484"/>
      <point x="165" y="507"/>
      <point x="181" y="528" type="curve"/>
      <point x="180" y="529"/>
      <point x="180" y="529"/>
      <point x="179" y="530" type="curve"/>
      <point x="178" y="530"/>
      <point x="178" y="530"/>
      <point x="177" y="531" type="curve" smooth="yes"/>
      <point x="117" y="592" type="line"/>
      <point x="56" y="652" type="line"/>
      <point x="52" y="657"/>
      <point x="50" y="662"/>
      <point x="50" y="668" type="curve" smooth="yes"/>
      <point x="50" y="680"/>
      <point x="60" y="691"/>
      <point x="72" y="691" type="curve"/>
      <point x="78" y="690"/>
      <point x="83" y="688"/>
      <point x="88" y="684" type="curve"/>
      <point x="148" y="623" type="line"/>
      <point x="209" y="563" type="line" smooth="yes"/>
      <point x="210" y="562"/>
      <point x="212" y="560"/>
      <point x="213" y="557" type="curve"/>
      <point x="239" y="574"/>
      <point x="269" y="582"/>
      <point x="302" y="582" type="curve" smooth="yes"/>
      <point x="335" y="582"/>
      <point x="365" y="574"/>
      <point x="391" y="557" type="curve"/>
      <point x="392" y="560"/>
      <point x="394" y="562"/>
      <point x="395" y="563" type="curve" smooth="yes"/>
      <point x="455" y="623" type="line"/>
      <point x="516" y="684" type="line" smooth="yes"/>
      <point x="520" y="688"/>
      <point x="525" y="690"/>
      <point x="532" y="690" type="curve" smooth="yes"/>
      <point x="544" y="690"/>
      <point x="554" y="680"/>
      <point x="554" y="668" type="curve" smooth="yes"/>
      <point x="554" y="662"/>
      <point x="552" y="657"/>
      <point x="547" y="652" type="curve" smooth="yes"/>
      <point x="467" y="572" type="line"/>
      <point x="427" y="531" type="line" smooth="yes"/>
      <point x="426" y="530"/>
      <point x="425" y="529"/>
      <point x="422" y="528" type="curve"/>
      <point x="439" y="507"/>
      <point x="447" y="484"/>
      <point x="447" y="459" type="curve" smooth="yes"/>
      <point x="447" y="289" type="line" smooth="yes"/>
      <point x="447" y="270"/>
      <point x="442" y="253"/>
      <point x="433" y="236" type="curve"/>
      <point x="487" y="181" type="line"/>
    </contour>
    <contour>
      <point x="330" y="204"/>
      <point x="355" y="213"/>
      <point x="373" y="229" type="curve" smooth="yes"/>
      <point x="391" y="244"/>
      <point x="402" y="265"/>
      <point x="402" y="289" type="curve" smooth="yes"/>
      <point x="402" y="346" type="line"/>
      <point x="402" y="347" type="line"/>
      <point x="402" y="459" type="line" smooth="yes"/>
      <point x="402" y="483"/>
      <point x="391" y="504"/>
      <point x="373" y="520" type="curve" smooth="yes"/>
      <point x="355" y="535"/>
      <point x="330" y="544"/>
      <point x="302" y="544" type="curve" smooth="yes"/>
      <point x="274" y="544"/>
      <point x="250" y="535"/>
      <point x="232" y="520" type="curve" smooth="yes"/>
      <point x="214" y="504"/>
      <point x="202" y="483"/>
      <point x="202" y="459" type="curve" smooth="yes"/>
      <point x="202" y="289" type="line" smooth="yes"/>
      <point x="202" y="265"/>
      <point x="214" y="244"/>
      <point x="232" y="229" type="curve" smooth="yes"/>
      <point x="250" y="213"/>
      <point x="274" y="204"/>
      <point x="302" y="204" type="curve" smooth="yes"/>
    </contour>
  </outline>
</glyph>
<glyph name="yen" format="2">
  <advance width="586"/>
  <unicode hex="00A5"/>
  <outline>
    <contour>
      <point x="420" y="715" type="qcurve" smooth="yes"/>
      <point x="420" y="470" type="line" smooth="yes"/>
      <point x="420" y="425"/>
      <point x="362" y="357"/>
      <point x="317" y="349" type="qcurve"/>
      <point x="317" y="19" type="line" smooth="yes"/>
      <point x="317" y="0"/>
      <point x="279" y="0"/>
      <point x="279" y="19" type="qcurve" smooth="yes"/>
      <point x="279" y="349" type="line"/>
      <point x="234" y="357"/>
      <point x="176" y="425"/>
      <point x="176" y="470" type="qcurve" smooth="yes"/>
      <point x="176" y="715" type="line" smooth="yes"/>
      <point x="176" y="734"/>
      <point x="214" y="734"/>
      <point x="214" y="715" type="qcurve" smooth="yes"/>
      <point x="214" y="470" type="line" smooth="yes"/>
      <point x="214" y="434"/>
      <point x="239" y="411" type="qcurve"/>
      <point x="262" y="386"/>
      <point x="298" y="386" type="qcurve" smooth="yes"/>
      <point x="333" y="386"/>
      <point x="358" y="411" type="qcurve" smooth="yes"/>
      <point x="382" y="435"/>
      <point x="382" y="470" type="qcurve" smooth="yes"/>
      <point x="382" y="715" type="line" smooth="yes"/>
      <point x="382" y="734"/>
      <point x="420" y="734"/>
    </contour>
    <contour>
      <point x="53" y="284" type="qcurve" smooth="yes"/>
      <point x="122" y="284" type="line"/>
      <point x="462" y="284" type="line"/>
      <point x="530" y="284" type="line" smooth="yes"/>
      <point x="543" y="284"/>
      <point x="543" y="258"/>
      <point x="530" y="258" type="qcurve" smooth="yes"/>
      <point x="462" y="258" type="line"/>
      <point x="122" y="258" type="line"/>
      <point x="53" y="258" type="line" smooth="yes"/>
      <point x="40" y="258"/>
      <point x="40" y="284"/>
    </contour>
    <contour>
      <point x="53" y="168" type="qcurve" smooth="yes"/>
      <point x="122" y="168" type="line"/>
      <point x="462" y="168" type="line"/>
      <point x="530" y="168" type="line" smooth="yes"/>
      <point x="543" y="168"/>
      <point x="543" y="142"/>
      <point x="530" y="142" type="qcurve" smooth="yes"/>
      <point x="462" y="142" type="line"/>
      <point x="122" y="142" type="line"/>
      <point x="53" y="142" type="line" smooth="yes"/>
      <point x="40" y="142"/>
      <point x="40" y="168"/>
    </contour>
  </outline>
</glyph>
<glyph name="brokenbar" format="2">
  <advance width="198"/>
  <unicode hex="00A6"/>
  <outline>
    <contour>
      <point x="107" y="750" type="qcurve" smooth="yes"/>
      <point x="107" y="374" type="line"/>
      <point x="69" y="374" type="line"/>
      <point x="69" y="750" type="line" smooth="yes"/>
      <point x="69" y="760"/>
      <point x="80" y="773"/>
      <point x="96" y="773"/>
      <point x="107" y="760"/>
    </contour>
    <contour>
      <point x="69" y="280" type="line"/>
      <point x="107" y="280" type="line"/>
      <point x="107" y="-95" type="line" smooth="yes"/>
      <point x="107" y="-105"/>
      <point x="96" y="-118"/>
      <point x="80" y="-118"/>
      <point x="69" y="-105"/>
      <point x="69" y="-95" type="qcurve" smooth="yes"/>
    </contour>
  </outline>
</glyph>
<glyph name="section" format="1">
  <advance width="466"/>
  <unicode hex="00A7"/>
  <outline>
    <contour>
      <point x="402" y="736" type="line" smooth="yes"/>
      <point x="414" y="736"/>
      <point x="424" y="728"/>
      <point x="424" y="717" type="curve" smooth="yes"/>
      <point x="424" y="706"/>
      <point x="414" y="698"/>
      <point x="402" y="698" type="curve" smooth="yes"/>
      <point x="235" y="698" type="line" smooth="yes"/>
      <point x="187" y="698"/>
      <point x="149" y="666"/>
      <point x="149" y="625" type="curve" smooth="yes"/>
      <point x="149" y="588"/>
      <point x="184" y="556"/>
      <point x="228" y="553" type="curve"/>
      <point x="235" y="553" type="line" smooth="yes"/>
      <point x="239" y="553"/>
      <point x="242" y="553"/>
      <point x="245" y="552" type="curve"/>
      <point x="248" y="552" type="line"/>
      <point x="255" y="552" type="line"/>
      <point x="318" y="541"/>
      <point x="364" y="498"/>
      <point x="364" y="442" type="curve" smooth="yes"/>
      <point x="364" y="293" type="line" smooth="yes"/>
      <point x="364" y="256"/>
      <point x="343" y="222"/>
      <point x="307" y="202" type="curve"/>
      <point x="342" y="181"/>
      <point x="363" y="147"/>
      <point x="363" y="111" type="curve" smooth="yes"/>
      <point x="363" y="80"/>
      <point x="349" y="53"/>
      <point x="325" y="33" type="curve" smooth="yes"/>
      <point x="301" y="13"/>
      <point x="269" y="0"/>
      <point x="233" y="0" type="curve" smooth="yes"/>
      <point x="65" y="0" type="line" smooth="yes"/>
      <point x="53" y="0"/>
      <point x="44" y="8"/>
      <point x="44" y="19" type="curve" smooth="yes"/>
      <point x="44" y="30"/>
      <point x="53" y="38"/>
      <point x="65" y="38" type="curve" smooth="yes"/>
      <point x="233" y="38" type="line" smooth="yes"/>
      <point x="281" y="38"/>
      <point x="319" y="70"/>
      <point x="319" y="111" type="curve" smooth="yes"/>
      <point x="319" y="148"/>
      <point x="286" y="179"/>
      <point x="242" y="183" type="curve"/>
      <point x="235" y="183" type="line"/>
      <point x="221" y="183" type="line"/>
      <point x="220" y="183" type="line" smooth="yes"/>
      <point x="219" y="183"/>
      <point x="218" y="183"/>
      <point x="217" y="184" type="curve"/>
      <point x="216" y="184"/>
      <point x="214" y="184"/>
      <point x="213" y="184" type="curve"/>
      <point x="150" y="195"/>
      <point x="105" y="240"/>
      <point x="105" y="293" type="curve" smooth="yes"/>
      <point x="105" y="442" type="line" smooth="yes"/>
      <point x="105" y="479"/>
      <point x="126" y="513"/>
      <point x="162" y="534" type="curve"/>
      <point x="126" y="555"/>
      <point x="105" y="589"/>
      <point x="105" y="625" type="curve" smooth="yes"/>
      <point x="105" y="656"/>
      <point x="119" y="683"/>
      <point x="143" y="703" type="curve" smooth="yes"/>
      <point x="167" y="723"/>
      <point x="199" y="736"/>
      <point x="235" y="736" type="curve" smooth="yes"/>
    </contour>
    <contour>
      <point x="228" y="515" type="line"/>
      <point x="184" y="512"/>
      <point x="149" y="481"/>
      <point x="149" y="442" type="curve" smooth="yes"/>
      <point x="149" y="293" type="line" smooth="yes"/>
      <point x="149" y="257"/>
      <point x="181" y="226"/>
      <point x="224" y="221" type="curve"/>
      <point x="233" y="221" type="line"/>
      <point x="242" y="221" type="line"/>
      <point x="286" y="224"/>
      <point x="321" y="256"/>
      <point x="321" y="293" type="curve" smooth="yes"/>
      <point x="321" y="343" type="line"/>
      <point x="321" y="344" type="line"/>
      <point x="321" y="442" type="line" smooth="yes"/>
      <point x="321" y="481"/>
      <point x="287" y="511"/>
      <point x="243" y="515" type="curve"/>
      <point x="235" y="515" type="line"/>
    </contour>
  </outline>
</glyph>
<glyph name="dieresis" format="1">
  <advance width="308"/>
  <unicode hex="00A8"/>
  <outline>
    <contour>
      <point x="110" y="635"/>
      <point x="123" y="623"/>
      <point x="123" y="604" type="curve" smooth="yes"/>
      <point x="123" y="581" type="line" smooth="yes"/>
      <point x="123" y="562"/>
      <point x="110" y="549"/>
      <point x="91" y="549" type="curve" smooth="yes"/>
      <point x="74" y="549"/>
      <point x="61" y="562"/>
      <point x="61" y="581" type="curve" smooth="yes"/>
      <point x="61" y="604" type="line" smooth="yes"/>
      <point x="61" y="623"/>
      <point x="74" y="635"/>
      <point x="91" y="635" type="curve" smooth="yes"/>
    </contour>
    <contour>
      <point x="233" y="635"/>
      <point x="246" y="623"/>
      <point x="246" y="604" type="curve" smooth="yes"/>
      <point x="246" y="581" type="line" smooth="yes"/>
      <point x="246" y="562"/>
      <point x="233" y="549"/>
      <point x="214" y="549" type="curve" smooth="yes"/>
      <point x="198" y="549"/>
      <point x="184" y="562"/>
      <point x="184" y="581" type="curve" smooth="yes"/>
      <point x="184" y="604" type="line" smooth="yes"/>
      <point x="184" y="623"/>
      <point x="198" y="635"/>
      <point x="214" y="635" type="curve" smooth="yes"/>
    </contour>
  </outline>
</glyph>
